<?xml version="1.0" standalone="no"?>
<!DOCTYPE svg PUBLIC "-//W3C//DTD SVG 20010904//EN"
 "http://www.w3.org/TR/2001/REC-SVG-20010904/DTD/svg10.dtd">
<svg version="1.0" xmlns="http://www.w3.org/2000/svg"
 width="512.000000pt" height="512.000000pt" viewBox="0 0 512.000000 512.000000"
 preserveAspectRatio="xMidYMid meet">

<g transform="translate(0.000000,512.000000) scale(0.100000,-0.100000)"
fill="#000000" stroke="none">
<path d="M439 4950 c-8 -5 -93 -125 -187 -267 -119 -178 -172 -267 -172 -286
0 -22 35 -66 168 -209 92 -100 315 -342 495 -537 180 -196 339 -360 352 -365
16 -6 34 -6 50 0 13 5 172 169 352 365 180 195 403 437 496 537 132 143 167
187 167 209 0 31 -331 537 -361 554 -23 12 -1339 11 -1360 -1z m449 -275 c-46
-68 -85 -124 -88 -124 -3 0 -42 56 -88 124 l-82 125 170 0 170 0 -82 -125z
m640 0 c-46 -68 -85 -124 -88 -124 -3 0 -42 56 -88 124 l-82 125 170 0 170 0
-82 -125z m-960 -70 l82 -125 -170 0 -170 0 82 125 c46 68 85 124 88 124 3 0
42 -56 88 -124z m640 0 l82 -125 -170 0 -170 0 82 125 c46 68 85 124 88 124 3
0 42 -56 88 -124z m640 0 l82 -125 -170 0 -170 0 82 125 c46 68 85 124 88 124
3 0 42 -56 88 -124z m-1021 -560 c46 -148 90 -292 98 -320 l15 -50 -28 30
c-55 57 -537 580 -551 598 -13 17 -4 17 185 15 l198 -3 83 -270z m501 263 c-3
-7 -49 -158 -104 -335 -54 -178 -101 -323 -104 -323 -3 0 -50 145 -104 323
-55 177 -101 328 -104 335 -3 9 43 12 208 12 165 0 211 -3 208 -12z m562 7 c0
-5 -465 -511 -552 -600 l-38 -40 14 45 c8 25 51 164 96 310 44 146 83 271 85
278 3 9 52 12 200 12 107 0 195 -2 195 -5z"/>
<path d="M2773 4271 c-81 -21 -160 -91 -193 -170 -12 -30 -13 -30 -69 -24 -40
4 -75 0 -116 -11 -106 -31 -195 -148 -195 -258 0 -20 -5 -28 -18 -28 -56 0
-127 -34 -178 -85 -64 -64 -90 -135 -81 -225 l6 -57 -49 -23 c-58 -27 -100
-68 -132 -130 -36 -69 -33 -177 6 -248 l29 -52 -25 -28 c-51 -54 -73 -111 -73
-192 1 -62 5 -84 27 -126 15 -28 41 -63 59 -78 29 -25 30 -28 16 -44 -66 -72
-81 -223 -33 -323 29 -63 96 -130 153 -156 21 -10 39 -18 41 -19 2 -1 -4 -28
-14 -60 -40 -139 13 -293 133 -385 47 -36 150 -69 213 -69 l47 0 6 -72 c19
-228 239 -401 457 -360 60 11 144 46 187 77 21 16 22 15 42 -24 74 -144 278
-243 445 -214 131 22 230 85 298 189 40 61 43 63 63 49 41 -31 126 -66 185
-77 218 -41 438 133 457 361 l6 71 47 0 c155 0 299 109 344 260 20 67 20 133
1 196 -19 63 -20 58 19 72 53 20 132 96 162 159 48 97 33 252 -31 323 -13 15
-11 20 16 46 17 16 43 52 57 79 22 41 26 63 27 125 0 81 -22 138 -73 192 l-25
28 27 50 c60 110 42 236 -48 325 -28 29 -68 58 -89 64 l-37 12 6 58 c10 90
-15 162 -79 226 -52 51 -121 85 -174 85 -19 0 -23 5 -23 28 0 110 -89 227
-195 258 -40 11 -76 15 -114 11 l-56 -6 -29 55 c-51 98 -132 147 -241 148 -57
1 -80 -4 -127 -27 -31 -15 -68 -41 -81 -56 l-24 -28 -89 30 c-159 54 -386 48
-531 -14 l-44 -19 -25 30 c-53 62 -187 102 -271 81z m151 -190 c26 -27 31 -39
31 -81 0 -43 -5 -54 -33 -82 -28 -28 -39 -33 -82 -33 -43 0 -54 5 -82 33 -28
28 -33 39 -33 81 0 52 25 92 70 112 37 16 96 3 129 -30z m1120 0 c26 -27 31
-39 31 -81 0 -43 -5 -54 -33 -82 -28 -28 -39 -33 -82 -33 -43 0 -54 5 -82 33
-28 28 -33 39 -33 81 0 52 25 92 70 112 37 16 96 3 129 -30z m-511 -16 c63
-13 147 -50 147 -65 0 -15 -84 -52 -147 -65 -86 -18 -179 -19 -264 -1 -71 15
-149 50 -149 66 0 16 78 51 144 65 81 18 186 18 269 0z m-969 -184 c26 -27 31
-39 31 -81 0 -43 -5 -54 -33 -82 -28 -28 -39 -33 -82 -33 -43 0 -54 5 -82 33
-28 28 -33 39 -33 81 0 52 25 92 70 112 37 16 96 3 129 -30z m1840 0 c26 -27
31 -39 31 -81 0 -43 -5 -54 -33 -82 -28 -28 -39 -33 -82 -33 -43 0 -54 5 -82
33 -28 28 -33 39 -33 81 0 52 25 92 70 112 37 16 96 3 129 -30z m-1281 -66
c155 -71 398 -71 555 0 l54 25 23 -28 c13 -15 47 -41 77 -57 47 -27 63 -30
135 -30 l82 0 18 -40 c37 -83 120 -146 211 -161 39 -6 40 -7 45 -54 12 -97 75
-184 162 -223 l40 -18 0 -82 c0 -88 15 -130 71 -196 l27 -32 -29 -52 c-25 -45
-29 -63 -29 -127 0 -58 6 -85 22 -117 l22 -41 -22 -15 c-85 -56 -141 -157
-142 -257 0 -36 3 -77 8 -92 6 -23 4 -28 -10 -28 -34 0 -123 -49 -172 -95 -55
-51 -99 -138 -108 -212 l-5 -48 -92 0 c-78 0 -100 -4 -149 -28 -74 -34 -128
-77 -168 -132 l-32 -44 -51 39 c-162 122 -395 117 -542 -12 l-37 -33 -15 25
c-30 47 -117 126 -165 148 -67 31 -141 45 -208 39 l-57 -5 -6 52 c-9 69 -45
145 -96 200 -42 45 -146 106 -182 106 -15 0 -17 5 -11 28 5 15 8 56 7 92 -1
90 -31 156 -104 223 l-57 53 21 40 c15 29 21 57 21 114 0 64 -4 83 -29 127
l-29 52 27 32 c61 72 88 166 69 238 l-9 35 58 28 c87 44 144 123 155 218 5 47
6 48 45 54 91 15 174 78 211 161 l18 40 82 0 c72 0 88 3 136 30 29 16 63 42
75 57 11 15 22 27 22 27 1 1 26 -10 57 -24z m-839 -234 c26 -27 31 -39 31 -81
0 -43 -5 -54 -33 -82 -28 -28 -39 -33 -82 -33 -43 0 -54 5 -82 33 -28 28 -33
39 -33 81 0 52 25 92 70 112 37 16 96 3 129 -30z m2400 0 c26 -27 31 -39 31
-81 0 -43 -5 -54 -33 -82 -28 -28 -39 -33 -82 -33 -43 0 -54 5 -82 33 -28 28
-33 39 -33 81 0 52 25 92 70 112 37 16 96 3 129 -30z m-2600 -360 c26 -27 31
-39 31 -81 0 -43 -5 -54 -33 -82 -28 -28 -39 -33 -82 -33 -43 0 -54 5 -82 33
-28 28 -33 39 -33 81 0 52 25 92 70 112 37 16 96 3 129 -30z m2800 0 c26 -27
31 -39 31 -81 0 -43 -5 -54 -33 -82 -28 -28 -39 -33 -82 -33 -43 0 -54 5 -82
33 -28 28 -33 39 -33 81 0 52 25 92 70 112 37 16 96 3 129 -30z m-2840 -400
c26 -27 31 -39 31 -81 0 -43 -5 -54 -33 -82 -28 -28 -39 -33 -82 -33 -43 0
-54 5 -82 33 -28 28 -33 39 -33 81 0 52 25 92 70 112 37 16 96 3 129 -30z
m2880 0 c26 -27 31 -39 31 -81 0 -43 -5 -54 -33 -82 -28 -28 -39 -33 -82 -33
-43 0 -54 5 -82 33 -28 28 -33 39 -33 81 0 52 25 92 70 112 37 16 96 3 129
-30z m-2821 -375 c103 -43 128 -177 48 -257 -65 -65 -157 -65 -222 0 -124 123
13 325 174 257z m2720 0 c103 -43 128 -177 48 -257 -65 -65 -157 -65 -222 0
-124 123 13 325 174 257z m-2429 -443 c55 -39 81 -93 81 -168 0 -113 -77 -190
-189 -190 -142 0 -233 118 -197 253 14 51 75 117 123 131 56 17 137 6 182 -26z
m2240 0 c55 -39 81 -93 81 -168 0 -113 -77 -190 -189 -190 -142 0 -233 118
-197 253 14 51 75 117 123 131 56 17 137 6 182 -26z m-1808 -347 c86 -40 144
-129 144 -222 0 -118 -119 -234 -240 -234 -125 0 -240 114 -240 238 0 65 22
115 75 167 77 78 166 95 261 51z m1318 12 c55 -16 138 -99 154 -154 28 -94 8
-169 -63 -239 -93 -94 -218 -101 -315 -17 -84 71 -111 180 -68 274 54 117 171
172 292 136z m-654 -84 c103 -31 190 -151 190 -263 0 -151 -130 -281 -281
-281 -112 0 -232 87 -263 190 -33 111 -10 206 69 285 78 79 174 102 285 69z"/>
<path d="M389 1904 c-96 -29 -175 -131 -186 -238 -5 -49 -3 -57 20 -80 54 -54
122 -24 138 59 14 73 54 110 119 110 43 0 54 -5 82 -33 28 -28 33 -39 33 -82
0 -65 -37 -105 -110 -119 -76 -14 -85 -31 -85 -167 l0 -113 -98 -75 c-117 -88
-145 -119 -186 -206 l-31 -65 -3 -342 -3 -343 25 -25 c33 -33 79 -33 111 0 24
23 25 29 25 159 l0 135 43 -25 c23 -13 59 -29 80 -34 l37 -11 0 -140 c0 -135
1 -141 25 -164 32 -33 78 -33 110 0 24 23 25 29 25 164 l0 140 38 11 c20 5 56
21 80 34 l42 25 0 -135 c0 -130 1 -136 25 -159 32 -33 78 -33 111 0 l25 25 -3
343 -3 342 -31 65 c-41 87 -69 118 -186 206 l-98 75 0 64 0 65 43 21 c58 29
94 65 124 123 56 110 37 233 -52 321 -78 78 -178 103 -286 69z m169 -863 c42
-32 89 -72 104 -87 97 -103 68 -286 -58 -360 -118 -69 -272 -23 -336 100 -46
86 -24 209 49 278 26 25 154 126 161 127 2 1 38 -26 80 -58z"/>
<path d="M1349 1904 c-96 -29 -175 -131 -186 -238 -5 -49 -3 -57 20 -80 54
-54 122 -24 138 59 14 73 54 110 119 110 43 0 54 -5 82 -33 28 -28 33 -39 33
-82 0 -65 -37 -105 -110 -119 -77 -14 -85 -30 -85 -172 l0 -118 -98 -75 c-117
-88 -145 -119 -186 -206 l-31 -65 -3 -334 c-3 -361 -2 -370 49 -391 33 -14 62
-6 89 23 18 18 20 35 20 153 l0 133 43 -24 c23 -12 59 -28 80 -35 l37 -12 0
-137 c0 -124 2 -139 20 -159 27 -28 62 -37 92 -21 44 23 47 37 48 181 l0 136
38 12 c20 7 56 23 80 35 l42 24 0 -135 c0 -130 1 -136 25 -159 32 -33 78 -33
111 0 l25 25 -3 343 -3 342 -31 65 c-40 85 -75 123 -190 211 l-94 72 0 68 0
69 43 21 c58 29 94 65 124 123 56 110 37 233 -52 321 -78 78 -178 103 -286 69z
m177 -878 c97 -73 118 -98 139 -157 41 -114 -9 -239 -117 -293 -207 -103 -424
109 -320 315 21 42 47 70 117 126 50 40 91 73 93 73 1 0 41 -29 88 -64z"/>
</g>
</svg>
