<?xml version="1.0" standalone="no"?>
<!DOCTYPE svg PUBLIC "-//W3C//DTD SVG 20010904//EN"
 "http://www.w3.org/TR/2001/REC-SVG-20010904/DTD/svg10.dtd">
<svg version="1.0" xmlns="http://www.w3.org/2000/svg"
 width="512.000000pt" height="512.000000pt" viewBox="0 0 512.000000 512.000000"
 preserveAspectRatio="xMidYMid meet">

<g transform="translate(0.000000,512.000000) scale(0.100000,-0.100000)"
fill="#000000" stroke="none">
<path d="M105 5106 c-37 -17 -80 -62 -94 -99 -8 -19 -11 -362 -11 -1083 0
-873 2 -1060 14 -1087 16 -39 61 -82 99 -96 40 -15 2124 -15 2164 0 38 14 83
57 99 96 21 48 21 2128 0 2176 -16 39 -61 82 -99 96 -19 8 -362 11 -1085 11
-861 -1 -1063 -3 -1087 -14z m1945 -1181 l0 -855 -855 0 -855 0 0 855 0 855
855 0 855 0 0 -855z"/>
<path d="M2835 5106 c-37 -17 -80 -62 -94 -99 -8 -19 -11 -362 -11 -1083 0
-873 2 -1060 14 -1087 16 -39 61 -82 99 -96 40 -15 2124 -15 2164 0 38 14 83
57 99 96 21 48 21 2128 0 2176 -16 39 -61 82 -99 96 -19 8 -362 11 -1085 11
-861 -1 -1063 -3 -1087 -14z m1945 -1181 l0 -855 -855 0 -855 0 0 855 0 855
855 0 855 0 0 -855z"/>
<path d="M105 2376 c-37 -17 -80 -62 -94 -99 -8 -19 -11 -362 -11 -1083 0
-873 2 -1060 14 -1087 16 -39 61 -82 99 -96 40 -15 2124 -15 2164 0 38 14 83
57 99 96 21 48 21 2128 0 2176 -16 39 -61 82 -99 96 -19 8 -362 11 -1085 11
-861 -1 -1063 -3 -1087 -14z m1945 -1181 l0 -855 -855 0 -855 0 0 855 0 855
855 0 855 0 0 -855z"/>
<path d="M2835 2376 c-37 -17 -80 -62 -94 -99 -8 -19 -11 -362 -11 -1083 0
-873 2 -1060 14 -1087 16 -39 61 -82 99 -96 40 -15 2124 -15 2164 0 38 14 83
57 99 96 21 48 21 2128 0 2176 -16 39 -61 82 -99 96 -19 8 -362 11 -1085 11
-861 -1 -1063 -3 -1087 -14z m1945 -1181 l0 -855 -855 0 -855 0 0 855 0 855
855 0 855 0 0 -855z"/>
</g>
</svg>
