<svg width="24" height="24" version="1.1" xmlns="http://www.w3.org/2000/svg" desc="Created with imagetracer.js version 1.2.6" ><path fill="rgb(0,0,0)" stroke="rgb(0,0,0)" stroke-width="1" opacity="0" d="M 0 0 L 24 0 L 24 24 L 0 24 L 0 0 Z M 11 2 L 5 5 L 2 8 L 2 18 L 11 22 L 14 22 L 21 18 L 22 17 L 22 8 L 14 2 L 11 2 Z " /><path fill="rgb(0,0,0)" stroke="rgb(0,0,0)" stroke-width="1" opacity="0" d="M 11.5 5 L 17 7 L 16.5 9 L 11.5 6 L 11.5 5 Z " /><path fill="rgb(0,0,0)" stroke="rgb(0,0,0)" stroke-width="1" opacity="0" d="M 7.5 7 L 13 10.5 L 10.5 11 L 7 9 L 7.5 7 Z " /><path fill="rgb(0,0,0)" stroke="rgb(0,0,0)" stroke-width="1" opacity="0" d="M 19.5 10 L 20 14.5 L 13 18 Q 12 14.2 14.5 13 Q 17.1 12.3 16 15 L 18 15 Q 17 11.2 19.5 10 Z " /><path fill="rgb(0,0,0)" stroke="rgb(0,0,0)" stroke-width="1" opacity="0.1568627450980392" d="M 13.5 5 L 12.5 7 L 13.5 5 Z " /><path fill="rgb(0,0,0)" stroke="rgb(0,0,0)" stroke-width="1" opacity="0.1568627450980392" d="M 12.5 9 L 13.5 11 L 12.5 9 Z " /><path fill="rgb(0,0,0)" stroke="rgb(0,0,0)" stroke-width="1" opacity="1" d="M 10.5 3 L 13.5 3 L 22 8.5 Q 23.8 15.3 20.5 17 L 13.5 21 L 10.5 21 L 2 15.5 Q 0.2 7.7 4.5 6 L 10.5 3 Z M 10 4 L 10 6 L 16 9 L 18 9 Q 20 10 19 7 L 14 4 L 10 4 Z M 8 6 L 7 7 Q 4 6 5 9 L 11 12 L 15 11 L 8 6 Z M 20 9 Q 17 10 18 14 L 16 14 Q 17 11 15 12 Q 12 14 13 19 L 20 16 L 20 9 Z " /><path fill="rgb(0,0,0)" stroke="rgb(0,0,0)" stroke-width="1" opacity="0.8313725490196079" d="M 9.5 3 L 10.5 5 L 9.5 3 Z " /><path fill="rgb(0,0,0)" stroke="rgb(0,0,0)" stroke-width="1" opacity="0.8313725490196079" d="M 14.5 3 L 13.5 5 L 14.5 3 Z " /><path fill="rgb(0,0,0)" stroke="rgb(0,0,0)" stroke-width="1" opacity="0.8313725490196079" d="M 11.5 6 L 12.5 8 L 11.5 6 Z " /><path fill="rgb(0,0,0)" stroke="rgb(0,0,0)" stroke-width="1" opacity="0.8313725490196079" d="M 19.5 6 L 19 7.5 L 20 9.5 L 18 8.5 L 19.5 6 Z " /><path fill="rgb(0,0,0)" stroke="rgb(0,0,0)" stroke-width="1" opacity="0.8313725490196079" d="M 14.5 8 L 14.5 11 Q 11.5 9.5 14.5 8 Z " /><path fill="rgb(0,0,0)" stroke="rgb(0,0,0)" stroke-width="1" opacity="0.8313725490196079" d="M 18.5 16 L 19.5 18 L 18.5 16 Z " /></svg>