<svg width="512" height="512" version="1.1" xmlns="http://www.w3.org/2000/svg" desc="Created with imagetracer.js version 1.2.6" ><path fill="rgb(0,0,0)" stroke="rgb(0,0,0)" stroke-width="1" opacity="0" d="M 0 0 L 30 0.5 L 21.5 2 Q 13.2 5.2 8 11.5 L 1 23.5 L 0.5 27 L 0 0 Z " /><path fill="rgb(0,0,0)" stroke="rgb(0,0,0)" stroke-width="1" opacity="0" d="M 37.5 0 L 475 0.5 Q 464.6 1.6 458.5 7 L 255.5 209 L 53.5 7 Q 48.1 1.4 37.5 1 L 37.5 0 Z " /><path fill="rgb(0,0,0)" stroke="rgb(0,0,0)" stroke-width="1" opacity="0" d="M 482.5 0 L 512 0 L 512 26.5 L 511 26.5 Q 508.6 14.4 500.5 8 L 490.5 2 L 482.5 1 L 482.5 0 Z " /><path fill="rgb(0,0,0)" stroke="rgb(0,0,0)" stroke-width="1" opacity="0" d="M 0.5 40 Q 1.9 49.1 7 54.5 L 209 256.5 L 6 459.5 Q 1.6 464.6 0.5 473 L 0.5 40 Z " /><path fill="rgb(0,0,0)" stroke="rgb(0,0,0)" stroke-width="1" opacity="0" d="M 511.5 40 L 512 472.5 L 511 472.5 Q 510.5 464 506 459.5 L 303 256.5 L 505 54.5 Q 510.1 49.1 511.5 40 Z " /><path fill="rgb(0,0,0)" stroke="rgb(0,0,0)" stroke-width="1" opacity="0" d="M 255.5 304 L 457.5 505 Q 462.5 510 471 511.5 L 41.5 512 L 41.5 511 L 44.5 511 L 53.5 506 L 255.5 304 Z " /><path fill="rgb(0,0,0)" stroke="rgb(0,0,0)" stroke-width="1" opacity="0" d="M 0.5 485 L 2 491.5 L 9 503 L 17.5 509 L 25 511.5 L 0 512 L 0.5 485 Z " /><path fill="rgb(0,0,0)" stroke="rgb(0,0,0)" stroke-width="1" opacity="0" d="M 511.5 485 L 512 512 L 487 511.5 L 494.5 509 L 503 503 L 510 491.5 L 511.5 485 Z " /><path fill="rgb(0,0,0)" stroke="rgb(0,0,0)" stroke-width="1" opacity="0.8117647058823529" d="M 30.5 0 L 37 0.5 L 30.5 1 L 30.5 0 Z " /><path fill="rgb(0,0,0)" stroke="rgb(0,0,0)" stroke-width="1" opacity="0.8117647058823529" d="M 475.5 0 L 482 0.5 L 475.5 1 L 475.5 0 Z " /><path fill="rgb(0,0,0)" stroke="rgb(0,0,0)" stroke-width="1" opacity="0.8117647058823529" d="M 15.5 5 L 14.5 7 L 15.5 5 Z " /><path fill="rgb(0,0,0)" stroke="rgb(0,0,0)" stroke-width="1" opacity="0.8117647058823529" d="M 496.5 5 L 497.5 7 L 496.5 5 Z " /><path fill="rgb(0,0,0)" stroke="rgb(0,0,0)" stroke-width="1" opacity="0.8117647058823529" d="M 53.5 7 L 256.5 209 L 459 7.5 L 255.5 210 L 53.5 7 Z " /><path fill="rgb(0,0,0)" stroke="rgb(0,0,0)" stroke-width="1" opacity="0.8117647058823529" d="M 11.5 8 L 8.5 12 L 11.5 8 Z " /><path fill="rgb(0,0,0)" stroke="rgb(0,0,0)" stroke-width="1" opacity="0.8117647058823529" d="M 500.5 8 L 503.5 12 L 500.5 8 Z " /><path fill="rgb(0,0,0)" stroke="rgb(0,0,0)" stroke-width="1" opacity="0.8117647058823529" d="M 6.5 14 L 5.5 16 L 6.5 14 Z " /><path fill="rgb(0,0,0)" stroke="rgb(0,0,0)" stroke-width="1" opacity="0.8117647058823529" d="M 505.5 14 L 506.5 16 L 505.5 14 Z " /><path fill="rgb(0,0,0)" stroke="rgb(0,0,0)" stroke-width="1" opacity="0.8117647058823529" d="M 0.5 27 L 1 31.5 L 0 31.5 L 0.5 27 Z " /><path fill="rgb(0,0,0)" stroke="rgb(0,0,0)" stroke-width="1" opacity="0.8117647058823529" d="M 511.5 27 L 512 31.5 L 511 31.5 L 511.5 27 Z " /><path fill="rgb(0,0,0)" stroke="rgb(0,0,0)" stroke-width="1" opacity="0.8117647058823529" d="M 511.5 35 L 512 39.5 L 511 39.5 L 511.5 35 Z " /><path fill="rgb(0,0,0)" stroke="rgb(0,0,0)" stroke-width="1" opacity="0.8117647058823529" d="M 0.5 36 L 1 39.5 L 0 39.5 L 0.5 36 Z " /><path fill="rgb(0,0,0)" stroke="rgb(0,0,0)" stroke-width="1" opacity="0.8117647058823529" d="M 3.5 47 L 5 49.5 L 3 48.5 L 3.5 47 Z " /><path fill="rgb(0,0,0)" stroke="rgb(0,0,0)" stroke-width="1" opacity="0.8117647058823529" d="M 508.5 47 L 509 48.5 L 507 49.5 L 508.5 47 Z " /><path fill="rgb(0,0,0)" stroke="rgb(0,0,0)" stroke-width="1" opacity="0.8117647058823529" d="M 7.5 54 L 208.5 256 L 7.5 54 Z " /><path fill="rgb(0,0,0)" stroke="rgb(0,0,0)" stroke-width="1" opacity="0.8117647058823529" d="M 504.5 54 L 303.5 256 L 504.5 54 Z " /><path fill="rgb(0,0,0)" stroke="rgb(0,0,0)" stroke-width="1" opacity="0.8117647058823529" d="M 208.5 257 L 6.5 460 L 208.5 257 Z " /><path fill="rgb(0,0,0)" stroke="rgb(0,0,0)" stroke-width="1" opacity="0.8117647058823529" d="M 303.5 257 L 505.5 460 L 303.5 257 Z " /><path fill="rgb(0,0,0)" stroke="rgb(0,0,0)" stroke-width="1" opacity="0.8117647058823529" d="M 255.5 303 L 458 504.5 L 256.5 304 L 53.5 506 L 255.5 303 Z " /><path fill="rgb(0,0,0)" stroke="rgb(0,0,0)" stroke-width="1" opacity="0.8117647058823529" d="M 5.5 461 L 4.5 463 L 5.5 461 Z " /><path fill="rgb(0,0,0)" stroke="rgb(0,0,0)" stroke-width="1" opacity="0.8117647058823529" d="M 506.5 461 L 507.5 463 L 506.5 461 Z " /><path fill="rgb(0,0,0)" stroke="rgb(0,0,0)" stroke-width="1" opacity="0.8117647058823529" d="M 0.5 473 L 1 476.5 L 0 476.5 L 0.5 473 Z " /><path fill="rgb(0,0,0)" stroke="rgb(0,0,0)" stroke-width="1" opacity="0.8117647058823529" d="M 511.5 473 L 512 476.5 L 511 476.5 L 511.5 473 Z " /><path fill="rgb(0,0,0)" stroke="rgb(0,0,0)" stroke-width="1" opacity="0.8117647058823529" d="M 0.5 481 L 1 484.5 L 0 484.5 L 0.5 481 Z " /><path fill="rgb(0,0,0)" stroke="rgb(0,0,0)" stroke-width="1" opacity="0.8117647058823529" d="M 511.5 481 L 512 484.5 L 511 484.5 L 511.5 481 Z " /><path fill="rgb(0,0,0)" stroke="rgb(0,0,0)" stroke-width="1" opacity="0.8117647058823529" d="M 5.5 497 L 6.5 499 L 5.5 497 Z " /><path fill="rgb(0,0,0)" stroke="rgb(0,0,0)" stroke-width="1" opacity="0.8117647058823529" d="M 506.5 497 L 505.5 499 L 506.5 497 Z " /><path fill="rgb(0,0,0)" stroke="rgb(0,0,0)" stroke-width="1" opacity="0.8117647058823529" d="M 13.5 505 L 14.5 507 L 13.5 505 Z " /><path fill="rgb(0,0,0)" stroke="rgb(0,0,0)" stroke-width="1" opacity="0.8117647058823529" d="M 498.5 505 L 497.5 507 L 498.5 505 Z " /><path fill="rgb(0,0,0)" stroke="rgb(0,0,0)" stroke-width="1" opacity="0.8117647058823529" d="M 51.5 506 L 50.5 508 L 51.5 506 Z " /><path fill="rgb(0,0,0)" stroke="rgb(0,0,0)" stroke-width="1" opacity="0.8117647058823529" d="M 460.5 506 L 461.5 508 L 460.5 506 Z " /><path fill="rgb(0,0,0)" stroke="rgb(0,0,0)" stroke-width="1" opacity="0.8117647058823529" d="M 16.5 507 L 17.5 509 L 16.5 507 Z " /><path fill="rgb(0,0,0)" stroke="rgb(0,0,0)" stroke-width="1" opacity="0.8117647058823529" d="M 495.5 507 L 494.5 509 L 495.5 507 Z " /><path fill="rgb(0,0,0)" stroke="rgb(0,0,0)" stroke-width="1" opacity="0.8117647058823529" d="M 25.5 511 L 28 511.5 L 25.5 512 L 25.5 511 Z " /><path fill="rgb(0,0,0)" stroke="rgb(0,0,0)" stroke-width="1" opacity="0.8117647058823529" d="M 484.5 511 L 487 511.5 L 484.5 512 L 484.5 511 Z " /><path fill="rgb(0,0,0)" stroke="rgb(0,0,0)" stroke-width="1" opacity="1" d="M 27.5 1 L 39.5 1 L 51.5 6 L 256.5 210 L 460.5 6 L 472.5 1 L 484.5 1 Q 498.1 3.9 505 13.5 L 510 22.5 L 512 34.5 Q 509.5 36 511 41.5 L 506 52.5 L 303 255.5 L 303 257.5 L 506 460.5 Q 511.8 467.7 512 480.5 Q 509.5 482 511 487.5 L 507 496.5 L 499.5 505 L 488.5 511 L 473.5 512 L 459.5 506 L 255.5 303 L 52.5 506 Q 44.5 513 28.5 512 Q 14 509.5 7 499.5 L 1 487.5 L 0 477.5 L 3 465.5 L 6 460.5 L 209 257.5 L 209 255.5 L 6 52.5 Q 0.2 45.3 0 32.5 Q 2.5 31 1 25.5 L 5 16.5 L 13.5 7 L 27.5 1 Z " /></svg>