<?xml version="1.0" standalone="no"?>
<!DOCTYPE svg PUBLIC "-//W3C//DTD SVG 20010904//EN"
 "http://www.w3.org/TR/2001/REC-SVG-20010904/DTD/svg10.dtd">
<svg version="1.0" xmlns="http://www.w3.org/2000/svg"
 width="512.000000pt" height="512.000000pt" viewBox="0 0 512.000000 512.000000"
 preserveAspectRatio="xMidYMid meet">

<g transform="translate(0.000000,512.000000) scale(0.100000,-0.100000)"
fill="#000000" stroke="none">
<path d="M2330 5109 c-141 -14 -350 -54 -486 -93 -833 -240 -1500 -907 -1740
-1740 -63 -218 -104 -501 -104 -716 0 -215 41 -498 104 -716 240 -833 907
-1500 1740 -1740 301 -87 630 -120 926 -94 624 56 1175 313 1607 751 369 374
603 822 698 1337 119 641 -17 1317 -373 1862 -94 144 -192 264 -325 399 -402
407 -904 658 -1477 737 -133 18 -446 26 -570 13z m560 -334 c221 -34 485 -117
675 -213 477 -239 871 -666 1069 -1159 276 -689 199 -1469 -207 -2078 -449
-674 -1227 -1058 -2023 -997 -545 41 -1015 253 -1408 632 -897 867 -897 2332
0 3200 390 378 825 575 1399 634 81 8 393 -4 495 -19z"/>
<path d="M1615 3586 c-41 -18 -83 -69 -91 -111 -16 -88 -24 -78 409 -512 l402
-403 -402 -402 c-435 -436 -425 -424 -408 -515 9 -49 69 -109 118 -118 91 -17
79 -27 515 408 l402 402 403 -402 c435 -435 423 -425 514 -408 49 9 109 69
118 118 17 91 27 79 -408 515 l-402 402 402 403 c435 435 425 423 408 514 -9
49 -69 109 -118 118 -91 17 -79 27 -515 -408 l-402 -402 -398 397 c-218 218
-410 402 -425 408 -38 14 -85 12 -122 -4z"/>
</g>
</svg>
