<svg width="512" height="512" version="1.1" xmlns="http://www.w3.org/2000/svg" desc="Created with imagetracer.js version 1.2.6" ><path fill="rgb(0,0,0)" stroke="rgb(0,0,0)" stroke-width="1" opacity="0.9450980392156862" d="M 430.5 64 L 434 64.5 L 430.5 65 L 430.5 64 Z " /><path fill="rgb(0,0,0)" stroke="rgb(0,0,0)" stroke-width="1" opacity="0.9450980392156862" d="M 422.5 67 L 369.5 121 L 422.5 67 Z " /><path fill="rgb(0,0,0)" stroke="rgb(0,0,0)" stroke-width="1" opacity="0.9450980392156862" d="M 441.5 67 L 444.5 71 L 441.5 67 Z " /><path fill="rgb(0,0,0)" stroke="rgb(0,0,0)" stroke-width="1" opacity="0.9450980392156862" d="M 447.5 78 L 448 81.5 L 447 81.5 L 447.5 78 Z " /><path fill="rgb(0,0,0)" stroke="rgb(0,0,0)" stroke-width="1" opacity="0.9450980392156862" d="M 444.5 89 L 89.5 445 L 444.5 89 Z " /><path fill="rgb(0,0,0)" stroke="rgb(0,0,0)" stroke-width="1" opacity="0.9450980392156862" d="M 246.5 96 L 254 96.5 L 246.5 97 L 246.5 96 Z " /><path fill="rgb(0,0,0)" stroke="rgb(0,0,0)" stroke-width="1" opacity="0.9450980392156862" d="M 258.5 96 L 266 96.5 L 258.5 97 L 258.5 96 Z " /><path fill="rgb(0,0,0)" stroke="rgb(0,0,0)" stroke-width="1" opacity="0.9450980392156862" d="M 344.5 145 L 312.5 178 L 344.5 145 Z " /><path fill="rgb(0,0,0)" stroke="rgb(0,0,0)" stroke-width="1" opacity="0.9450980392156862" d="M 426.5 155 L 427.5 157 L 426.5 155 Z " /><path fill="rgb(0,0,0)" stroke="rgb(0,0,0)" stroke-width="1" opacity="0.9450980392156862" d="M 81.5 158 L 80.5 160 L 81.5 158 Z " /><path fill="rgb(0,0,0)" stroke="rgb(0,0,0)" stroke-width="1" opacity="0.9450980392156862" d="M 431.5 159 L 432.5 161 L 431.5 159 Z " /><path fill="rgb(0,0,0)" stroke="rgb(0,0,0)" stroke-width="1" opacity="0.9450980392156862" d="M 250.5 160 L 255 160.5 L 250.5 161 L 250.5 160 Z " /><path fill="rgb(0,0,0)" stroke="rgb(0,0,0)" stroke-width="1" opacity="0.9450980392156862" d="M 258.5 160 L 262 160.5 L 258.5 161 L 258.5 160 Z " /><path fill="rgb(0,0,0)" stroke="rgb(0,0,0)" stroke-width="1" opacity="0.9450980392156862" d="M 76.5 162 L 75.5 164 L 76.5 162 Z " /><path fill="rgb(0,0,0)" stroke="rgb(0,0,0)" stroke-width="1" opacity="0.9450980392156862" d="M 436.5 163 L 437.5 165 L 436.5 163 Z " /><path fill="rgb(0,0,0)" stroke="rgb(0,0,0)" stroke-width="1" opacity="0.9450980392156862" d="M 69.5 168 L 67.5 171 L 69.5 168 Z " /><path fill="rgb(0,0,0)" stroke="rgb(0,0,0)" stroke-width="1" opacity="0.9450980392156862" d="M 443.5 169 L 445.5 172 L 443.5 169 Z " /><path fill="rgb(0,0,0)" stroke="rgb(0,0,0)" stroke-width="1" opacity="0.9450980392156862" d="M 59.5 177 L 45.5 192 L 59.5 177 Z " /><path fill="rgb(0,0,0)" stroke="rgb(0,0,0)" stroke-width="1" opacity="0.9450980392156862" d="M 198.5 179 L 197.5 181 L 198.5 179 Z " /><path fill="rgb(0,0,0)" stroke="rgb(0,0,0)" stroke-width="1" opacity="0.9450980392156862" d="M 455.5 180 L 463.5 189 L 455.5 180 Z " /><path fill="rgb(0,0,0)" stroke="rgb(0,0,0)" stroke-width="1" opacity="0.9450980392156862" d="M 409.5 182 L 410.5 184 L 409.5 182 Z " /><path fill="rgb(0,0,0)" stroke="rgb(0,0,0)" stroke-width="1" opacity="0.9450980392156862" d="M 99.5 184 L 98.5 186 L 99.5 184 Z " /><path fill="rgb(0,0,0)" stroke="rgb(0,0,0)" stroke-width="1" opacity="0.9450980392156862" d="M 192.5 184 L 184.5 193 L 192.5 184 Z " /><path fill="rgb(0,0,0)" stroke="rgb(0,0,0)" stroke-width="1" opacity="0.9450980392156862" d="M 414.5 186 L 415.5 188 L 414.5 186 Z " /><path fill="rgb(0,0,0)" stroke="rgb(0,0,0)" stroke-width="1" opacity="0.9450980392156862" d="M 93.5 189 L 92.5 191 L 93.5 189 Z " /><path fill="rgb(0,0,0)" stroke="rgb(0,0,0)" stroke-width="1" opacity="0.9450980392156862" d="M 420.5 191 L 422.5 194 L 420.5 191 Z " /><path fill="rgb(0,0,0)" stroke="rgb(0,0,0)" stroke-width="1" opacity="0.9450980392156862" d="M 85.5 196 L 82.5 200 L 85.5 196 Z " /><path fill="rgb(0,0,0)" stroke="rgb(0,0,0)" stroke-width="1" opacity="0.9450980392156862" d="M 180.5 197 L 179.5 199 L 180.5 197 Z " /><path fill="rgb(0,0,0)" stroke="rgb(0,0,0)" stroke-width="1" opacity="0.9450980392156862" d="M 472.5 198 L 475.5 202 L 472.5 198 Z " /><path fill="rgb(0,0,0)" stroke="rgb(0,0,0)" stroke-width="1" opacity="0.9450980392156862" d="M 38.5 199 L 36.5 202 L 38.5 199 Z " /><path fill="rgb(0,0,0)" stroke="rgb(0,0,0)" stroke-width="1" opacity="0.9450980392156862" d="M 429.5 199 L 446.5 217 L 429.5 199 Z " /><path fill="rgb(0,0,0)" stroke="rgb(0,0,0)" stroke-width="1" opacity="0.9450980392156862" d="M 288.5 201 L 201.5 289 L 288.5 201 Z " /><path fill="rgb(0,0,0)" stroke="rgb(0,0,0)" stroke-width="1" opacity="0.9450980392156862" d="M 479.5 206 L 480.5 208 L 479.5 206 Z " /><path fill="rgb(0,0,0)" stroke="rgb(0,0,0)" stroke-width="1" opacity="0.9450980392156862" d="M 31.5 207 L 30.5 209 L 31.5 207 Z " /><path fill="rgb(0,0,0)" stroke="rgb(0,0,0)" stroke-width="1" opacity="0.9450980392156862" d="M 212.5 208 L 208.5 213 L 212.5 208 Z " /><path fill="rgb(0,0,0)" stroke="rgb(0,0,0)" stroke-width="1" opacity="0.9450980392156862" d="M 27.5 212 L 26.5 214 L 27.5 212 Z " /><path fill="rgb(0,0,0)" stroke="rgb(0,0,0)" stroke-width="1" opacity="0.9450980392156862" d="M 484.5 212 L 485.5 214 L 484.5 212 Z " /><path fill="rgb(0,0,0)" stroke="rgb(0,0,0)" stroke-width="1" opacity="0.9450980392156862" d="M 66.5 215 L 63.5 219 L 66.5 215 Z " /><path fill="rgb(0,0,0)" stroke="rgb(0,0,0)" stroke-width="1" opacity="0.9450980392156862" d="M 23.5 217 L 22.5 219 L 23.5 217 Z " /><path fill="rgb(0,0,0)" stroke="rgb(0,0,0)" stroke-width="1" opacity="0.9450980392156862" d="M 20.5 221 L 19.5 223 L 20.5 221 Z " /><path fill="rgb(0,0,0)" stroke="rgb(0,0,0)" stroke-width="1" opacity="0.9450980392156862" d="M 491.5 221 L 492.5 223 L 491.5 221 Z " /><path fill="rgb(0,0,0)" stroke="rgb(0,0,0)" stroke-width="1" opacity="0.9450980392156862" d="M 452.5 223 L 453.5 225 L 452.5 223 Z " /><path fill="rgb(0,0,0)" stroke="rgb(0,0,0)" stroke-width="1" opacity="0.9450980392156862" d="M 57.5 225 L 56.5 227 L 57.5 225 Z " /><path fill="rgb(0,0,0)" stroke="rgb(0,0,0)" stroke-width="1" opacity="0.9450980392156862" d="M 458.5 230 L 459.5 232 L 458.5 230 Z " /><path fill="rgb(0,0,0)" stroke="rgb(0,0,0)" stroke-width="1" opacity="0.9450980392156862" d="M 52.5 231 L 51.5 233 L 52.5 231 Z " /><path fill="rgb(0,0,0)" stroke="rgb(0,0,0)" stroke-width="1" opacity="0.9450980392156862" d="M 462.5 235 L 463.5 237 L 462.5 235 Z " /><path fill="rgb(0,0,0)" stroke="rgb(0,0,0)" stroke-width="1" opacity="0.9450980392156862" d="M 48.5 236 L 47.5 238 L 48.5 236 Z " /><path fill="rgb(0,0,0)" stroke="rgb(0,0,0)" stroke-width="1" opacity="0.9450980392156862" d="M 45.5 240 L 44.5 242 L 45.5 240 Z " /><path fill="rgb(0,0,0)" stroke="rgb(0,0,0)" stroke-width="1" opacity="0.9450980392156862" d="M 466.5 240 L 467.5 242 L 466.5 240 Z " /><path fill="rgb(0,0,0)" stroke="rgb(0,0,0)" stroke-width="1" opacity="0.9450980392156862" d="M 42.5 244 L 41.5 246 L 42.5 244 Z " /><path fill="rgb(0,0,0)" stroke="rgb(0,0,0)" stroke-width="1" opacity="0.9450980392156862" d="M 160.5 250 L 161 254.5 L 160 254.5 L 160.5 250 Z " /><path fill="rgb(0,0,0)" stroke="rgb(0,0,0)" stroke-width="1" opacity="0.9450980392156862" d="M 351.5 251 L 352 254.5 L 351 254.5 L 351.5 251 Z " /><path fill="rgb(0,0,0)" stroke="rgb(0,0,0)" stroke-width="1" opacity="0.9450980392156862" d="M 0.5 254 L 1 257.5 L 0 257.5 L 0.5 254 Z " /><path fill="rgb(0,0,0)" stroke="rgb(0,0,0)" stroke-width="1" opacity="0.9450980392156862" d="M 35.5 254 L 34.5 256 L 35.5 254 Z " /><path fill="rgb(0,0,0)" stroke="rgb(0,0,0)" stroke-width="1" opacity="0.9450980392156862" d="M 511.5 254 L 512 257.5 L 511 257.5 L 511.5 254 Z " /><path fill="rgb(0,0,0)" stroke="rgb(0,0,0)" stroke-width="1" opacity="0.9450980392156862" d="M 351.5 257 L 352 261.5 L 351 261.5 L 351.5 257 Z " /><path fill="rgb(0,0,0)" stroke="rgb(0,0,0)" stroke-width="1" opacity="0.9450980392156862" d="M 160.5 258 L 161 261.5 L 160 261.5 L 160.5 258 Z " /><path fill="rgb(0,0,0)" stroke="rgb(0,0,0)" stroke-width="1" opacity="0.9450980392156862" d="M 470.5 266 L 469.5 268 L 470.5 266 Z " /><path fill="rgb(0,0,0)" stroke="rgb(0,0,0)" stroke-width="1" opacity="0.9450980392156862" d="M 467.5 270 L 466.5 272 L 467.5 270 Z " /><path fill="rgb(0,0,0)" stroke="rgb(0,0,0)" stroke-width="1" opacity="0.9450980392156862" d="M 464.5 274 L 463.5 276 L 464.5 274 Z " /><path fill="rgb(0,0,0)" stroke="rgb(0,0,0)" stroke-width="1" opacity="0.9450980392156862" d="M 48.5 275 L 49.5 277 L 48.5 275 Z " /><path fill="rgb(0,0,0)" stroke="rgb(0,0,0)" stroke-width="1" opacity="0.9450980392156862" d="M 460.5 279 L 459.5 281 L 460.5 279 Z " /><path fill="rgb(0,0,0)" stroke="rgb(0,0,0)" stroke-width="1" opacity="0.9450980392156862" d="M 52.5 280 L 53.5 282 L 52.5 280 Z " /><path fill="rgb(0,0,0)" stroke="rgb(0,0,0)" stroke-width="1" opacity="0.9450980392156862" d="M 455.5 285 L 454.5 287 L 455.5 285 Z " /><path fill="rgb(0,0,0)" stroke="rgb(0,0,0)" stroke-width="1" opacity="0.9450980392156862" d="M 57.5 286 L 60.5 290 L 57.5 286 Z " /><path fill="rgb(0,0,0)" stroke="rgb(0,0,0)" stroke-width="1" opacity="0.9450980392156862" d="M 492.5 289 L 491.5 291 L 492.5 289 Z " /><path fill="rgb(0,0,0)" stroke="rgb(0,0,0)" stroke-width="1" opacity="0.9450980392156862" d="M 448.5 293 L 444.5 298 L 448.5 293 Z " /><path fill="rgb(0,0,0)" stroke="rgb(0,0,0)" stroke-width="1" opacity="0.9450980392156862" d="M 489.5 293 L 488.5 295 L 489.5 293 Z " /><path fill="rgb(0,0,0)" stroke="rgb(0,0,0)" stroke-width="1" opacity="0.9450980392156862" d="M 306.5 295 L 305.5 297 L 306.5 295 Z " /><path fill="rgb(0,0,0)" stroke="rgb(0,0,0)" stroke-width="1" opacity="0.9450980392156862" d="M 67.5 297 L 78.5 309 L 67.5 297 Z " /><path fill="rgb(0,0,0)" stroke="rgb(0,0,0)" stroke-width="1" opacity="0.9450980392156862" d="M 485.5 298 L 484.5 300 L 485.5 298 Z " /><path fill="rgb(0,0,0)" stroke="rgb(0,0,0)" stroke-width="1" opacity="0.9450980392156862" d="M 27.5 299 L 28.5 301 L 27.5 299 Z " /><path fill="rgb(0,0,0)" stroke="rgb(0,0,0)" stroke-width="1" opacity="0.9450980392156862" d="M 481.5 303 L 479.5 306 L 481.5 303 Z " /><path fill="rgb(0,0,0)" stroke="rgb(0,0,0)" stroke-width="1" opacity="0.9450980392156862" d="M 31.5 304 L 33.5 307 L 31.5 304 Z " /><path fill="rgb(0,0,0)" stroke="rgb(0,0,0)" stroke-width="1" opacity="0.9450980392156862" d="M 296.5 305 L 295.5 307 L 296.5 305 Z " /><path fill="rgb(0,0,0)" stroke="rgb(0,0,0)" stroke-width="1" opacity="0.9450980392156862" d="M 475.5 310 L 473.5 313 L 475.5 310 Z " /><path fill="rgb(0,0,0)" stroke="rgb(0,0,0)" stroke-width="1" opacity="0.9450980392156862" d="M 37.5 311 L 40.5 315 L 37.5 311 Z " /><path fill="rgb(0,0,0)" stroke="rgb(0,0,0)" stroke-width="1" opacity="0.9450980392156862" d="M 430.5 311 L 426.5 316 L 430.5 311 Z " /><path fill="rgb(0,0,0)" stroke="rgb(0,0,0)" stroke-width="1" opacity="0.9450980392156862" d="M 177.5 312 L 138.5 352 L 177.5 312 Z " /><path fill="rgb(0,0,0)" stroke="rgb(0,0,0)" stroke-width="1" opacity="0.9450980392156862" d="M 87.5 316 L 90.5 320 L 87.5 316 Z " /><path fill="rgb(0,0,0)" stroke="rgb(0,0,0)" stroke-width="1" opacity="0.9450980392156862" d="M 327.5 319 L 319.5 328 L 327.5 319 Z " /><path fill="rgb(0,0,0)" stroke="rgb(0,0,0)" stroke-width="1" opacity="0.9450980392156862" d="M 419.5 321 L 418.5 323 L 419.5 321 Z " /><path fill="rgb(0,0,0)" stroke="rgb(0,0,0)" stroke-width="1" opacity="0.9450980392156862" d="M 465.5 321 L 452.5 335 L 465.5 321 Z " /><path fill="rgb(0,0,0)" stroke="rgb(0,0,0)" stroke-width="1" opacity="0.9450980392156862" d="M 94.5 322 L 96.5 325 L 94.5 322 Z " /><path fill="rgb(0,0,0)" stroke="rgb(0,0,0)" stroke-width="1" opacity="0.9450980392156862" d="M 100.5 327 L 101.5 329 L 100.5 327 Z " /><path fill="rgb(0,0,0)" stroke="rgb(0,0,0)" stroke-width="1" opacity="0.9450980392156862" d="M 104.5 330 L 105.5 332 L 104.5 330 Z " /><path fill="rgb(0,0,0)" stroke="rgb(0,0,0)" stroke-width="1" opacity="0.9450980392156862" d="M 65.5 339 L 68.5 343 L 65.5 339 Z " /><path fill="rgb(0,0,0)" stroke="rgb(0,0,0)" stroke-width="1" opacity="0.9450980392156862" d="M 394.5 340 L 393.5 342 L 394.5 340 Z " /><path fill="rgb(0,0,0)" stroke="rgb(0,0,0)" stroke-width="1" opacity="0.9450980392156862" d="M 444.5 341 L 442.5 344 L 444.5 341 Z " /><path fill="rgb(0,0,0)" stroke="rgb(0,0,0)" stroke-width="1" opacity="0.9450980392156862" d="M 73.5 346 L 74.5 348 L 73.5 346 Z " /><path fill="rgb(0,0,0)" stroke="rgb(0,0,0)" stroke-width="1" opacity="0.9450980392156862" d="M 437.5 347 L 435.5 350 L 437.5 347 Z " /><path fill="rgb(0,0,0)" stroke="rgb(0,0,0)" stroke-width="1" opacity="0.9450980392156862" d="M 79.5 351 L 80.5 353 L 79.5 351 Z " /><path fill="rgb(0,0,0)" stroke="rgb(0,0,0)" stroke-width="1" opacity="0.9450980392156862" d="M 251.5 351 L 255 351.5 L 251.5 352 L 251.5 351 Z " /><path fill="rgb(0,0,0)" stroke="rgb(0,0,0)" stroke-width="1" opacity="0.9450980392156862" d="M 257.5 351 L 262 351.5 L 257.5 352 L 257.5 351 Z " /><path fill="rgb(0,0,0)" stroke="rgb(0,0,0)" stroke-width="1" opacity="0.9450980392156862" d="M 431.5 352 L 430.5 354 L 431.5 352 Z " /><path fill="rgb(0,0,0)" stroke="rgb(0,0,0)" stroke-width="1" opacity="0.9450980392156862" d="M 95.5 363 L 96.5 365 L 95.5 363 Z " /><path fill="rgb(0,0,0)" stroke="rgb(0,0,0)" stroke-width="1" opacity="0.9450980392156862" d="M 113.5 375 L 114 376.5 L 67 422.5 L 113.5 375 Z " /><path fill="rgb(0,0,0)" stroke="rgb(0,0,0)" stroke-width="1" opacity="0.9450980392156862" d="M 247.5 415 L 254 415.5 L 247.5 416 L 247.5 415 Z " /><path fill="rgb(0,0,0)" stroke="rgb(0,0,0)" stroke-width="1" opacity="0.9450980392156862" d="M 258.5 415 L 266 415.5 L 258.5 416 L 258.5 415 Z " /><path fill="rgb(0,0,0)" stroke="rgb(0,0,0)" stroke-width="1" opacity="0.9450980392156862" d="M 64.5 430 L 65 433.5 L 64 433.5 L 64.5 430 Z " /><path fill="rgb(0,0,0)" stroke="rgb(0,0,0)" stroke-width="1" opacity="0.9450980392156862" d="M 67.5 441 L 70.5 445 L 67.5 441 Z " /><path fill="rgb(0,0,0)" stroke="rgb(0,0,0)" stroke-width="1" opacity="0.9450980392156862" d="M 78.5 447 L 82 447.5 L 78.5 448 L 78.5 447 Z " /><path fill="rgb(0,0,0)" stroke="rgb(0,0,0)" stroke-width="1" opacity="1" d="M 427.5 65 Q 442.3 63.3 446 72.5 L 447 84.5 L 446 87.5 L 87.5 446 L 75.5 447 Q 68.6 445.4 66 439.5 L 65 427.5 L 66 424.5 L 114 376.5 L 114 375 Q 72.3 351 41 315.5 Q 21.1 293.9 5 268.5 L 1 260.5 L 1 251.5 Q 27.5 205 66.5 171 Q 105.2 135.2 158.5 114 L 182.5 106 L 203.5 101 L 221.5 99 L 222.5 98 L 231.5 98 L 232.5 97 L 253.5 97 L 257.5 96 L 258.5 97 L 288.5 98 L 317.5 103 Q 345.7 109.8 369.5 121 L 424.5 66 L 427.5 65 Z M 236 128 L 235 129 L 226 129 L 199 134 L 176 141 L 152 151 Q 114 169 86 196 Q 56 222 34 256 Q 49 278 67 298 Q 97 329 136 352 L 139 352 L 178 313 L 167 292 L 163 280 L 161 270 L 161 259 L 160 258 L 162 237 L 167 221 Q 173 207 181 197 Q 196 177 221 167 L 237 162 L 255 161 L 256 160 L 280 163 Q 298 168 311 178 L 313 178 L 345 146 L 342 143 L 321 136 L 293 130 L 279 129 L 278 128 L 236 128 Z M 246 192 Q 225 196 213 208 Q 197 222 192 246 L 192 267 L 199 287 L 202 289 L 289 202 L 283 197 L 267 192 L 246 192 Z " /><path fill="rgb(0,0,0)" stroke="rgb(0,0,0)" stroke-width="1" opacity="1" d="M 425.5 155 Q 451.1 173.9 472 197.5 Q 491.3 218.7 507 243.5 L 511 251.5 L 511 260.5 Q 484.4 306.9 445.5 341 Q 406.6 376.6 353.5 398 L 329.5 406 L 308.5 411 L 289.5 413 L 288.5 414 L 280.5 414 L 279.5 415 L 258.5 415 L 254.5 416 L 253.5 415 L 233.5 415 L 232.5 414 L 216.5 413 L 199.5 410 L 177 403.5 L 203.5 378 L 208.5 380 L 213.5 380 L 226.5 383 L 234.5 383 L 235.5 384 L 276.5 384 L 277.5 383 L 285.5 383 L 286.5 382 L 304.5 380 L 327.5 374 L 366.5 358 Q 414.3 332.3 449 293.5 L 478 256.5 Q 457.2 224.3 429.5 199 L 403 177.5 L 425.5 155 Z " /><path fill="rgb(0,0,0)" stroke="rgb(0,0,0)" stroke-width="1" opacity="1" d="M 347.5 233 Q 350.5 232.1 349 236.5 L 351 243.5 L 351 254.5 L 352 256.5 L 351 257.5 L 351 269.5 L 345 291.5 Q 334.8 315.8 315.5 331 Q 305 339.5 291.5 345 L 269.5 351 L 257.5 351 L 255.5 352 L 254.5 351 L 243.5 351 L 233 349 L 233 347.5 L 260.5 320 Q 274.7 319.2 284.5 314 Q 298 307 307 295.5 L 317 277.5 L 320 260.5 L 347.5 233 Z " /><path fill="rgb(0,0,0)" stroke="rgb(0,0,0)" stroke-width="1" opacity="0" d="M 0 0 L 512 0 L 512 251.5 L 511 251.5 L 504 237.5 L 488 215.5 Q 469.6 192 447.5 172 L 425.5 154 L 402 177.5 L 403.5 179 Q 427.5 196 447 217.5 Q 463.8 235.2 477 256.5 Q 454.8 289.8 425.5 316 Q 390.6 348.6 342.5 368 L 325.5 374 L 295.5 381 L 281.5 382 L 280.5 383 L 268.5 383 L 267.5 384 L 244.5 384 L 243.5 383 L 232.5 383 L 231.5 382 L 224.5 382 L 206.5 378 L 201.5 378 L 176 403.5 L 177.5 405 L 196.5 410 L 218.5 414 L 225.5 414 L 226.5 415 L 237.5 415 L 238.5 416 L 274.5 416 L 275.5 415 L 286.5 415 L 287.5 414 L 306.5 412 L 338.5 404 Q 365 395.5 387.5 383 Q 436.8 355.3 473 314.5 L 500 280.5 L 509 266.5 L 511.5 260 L 512 512 L 0 512 L 0 260.5 L 1 260.5 L 3 266.5 L 10 277.5 L 24 296.5 Q 42.1 319.4 63.5 339 L 94.5 364 L 113 375 L 113 376.5 L 66 423.5 Q 62.5 427.5 64 436.5 L 71.5 446 Q 75.5 449.5 84.5 448 L 88.5 446 L 446 88.5 Q 449.1 84.1 448 75.5 L 440.5 66 Q 436.5 62.5 427.5 64 L 423.5 66 L 369.5 120 L 367.5 120 L 352.5 113 L 311.5 101 L 306.5 101 L 293.5 98 L 286.5 98 L 285.5 97 L 275.5 97 L 274.5 96 L 237.5 96 L 236.5 97 L 217.5 98 L 183.5 105 L 151.5 116 L 122.5 130 Q 74.5 157.5 39 197.5 L 12 231.5 L 3 245.5 L 0.5 252 L 0 0 Z M 349 231 L 319 261 Q 318 282 307 295 Q 293 316 261 319 L 231 349 L 246 352 L 267 352 L 286 348 Q 303 342 317 331 Q 331 320 340 304 L 348 286 L 352 267 L 352 246 L 349 231 Z " /><path fill="rgb(0,0,0)" stroke="rgb(0,0,0)" stroke-width="1" opacity="0" d="M 243.5 128 L 268.5 128 L 269.5 129 L 280.5 129 L 281.5 130 L 295.5 131 L 321.5 137 L 344 145.5 L 312.5 177 L 310.5 177 Q 298.4 167.6 281.5 163 L 266.5 160 L 245.5 160 L 226.5 164 L 208.5 172 Q 192.4 181.4 181 195.5 Q 170.1 208.6 164 226.5 L 160 245.5 L 160 266.5 L 166 290.5 L 177 312.5 L 137.5 352 L 136.5 351 Q 96.4 329.1 67 296.5 Q 48.9 278.1 35 255.5 Q 57.2 222.2 86.5 196 Q 117.1 167.6 157.5 149 L 177.5 141 L 201.5 134 L 216.5 131 L 230.5 130 L 231.5 129 L 242.5 129 L 243.5 128 Z " /><path fill="rgb(0,0,0)" stroke="rgb(0,0,0)" stroke-width="1" opacity="0" d="M 249.5 192 L 268.5 193 Q 280.2 195.3 288 201.5 L 201.5 288 L 200 286.5 L 193 268.5 L 192 249.5 L 194 239.5 L 199 226.5 Q 204.8 215.8 213.5 208 L 230.5 197 L 249.5 192 Z " /><path fill="rgb(0,0,0)" stroke="rgb(0,0,0)" stroke-width="1" opacity="0.6705882352941176" d="M 427.5 64 L 430 64.5 L 427.5 65 L 427.5 64 Z " /><path fill="rgb(0,0,0)" stroke="rgb(0,0,0)" stroke-width="1" opacity="0.6705882352941176" d="M 434.5 64 L 437 64.5 L 434.5 65 L 434.5 64 Z " /><path fill="rgb(0,0,0)" stroke="rgb(0,0,0)" stroke-width="1" opacity="0.6705882352941176" d="M 447.5 75 L 448 77.5 L 447 77.5 L 447.5 75 Z " /><path fill="rgb(0,0,0)" stroke="rgb(0,0,0)" stroke-width="1" opacity="0.6705882352941176" d="M 237.5 96 L 246 96.5 L 237.5 97 L 237.5 96 Z " /><path fill="rgb(0,0,0)" stroke="rgb(0,0,0)" stroke-width="1" opacity="0.6705882352941176" d="M 266.5 96 L 275 96.5 L 266.5 97 L 266.5 96 Z " /><path fill="rgb(0,0,0)" stroke="rgb(0,0,0)" stroke-width="1" opacity="0.6705882352941176" d="M 225.5 97 L 230 97.5 L 225.5 98 L 225.5 97 Z " /><path fill="rgb(0,0,0)" stroke="rgb(0,0,0)" stroke-width="1" opacity="0.6705882352941176" d="M 282.5 97 L 286 97.5 L 282.5 98 L 282.5 97 Z " /><path fill="rgb(0,0,0)" stroke="rgb(0,0,0)" stroke-width="1" opacity="0.6705882352941176" d="M 217.5 98 L 221 98.5 L 217.5 99 L 217.5 98 Z " /><path fill="rgb(0,0,0)" stroke="rgb(0,0,0)" stroke-width="1" opacity="0.6705882352941176" d="M 291.5 98 L 294 98.5 L 291.5 99 L 291.5 98 Z " /><path fill="rgb(0,0,0)" stroke="rgb(0,0,0)" stroke-width="1" opacity="0.6705882352941176" d="M 211.5 99 L 214 99.5 L 211.5 100 L 211.5 99 Z " /><path fill="rgb(0,0,0)" stroke="rgb(0,0,0)" stroke-width="1" opacity="0.6705882352941176" d="M 298.5 99 L 301 99.5 L 298.5 100 L 298.5 99 Z " /><path fill="rgb(0,0,0)" stroke="rgb(0,0,0)" stroke-width="1" opacity="0.6705882352941176" d="M 205.5 100 L 208 100.5 L 205.5 101 L 205.5 100 Z " /><path fill="rgb(0,0,0)" stroke="rgb(0,0,0)" stroke-width="1" opacity="0.6705882352941176" d="M 309.5 101 L 312 101.5 L 309.5 102 L 309.5 101 Z " /><path fill="rgb(0,0,0)" stroke="rgb(0,0,0)" stroke-width="1" opacity="0.6705882352941176" d="M 195.5 102 L 198 102.5 L 195.5 103 L 195.5 102 Z " /><path fill="rgb(0,0,0)" stroke="rgb(0,0,0)" stroke-width="1" opacity="0.6705882352941176" d="M 237.5 128 L 243 128.5 L 237.5 129 L 237.5 128 Z " /><path fill="rgb(0,0,0)" stroke="rgb(0,0,0)" stroke-width="1" opacity="0.6705882352941176" d="M 269.5 128 L 276 128.5 L 269.5 129 L 269.5 128 Z " /><path fill="rgb(0,0,0)" stroke="rgb(0,0,0)" stroke-width="1" opacity="0.6705882352941176" d="M 227.5 129 L 231 129.5 L 227.5 130 L 227.5 129 Z " /><path fill="rgb(0,0,0)" stroke="rgb(0,0,0)" stroke-width="1" opacity="0.6705882352941176" d="M 281.5 129 L 285 129.5 L 281.5 130 L 281.5 129 Z " /><path fill="rgb(0,0,0)" stroke="rgb(0,0,0)" stroke-width="1" opacity="0.6705882352941176" d="M 122.5 130 L 121.5 132 L 122.5 130 Z " /><path fill="rgb(0,0,0)" stroke="rgb(0,0,0)" stroke-width="1" opacity="0.6705882352941176" d="M 219.5 130 L 223 130.5 L 219.5 131 L 219.5 130 Z " /><path fill="rgb(0,0,0)" stroke="rgb(0,0,0)" stroke-width="1" opacity="0.6705882352941176" d="M 289.5 130 L 292 130.5 L 289.5 131 L 289.5 130 Z " /><path fill="rgb(0,0,0)" stroke="rgb(0,0,0)" stroke-width="1" opacity="0.6705882352941176" d="M 301.5 132 L 304 132.5 L 301.5 133 L 301.5 132 Z " /><path fill="rgb(0,0,0)" stroke="rgb(0,0,0)" stroke-width="1" opacity="0.6705882352941176" d="M 101.5 143 L 100.5 145 L 101.5 143 Z " /><path fill="rgb(0,0,0)" stroke="rgb(0,0,0)" stroke-width="1" opacity="0.6705882352941176" d="M 98.5 145 L 97.5 147 L 98.5 145 Z " /><path fill="rgb(0,0,0)" stroke="rgb(0,0,0)" stroke-width="1" opacity="0.6705882352941176" d="M 95.5 147 L 94.5 149 L 95.5 147 Z " /><path fill="rgb(0,0,0)" stroke="rgb(0,0,0)" stroke-width="1" opacity="0.6705882352941176" d="M 91.5 150 L 90.5 152 L 91.5 150 Z " /><path fill="rgb(0,0,0)" stroke="rgb(0,0,0)" stroke-width="1" opacity="0.6705882352941176" d="M 87.5 153 L 86.5 155 L 87.5 153 Z " /><path fill="rgb(0,0,0)" stroke="rgb(0,0,0)" stroke-width="1" opacity="0.6705882352941176" d="M 425.5 154 L 403 177.5 L 403.5 179 L 402 177.5 L 425.5 154 Z " /><path fill="rgb(0,0,0)" stroke="rgb(0,0,0)" stroke-width="1" opacity="0.6705882352941176" d="M 83.5 156 L 82.5 158 L 83.5 156 Z " /><path fill="rgb(0,0,0)" stroke="rgb(0,0,0)" stroke-width="1" opacity="0.6705882352941176" d="M 429.5 157 L 430.5 159 L 429.5 157 Z " /><path fill="rgb(0,0,0)" stroke="rgb(0,0,0)" stroke-width="1" opacity="0.6705882352941176" d="M 78.5 160 L 77.5 162 L 78.5 160 Z " /><path fill="rgb(0,0,0)" stroke="rgb(0,0,0)" stroke-width="1" opacity="0.6705882352941176" d="M 245.5 160 L 250 160.5 L 245.5 161 L 245.5 160 Z " /><path fill="rgb(0,0,0)" stroke="rgb(0,0,0)" stroke-width="1" opacity="0.6705882352941176" d="M 262.5 160 L 267 160.5 L 262.5 161 L 262.5 160 Z " /><path fill="rgb(0,0,0)" stroke="rgb(0,0,0)" stroke-width="1" opacity="0.6705882352941176" d="M 433.5 160 L 435.5 163 L 433.5 160 Z " /><path fill="rgb(0,0,0)" stroke="rgb(0,0,0)" stroke-width="1" opacity="0.6705882352941176" d="M 238.5 161 L 241 161.5 L 238.5 162 L 238.5 161 Z " /><path fill="rgb(0,0,0)" stroke="rgb(0,0,0)" stroke-width="1" opacity="0.6705882352941176" d="M 73.5 164 L 70.5 168 L 73.5 164 Z " /><path fill="rgb(0,0,0)" stroke="rgb(0,0,0)" stroke-width="1" opacity="0.6705882352941176" d="M 439.5 165 L 442.5 169 L 439.5 165 Z " /><path fill="rgb(0,0,0)" stroke="rgb(0,0,0)" stroke-width="1" opacity="0.6705882352941176" d="M 120.5 169 L 119.5 171 L 120.5 169 Z " /><path fill="rgb(0,0,0)" stroke="rgb(0,0,0)" stroke-width="1" opacity="0.6705882352941176" d="M 65.5 171 L 60.5 177 L 65.5 171 Z " /><path fill="rgb(0,0,0)" stroke="rgb(0,0,0)" stroke-width="1" opacity="0.6705882352941176" d="M 117.5 171 L 116.5 173 L 117.5 171 Z " /><path fill="rgb(0,0,0)" stroke="rgb(0,0,0)" stroke-width="1" opacity="0.6705882352941176" d="M 301.5 171 L 302.5 173 L 301.5 171 Z " /><path fill="rgb(0,0,0)" stroke="rgb(0,0,0)" stroke-width="1" opacity="0.6705882352941176" d="M 208.5 172 L 207.5 174 L 208.5 172 Z " /><path fill="rgb(0,0,0)" stroke="rgb(0,0,0)" stroke-width="1" opacity="0.6705882352941176" d="M 447.5 172 L 454.5 180 L 447.5 172 Z " /><path fill="rgb(0,0,0)" stroke="rgb(0,0,0)" stroke-width="1" opacity="0.6705882352941176" d="M 306.5 174 L 307.5 176 L 306.5 174 Z " /><path fill="rgb(0,0,0)" stroke="rgb(0,0,0)" stroke-width="1" opacity="0.6705882352941176" d="M 110.5 176 L 109.5 178 L 110.5 176 Z " /><path fill="rgb(0,0,0)" stroke="rgb(0,0,0)" stroke-width="1" opacity="0.6705882352941176" d="M 106.5 179 L 105.5 181 L 106.5 179 Z " /><path fill="rgb(0,0,0)" stroke="rgb(0,0,0)" stroke-width="1" opacity="0.6705882352941176" d="M 406.5 180 L 407.5 182 L 406.5 180 Z " /><path fill="rgb(0,0,0)" stroke="rgb(0,0,0)" stroke-width="1" opacity="0.6705882352941176" d="M 195.5 181 L 193.5 184 L 195.5 181 Z " /><path fill="rgb(0,0,0)" stroke="rgb(0,0,0)" stroke-width="1" opacity="0.6705882352941176" d="M 102.5 182 L 100.5 185 L 102.5 182 Z " /><path fill="rgb(0,0,0)" stroke="rgb(0,0,0)" stroke-width="1" opacity="0.6705882352941176" d="M 411.5 184 L 413.5 187 L 411.5 184 Z " /><path fill="rgb(0,0,0)" stroke="rgb(0,0,0)" stroke-width="1" opacity="0.6705882352941176" d="M 97.5 186 L 95.5 189 L 97.5 186 Z " /><path fill="rgb(0,0,0)" stroke="rgb(0,0,0)" stroke-width="1" opacity="0.6705882352941176" d="M 416.5 188 L 419.5 192 L 416.5 188 Z " /><path fill="rgb(0,0,0)" stroke="rgb(0,0,0)" stroke-width="1" opacity="0.6705882352941176" d="M 464.5 189 L 471.5 197 L 464.5 189 Z " /><path fill="rgb(0,0,0)" stroke="rgb(0,0,0)" stroke-width="1" opacity="0.6705882352941176" d="M 91.5 191 L 87.5 196 L 91.5 191 Z " /><path fill="rgb(0,0,0)" stroke="rgb(0,0,0)" stroke-width="1" opacity="0.6705882352941176" d="M 44.5 192 L 39.5 198 L 44.5 192 Z " /><path fill="rgb(0,0,0)" stroke="rgb(0,0,0)" stroke-width="1" opacity="0.6705882352941176" d="M 246.5 192 L 249 192.5 L 246.5 193 L 246.5 192 Z " /><path fill="rgb(0,0,0)" stroke="rgb(0,0,0)" stroke-width="1" opacity="0.6705882352941176" d="M 262.5 192 L 266 192.5 L 262.5 193 L 262.5 192 Z " /><path fill="rgb(0,0,0)" stroke="rgb(0,0,0)" stroke-width="1" opacity="0.6705882352941176" d="M 183.5 193 L 181.5 196 L 183.5 193 Z " /><path fill="rgb(0,0,0)" stroke="rgb(0,0,0)" stroke-width="1" opacity="0.6705882352941176" d="M 423.5 194 L 427.5 199 L 423.5 194 Z " /><path fill="rgb(0,0,0)" stroke="rgb(0,0,0)" stroke-width="1" opacity="0.6705882352941176" d="M 225.5 199 L 224.5 201 L 225.5 199 Z " /><path fill="rgb(0,0,0)" stroke="rgb(0,0,0)" stroke-width="1" opacity="0.6705882352941176" d="M 81.5 200 L 67.5 215 L 81.5 200 Z " /><path fill="rgb(0,0,0)" stroke="rgb(0,0,0)" stroke-width="1" opacity="0.6705882352941176" d="M 35.5 202 L 32.5 206 L 35.5 202 Z " /><path fill="rgb(0,0,0)" stroke="rgb(0,0,0)" stroke-width="1" opacity="0.6705882352941176" d="M 220.5 202 L 219.5 204 L 220.5 202 Z " /><path fill="rgb(0,0,0)" stroke="rgb(0,0,0)" stroke-width="1" opacity="0.6705882352941176" d="M 476.5 202 L 478.5 205 L 476.5 202 Z " /><path fill="rgb(0,0,0)" stroke="rgb(0,0,0)" stroke-width="1" opacity="0.6705882352941176" d="M 216.5 205 L 214.5 208 L 216.5 205 Z " /><path fill="rgb(0,0,0)" stroke="rgb(0,0,0)" stroke-width="1" opacity="0.6705882352941176" d="M 173.5 207 L 172.5 209 L 173.5 207 Z " /><path fill="rgb(0,0,0)" stroke="rgb(0,0,0)" stroke-width="1" opacity="0.6705882352941176" d="M 481.5 208 L 483.5 211 L 481.5 208 Z " /><path fill="rgb(0,0,0)" stroke="rgb(0,0,0)" stroke-width="1" opacity="0.6705882352941176" d="M 29.5 209 L 27.5 212 L 29.5 209 Z " /><path fill="rgb(0,0,0)" stroke="rgb(0,0,0)" stroke-width="1" opacity="0.6705882352941176" d="M 25.5 214 L 23.5 217 L 25.5 214 Z " /><path fill="rgb(0,0,0)" stroke="rgb(0,0,0)" stroke-width="1" opacity="0.6705882352941176" d="M 207.5 214 L 205.5 217 L 207.5 214 Z " /><path fill="rgb(0,0,0)" stroke="rgb(0,0,0)" stroke-width="1" opacity="0.6705882352941176" d="M 486.5 214 L 487.5 216 L 486.5 214 Z " /><path fill="rgb(0,0,0)" stroke="rgb(0,0,0)" stroke-width="1" opacity="0.6705882352941176" d="M 447.5 218 L 451.5 223 L 447.5 218 Z " /><path fill="rgb(0,0,0)" stroke="rgb(0,0,0)" stroke-width="1" opacity="0.6705882352941176" d="M 489.5 218 L 490.5 220 L 489.5 218 Z " /><path fill="rgb(0,0,0)" stroke="rgb(0,0,0)" stroke-width="1" opacity="0.6705882352941176" d="M 21.5 219 L 20.5 221 L 21.5 219 Z " /><path fill="rgb(0,0,0)" stroke="rgb(0,0,0)" stroke-width="1" opacity="0.6705882352941176" d="M 203.5 219 L 202.5 221 L 203.5 219 Z " /><path fill="rgb(0,0,0)" stroke="rgb(0,0,0)" stroke-width="1" opacity="0.6705882352941176" d="M 62.5 220 L 58.5 225 L 62.5 220 Z " /><path fill="rgb(0,0,0)" stroke="rgb(0,0,0)" stroke-width="1" opacity="0.6705882352941176" d="M 200.5 224 L 199.5 226 L 200.5 224 Z " /><path fill="rgb(0,0,0)" stroke="rgb(0,0,0)" stroke-width="1" opacity="0.6705882352941176" d="M 16.5 226 L 15.5 228 L 16.5 226 Z " /><path fill="rgb(0,0,0)" stroke="rgb(0,0,0)" stroke-width="1" opacity="0.6705882352941176" d="M 454.5 226 L 457.5 230 L 454.5 226 Z " /><path fill="rgb(0,0,0)" stroke="rgb(0,0,0)" stroke-width="1" opacity="0.6705882352941176" d="M 495.5 226 L 496.5 228 L 495.5 226 Z " /><path fill="rgb(0,0,0)" stroke="rgb(0,0,0)" stroke-width="1" opacity="0.6705882352941176" d="M 55.5 228 L 53.5 231 L 55.5 228 Z " /><path fill="rgb(0,0,0)" stroke="rgb(0,0,0)" stroke-width="1" opacity="0.6705882352941176" d="M 13.5 230 L 12.5 232 L 13.5 230 Z " /><path fill="rgb(0,0,0)" stroke="rgb(0,0,0)" stroke-width="1" opacity="0.6705882352941176" d="M 348.5 231 L 320 260.5 L 319.5 264 L 319 260.5 L 348.5 231 Z " /><path fill="rgb(0,0,0)" stroke="rgb(0,0,0)" stroke-width="1" opacity="0.6705882352941176" d="M 11.5 233 L 10.5 235 L 11.5 233 Z " /><path fill="rgb(0,0,0)" stroke="rgb(0,0,0)" stroke-width="1" opacity="0.6705882352941176" d="M 460.5 233 L 461.5 235 L 460.5 233 Z " /><path fill="rgb(0,0,0)" stroke="rgb(0,0,0)" stroke-width="1" opacity="0.6705882352941176" d="M 50.5 234 L 49.5 236 L 50.5 234 Z " /><path fill="rgb(0,0,0)" stroke="rgb(0,0,0)" stroke-width="1" opacity="0.6705882352941176" d="M 9.5 236 L 8.5 238 L 9.5 236 Z " /><path fill="rgb(0,0,0)" stroke="rgb(0,0,0)" stroke-width="1" opacity="0.6705882352941176" d="M 502.5 236 L 503.5 238 L 502.5 236 Z " /><path fill="rgb(0,0,0)" stroke="rgb(0,0,0)" stroke-width="1" opacity="0.6705882352941176" d="M 47.5 238 L 46.5 240 L 47.5 238 Z " /><path fill="rgb(0,0,0)" stroke="rgb(0,0,0)" stroke-width="1" opacity="0.6705882352941176" d="M 161.5 238 L 162 240.5 L 161 240.5 L 161.5 238 Z " /><path fill="rgb(0,0,0)" stroke="rgb(0,0,0)" stroke-width="1" opacity="0.6705882352941176" d="M 464.5 238 L 465.5 240 L 464.5 238 Z " /><path fill="rgb(0,0,0)" stroke="rgb(0,0,0)" stroke-width="1" opacity="0.6705882352941176" d="M 350.5 239 L 351 241.5 L 350 241.5 L 350.5 239 Z " /><path fill="rgb(0,0,0)" stroke="rgb(0,0,0)" stroke-width="1" opacity="0.6705882352941176" d="M 467.5 242 L 468.5 244 L 467.5 242 Z " /><path fill="rgb(0,0,0)" stroke="rgb(0,0,0)" stroke-width="1" opacity="0.6705882352941176" d="M 4.5 244 L 3.5 246 L 4.5 244 Z " /><path fill="rgb(0,0,0)" stroke="rgb(0,0,0)" stroke-width="1" opacity="0.6705882352941176" d="M 507.5 244 L 508.5 246 L 507.5 244 Z " /><path fill="rgb(0,0,0)" stroke="rgb(0,0,0)" stroke-width="1" opacity="0.6705882352941176" d="M 160.5 245 L 161 249.5 L 160 249.5 L 160.5 245 Z " /><path fill="rgb(0,0,0)" stroke="rgb(0,0,0)" stroke-width="1" opacity="0.6705882352941176" d="M 351.5 245 L 352 250.5 L 351 250.5 L 351.5 245 Z " /><path fill="rgb(0,0,0)" stroke="rgb(0,0,0)" stroke-width="1" opacity="0.6705882352941176" d="M 41.5 246 L 40.5 248 L 41.5 246 Z " /><path fill="rgb(0,0,0)" stroke="rgb(0,0,0)" stroke-width="1" opacity="0.6705882352941176" d="M 192.5 246 L 193 248.5 L 192 248.5 L 192.5 246 Z " /><path fill="rgb(0,0,0)" stroke="rgb(0,0,0)" stroke-width="1" opacity="0.6705882352941176" d="M 470.5 246 L 471.5 248 L 470.5 246 Z " /><path fill="rgb(0,0,0)" stroke="rgb(0,0,0)" stroke-width="1" opacity="0.6705882352941176" d="M 476.5 257 L 475.5 259 L 476.5 257 Z " /><path fill="rgb(0,0,0)" stroke="rgb(0,0,0)" stroke-width="1" opacity="0.6705882352941176" d="M 160.5 262 L 161 266.5 L 160 266.5 L 160.5 262 Z " /><path fill="rgb(0,0,0)" stroke="rgb(0,0,0)" stroke-width="1" opacity="0.6705882352941176" d="M 192.5 262 L 193 265.5 L 192 265.5 L 192.5 262 Z " /><path fill="rgb(0,0,0)" stroke="rgb(0,0,0)" stroke-width="1" opacity="0.6705882352941176" d="M 351.5 262 L 352 266.5 L 351 266.5 L 351.5 262 Z " /><path fill="rgb(0,0,0)" stroke="rgb(0,0,0)" stroke-width="1" opacity="0.6705882352941176" d="M 40.5 264 L 41.5 266 L 40.5 264 Z " /><path fill="rgb(0,0,0)" stroke="rgb(0,0,0)" stroke-width="1" opacity="0.6705882352941176" d="M 471.5 264 L 470.5 266 L 471.5 264 Z " /><path fill="rgb(0,0,0)" stroke="rgb(0,0,0)" stroke-width="1" opacity="0.6705882352941176" d="M 3.5 266 L 4.5 268 L 3.5 266 Z " /><path fill="rgb(0,0,0)" stroke="rgb(0,0,0)" stroke-width="1" opacity="0.6705882352941176" d="M 508.5 266 L 507.5 268 L 508.5 266 Z " /><path fill="rgb(0,0,0)" stroke="rgb(0,0,0)" stroke-width="1" opacity="0.6705882352941176" d="M 43.5 268 L 44.5 270 L 43.5 268 Z " /><path fill="rgb(0,0,0)" stroke="rgb(0,0,0)" stroke-width="1" opacity="0.6705882352941176" d="M 350.5 271 L 351 273.5 L 350 273.5 L 350.5 271 Z " /><path fill="rgb(0,0,0)" stroke="rgb(0,0,0)" stroke-width="1" opacity="0.6705882352941176" d="M 46.5 272 L 47.5 274 L 46.5 272 Z " /><path fill="rgb(0,0,0)" stroke="rgb(0,0,0)" stroke-width="1" opacity="0.6705882352941176" d="M 465.5 272 L 464.5 274 L 465.5 272 Z " /><path fill="rgb(0,0,0)" stroke="rgb(0,0,0)" stroke-width="1" opacity="0.6705882352941176" d="M 503.5 274 L 502.5 276 L 503.5 274 Z " /><path fill="rgb(0,0,0)" stroke="rgb(0,0,0)" stroke-width="1" opacity="0.6705882352941176" d="M 462.5 276 L 461.5 278 L 462.5 276 Z " /><path fill="rgb(0,0,0)" stroke="rgb(0,0,0)" stroke-width="1" opacity="0.6705882352941176" d="M 10.5 277 L 11.5 279 L 10.5 277 Z " /><path fill="rgb(0,0,0)" stroke="rgb(0,0,0)" stroke-width="1" opacity="0.6705882352941176" d="M 50.5 277 L 51.5 279 L 50.5 277 Z " /><path fill="rgb(0,0,0)" stroke="rgb(0,0,0)" stroke-width="1" opacity="0.6705882352941176" d="M 501.5 277 L 500.5 279 L 501.5 277 Z " /><path fill="rgb(0,0,0)" stroke="rgb(0,0,0)" stroke-width="1" opacity="0.6705882352941176" d="M 499.5 280 L 498.5 282 L 499.5 280 Z " /><path fill="rgb(0,0,0)" stroke="rgb(0,0,0)" stroke-width="1" opacity="0.6705882352941176" d="M 458.5 281 L 456.5 284 L 458.5 281 Z " /><path fill="rgb(0,0,0)" stroke="rgb(0,0,0)" stroke-width="1" opacity="0.6705882352941176" d="M 54.5 282 L 57.5 286 L 54.5 282 Z " /><path fill="rgb(0,0,0)" stroke="rgb(0,0,0)" stroke-width="1" opacity="0.6705882352941176" d="M 15.5 284 L 16.5 286 L 15.5 284 Z " /><path fill="rgb(0,0,0)" stroke="rgb(0,0,0)" stroke-width="1" opacity="0.6705882352941176" d="M 496.5 284 L 495.5 286 L 496.5 284 Z " /><path fill="rgb(0,0,0)" stroke="rgb(0,0,0)" stroke-width="1" opacity="0.6705882352941176" d="M 453.5 287 L 449.5 292 L 453.5 287 Z " /><path fill="rgb(0,0,0)" stroke="rgb(0,0,0)" stroke-width="1" opacity="0.6705882352941176" d="M 18.5 288 L 19.5 290 L 18.5 288 Z " /><path fill="rgb(0,0,0)" stroke="rgb(0,0,0)" stroke-width="1" opacity="0.6705882352941176" d="M 61.5 290 L 66.5 296 L 61.5 290 Z " /><path fill="rgb(0,0,0)" stroke="rgb(0,0,0)" stroke-width="1" opacity="0.6705882352941176" d="M 491.5 291 L 490.5 293 L 491.5 291 Z " /><path fill="rgb(0,0,0)" stroke="rgb(0,0,0)" stroke-width="1" opacity="0.6705882352941176" d="M 21.5 292 L 22.5 294 L 21.5 292 Z " /><path fill="rgb(0,0,0)" stroke="rgb(0,0,0)" stroke-width="1" opacity="0.6705882352941176" d="M 308.5 292 L 307.5 294 L 308.5 292 Z " /><path fill="rgb(0,0,0)" stroke="rgb(0,0,0)" stroke-width="1" opacity="0.6705882352941176" d="M 24.5 296 L 26.5 299 L 24.5 296 Z " /><path fill="rgb(0,0,0)" stroke="rgb(0,0,0)" stroke-width="1" opacity="0.6705882352941176" d="M 487.5 296 L 486.5 298 L 487.5 296 Z " /><path fill="rgb(0,0,0)" stroke="rgb(0,0,0)" stroke-width="1" opacity="0.6705882352941176" d="M 304.5 297 L 297.5 305 L 304.5 297 Z " /><path fill="rgb(0,0,0)" stroke="rgb(0,0,0)" stroke-width="1" opacity="0.6705882352941176" d="M 443.5 298 L 431.5 311 L 443.5 298 Z " /><path fill="rgb(0,0,0)" stroke="rgb(0,0,0)" stroke-width="1" opacity="0.6705882352941176" d="M 484.5 300 L 482.5 303 L 484.5 300 Z " /><path fill="rgb(0,0,0)" stroke="rgb(0,0,0)" stroke-width="1" opacity="0.6705882352941176" d="M 28.5 301 L 30.5 304 L 28.5 301 Z " /><path fill="rgb(0,0,0)" stroke="rgb(0,0,0)" stroke-width="1" opacity="0.6705882352941176" d="M 171.5 301 L 172.5 303 L 171.5 301 Z " /><path fill="rgb(0,0,0)" stroke="rgb(0,0,0)" stroke-width="1" opacity="0.6705882352941176" d="M 339.5 303 L 338.5 305 L 339.5 303 Z " /><path fill="rgb(0,0,0)" stroke="rgb(0,0,0)" stroke-width="1" opacity="0.6705882352941176" d="M 174.5 306 L 175.5 308 L 174.5 306 Z " /><path fill="rgb(0,0,0)" stroke="rgb(0,0,0)" stroke-width="1" opacity="0.6705882352941176" d="M 479.5 306 L 476.5 310 L 479.5 306 Z " /><path fill="rgb(0,0,0)" stroke="rgb(0,0,0)" stroke-width="1" opacity="0.6705882352941176" d="M 33.5 307 L 36.5 311 L 33.5 307 Z " /><path fill="rgb(0,0,0)" stroke="rgb(0,0,0)" stroke-width="1" opacity="0.6705882352941176" d="M 293.5 307 L 292.5 309 L 293.5 307 Z " /><path fill="rgb(0,0,0)" stroke="rgb(0,0,0)" stroke-width="1" opacity="0.6705882352941176" d="M 176.5 309 L 178 311.5 L 177 311.5 L 176.5 309 Z " /><path fill="rgb(0,0,0)" stroke="rgb(0,0,0)" stroke-width="1" opacity="0.6705882352941176" d="M 81.5 310 L 86.5 316 L 81.5 310 Z " /><path fill="rgb(0,0,0)" stroke="rgb(0,0,0)" stroke-width="1" opacity="0.6705882352941176" d="M 333.5 312 L 332.5 314 L 333.5 312 Z " /><path fill="rgb(0,0,0)" stroke="rgb(0,0,0)" stroke-width="1" opacity="0.6705882352941176" d="M 472.5 314 L 466.5 321 L 472.5 314 Z " /><path fill="rgb(0,0,0)" stroke="rgb(0,0,0)" stroke-width="1" opacity="0.6705882352941176" d="M 41.5 316 L 63.5 339 L 41.5 316 Z " /><path fill="rgb(0,0,0)" stroke="rgb(0,0,0)" stroke-width="1" opacity="0.6705882352941176" d="M 330.5 316 L 328.5 319 L 330.5 316 Z " /><path fill="rgb(0,0,0)" stroke="rgb(0,0,0)" stroke-width="1" opacity="0.6705882352941176" d="M 424.5 316 L 420.5 321 L 424.5 316 Z " /><path fill="rgb(0,0,0)" stroke="rgb(0,0,0)" stroke-width="1" opacity="0.6705882352941176" d="M 91.5 319 L 93.5 322 L 91.5 319 Z " /><path fill="rgb(0,0,0)" stroke="rgb(0,0,0)" stroke-width="1" opacity="0.6705882352941176" d="M 260.5 319 L 263 319.5 L 260.5 320 L 231.5 349 L 260.5 319 Z " /><path fill="rgb(0,0,0)" stroke="rgb(0,0,0)" stroke-width="1" opacity="0.6705882352941176" d="M 416.5 323 L 414.5 326 L 416.5 323 Z " /><path fill="rgb(0,0,0)" stroke="rgb(0,0,0)" stroke-width="1" opacity="0.6705882352941176" d="M 97.5 324 L 99.5 327 L 97.5 324 Z " /><path fill="rgb(0,0,0)" stroke="rgb(0,0,0)" stroke-width="1" opacity="0.6705882352941176" d="M 411.5 327 L 409.5 330 L 411.5 327 Z " /><path fill="rgb(0,0,0)" stroke="rgb(0,0,0)" stroke-width="1" opacity="0.6705882352941176" d="M 102.5 328 L 103.5 330 L 102.5 328 Z " /><path fill="rgb(0,0,0)" stroke="rgb(0,0,0)" stroke-width="1" opacity="0.6705882352941176" d="M 318.5 328 L 316.5 331 L 318.5 328 Z " /><path fill="rgb(0,0,0)" stroke="rgb(0,0,0)" stroke-width="1" opacity="0.6705882352941176" d="M 406.5 331 L 405.5 333 L 406.5 331 Z " /><path fill="rgb(0,0,0)" stroke="rgb(0,0,0)" stroke-width="1" opacity="0.6705882352941176" d="M 107.5 332 L 108.5 334 L 107.5 332 Z " /><path fill="rgb(0,0,0)" stroke="rgb(0,0,0)" stroke-width="1" opacity="0.6705882352941176" d="M 313.5 332 L 312.5 334 L 313.5 332 Z " /><path fill="rgb(0,0,0)" stroke="rgb(0,0,0)" stroke-width="1" opacity="0.6705882352941176" d="M 110.5 334 L 111.5 336 L 110.5 334 Z " /><path fill="rgb(0,0,0)" stroke="rgb(0,0,0)" stroke-width="1" opacity="0.6705882352941176" d="M 402.5 334 L 401.5 336 L 402.5 334 Z " /><path fill="rgb(0,0,0)" stroke="rgb(0,0,0)" stroke-width="1" opacity="0.6705882352941176" d="M 451.5 335 L 446.5 341 L 451.5 335 Z " /><path fill="rgb(0,0,0)" stroke="rgb(0,0,0)" stroke-width="1" opacity="0.6705882352941176" d="M 114.5 337 L 115.5 339 L 114.5 337 Z " /><path fill="rgb(0,0,0)" stroke="rgb(0,0,0)" stroke-width="1" opacity="0.6705882352941176" d="M 304.5 338 L 303.5 340 L 304.5 338 Z " /><path fill="rgb(0,0,0)" stroke="rgb(0,0,0)" stroke-width="1" opacity="0.6705882352941176" d="M 117.5 339 L 118.5 341 L 117.5 339 Z " /><path fill="rgb(0,0,0)" stroke="rgb(0,0,0)" stroke-width="1" opacity="0.6705882352941176" d="M 120.5 341 L 121.5 343 L 120.5 341 Z " /><path fill="rgb(0,0,0)" stroke="rgb(0,0,0)" stroke-width="1" opacity="0.6705882352941176" d="M 392.5 341 L 391.5 343 L 392.5 341 Z " /><path fill="rgb(0,0,0)" stroke="rgb(0,0,0)" stroke-width="1" opacity="0.6705882352941176" d="M 69.5 343 L 71.5 346 L 69.5 343 Z " /><path fill="rgb(0,0,0)" stroke="rgb(0,0,0)" stroke-width="1" opacity="0.6705882352941176" d="M 123.5 343 L 124.5 345 L 123.5 343 Z " /><path fill="rgb(0,0,0)" stroke="rgb(0,0,0)" stroke-width="1" opacity="0.6705882352941176" d="M 441.5 344 L 438.5 348 L 441.5 344 Z " /><path fill="rgb(0,0,0)" stroke="rgb(0,0,0)" stroke-width="1" opacity="0.6705882352941176" d="M 75.5 348 L 77.5 351 L 75.5 348 Z " /><path fill="rgb(0,0,0)" stroke="rgb(0,0,0)" stroke-width="1" opacity="0.6705882352941176" d="M 239.5 350 L 242 350.5 L 239.5 351 L 239.5 350 Z " /><path fill="rgb(0,0,0)" stroke="rgb(0,0,0)" stroke-width="1" opacity="0.6705882352941176" d="M 271.5 350 L 274 350.5 L 271.5 351 L 271.5 350 Z " /><path fill="rgb(0,0,0)" stroke="rgb(0,0,0)" stroke-width="1" opacity="0.6705882352941176" d="M 434.5 350 L 433.5 352 L 434.5 350 Z " /><path fill="rgb(0,0,0)" stroke="rgb(0,0,0)" stroke-width="1" opacity="0.6705882352941176" d="M 245.5 351 L 251 351.5 L 245.5 352 L 245.5 351 Z " /><path fill="rgb(0,0,0)" stroke="rgb(0,0,0)" stroke-width="1" opacity="0.6705882352941176" d="M 262.5 351 L 267 351.5 L 262.5 352 L 262.5 351 Z " /><path fill="rgb(0,0,0)" stroke="rgb(0,0,0)" stroke-width="1" opacity="0.6705882352941176" d="M 81.5 353 L 82.5 355 L 81.5 353 Z " /><path fill="rgb(0,0,0)" stroke="rgb(0,0,0)" stroke-width="1" opacity="0.6705882352941176" d="M 429.5 354 L 428.5 356 L 429.5 354 Z " /><path fill="rgb(0,0,0)" stroke="rgb(0,0,0)" stroke-width="1" opacity="0.6705882352941176" d="M 85.5 356 L 86.5 358 L 85.5 356 Z " /><path fill="rgb(0,0,0)" stroke="rgb(0,0,0)" stroke-width="1" opacity="0.6705882352941176" d="M 425.5 357 L 424.5 359 L 425.5 357 Z " /><path fill="rgb(0,0,0)" stroke="rgb(0,0,0)" stroke-width="1" opacity="0.6705882352941176" d="M 89.5 359 L 90.5 361 L 89.5 359 Z " /><path fill="rgb(0,0,0)" stroke="rgb(0,0,0)" stroke-width="1" opacity="0.6705882352941176" d="M 421.5 360 L 420.5 362 L 421.5 360 Z " /><path fill="rgb(0,0,0)" stroke="rgb(0,0,0)" stroke-width="1" opacity="0.6705882352941176" d="M 93.5 362 L 94.5 364 L 93.5 362 Z " /><path fill="rgb(0,0,0)" stroke="rgb(0,0,0)" stroke-width="1" opacity="0.6705882352941176" d="M 414.5 365 L 413.5 367 L 414.5 365 Z " /><path fill="rgb(0,0,0)" stroke="rgb(0,0,0)" stroke-width="1" opacity="0.6705882352941176" d="M 411.5 367 L 410.5 369 L 411.5 367 Z " /><path fill="rgb(0,0,0)" stroke="rgb(0,0,0)" stroke-width="1" opacity="0.6705882352941176" d="M 408.5 369 L 407.5 371 L 408.5 369 Z " /><path fill="rgb(0,0,0)" stroke="rgb(0,0,0)" stroke-width="1" opacity="0.6705882352941176" d="M 405.5 371 L 404.5 373 L 405.5 371 Z " /><path fill="rgb(0,0,0)" stroke="rgb(0,0,0)" stroke-width="1" opacity="0.6705882352941176" d="M 108.5 372 L 109.5 374 L 108.5 372 Z " /><path fill="rgb(0,0,0)" stroke="rgb(0,0,0)" stroke-width="1" opacity="0.6705882352941176" d="M 201.5 378 L 177.5 404 L 179 404.5 L 177.5 405 L 176 403.5 L 201.5 378 Z " /><path fill="rgb(0,0,0)" stroke="rgb(0,0,0)" stroke-width="1" opacity="0.6705882352941176" d="M 209.5 379 L 212 379.5 L 209.5 380 L 209.5 379 Z " /><path fill="rgb(0,0,0)" stroke="rgb(0,0,0)" stroke-width="1" opacity="0.6705882352941176" d="M 301.5 379 L 304 379.5 L 301.5 380 L 301.5 379 Z " /><path fill="rgb(0,0,0)" stroke="rgb(0,0,0)" stroke-width="1" opacity="0.6705882352941176" d="M 221.5 381 L 224 381.5 L 221.5 382 L 221.5 381 Z " /><path fill="rgb(0,0,0)" stroke="rgb(0,0,0)" stroke-width="1" opacity="0.6705882352941176" d="M 289.5 381 L 292 381.5 L 289.5 382 L 289.5 381 Z " /><path fill="rgb(0,0,0)" stroke="rgb(0,0,0)" stroke-width="1" opacity="0.6705882352941176" d="M 228.5 382 L 232 382.5 L 228.5 383 L 228.5 382 Z " /><path fill="rgb(0,0,0)" stroke="rgb(0,0,0)" stroke-width="1" opacity="0.6705882352941176" d="M 281.5 382 L 285 382.5 L 281.5 383 L 281.5 382 Z " /><path fill="rgb(0,0,0)" stroke="rgb(0,0,0)" stroke-width="1" opacity="0.6705882352941176" d="M 237.5 383 L 244 383.5 L 237.5 384 L 237.5 383 Z " /><path fill="rgb(0,0,0)" stroke="rgb(0,0,0)" stroke-width="1" opacity="0.6705882352941176" d="M 268.5 383 L 275 383.5 L 268.5 384 L 268.5 383 Z " /><path fill="rgb(0,0,0)" stroke="rgb(0,0,0)" stroke-width="1" opacity="0.6705882352941176" d="M 196.5 409 L 199 409.5 L 196.5 410 L 196.5 409 Z " /><path fill="rgb(0,0,0)" stroke="rgb(0,0,0)" stroke-width="1" opacity="0.6705882352941176" d="M 206.5 411 L 209 411.5 L 206.5 412 L 206.5 411 Z " /><path fill="rgb(0,0,0)" stroke="rgb(0,0,0)" stroke-width="1" opacity="0.6705882352941176" d="M 304.5 411 L 307 411.5 L 304.5 412 L 304.5 411 Z " /><path fill="rgb(0,0,0)" stroke="rgb(0,0,0)" stroke-width="1" opacity="0.6705882352941176" d="M 212.5 412 L 215 412.5 L 212.5 413 L 212.5 412 Z " /><path fill="rgb(0,0,0)" stroke="rgb(0,0,0)" stroke-width="1" opacity="0.6705882352941176" d="M 298.5 412 L 301 412.5 L 298.5 413 L 298.5 412 Z " /><path fill="rgb(0,0,0)" stroke="rgb(0,0,0)" stroke-width="1" opacity="0.6705882352941176" d="M 218.5 413 L 222 413.5 L 218.5 414 L 218.5 413 Z " /><path fill="rgb(0,0,0)" stroke="rgb(0,0,0)" stroke-width="1" opacity="0.6705882352941176" d="M 291.5 413 L 294 413.5 L 291.5 414 L 291.5 413 Z " /><path fill="rgb(0,0,0)" stroke="rgb(0,0,0)" stroke-width="1" opacity="0.6705882352941176" d="M 226.5 414 L 231 414.5 L 226.5 415 L 226.5 414 Z " /><path fill="rgb(0,0,0)" stroke="rgb(0,0,0)" stroke-width="1" opacity="0.6705882352941176" d="M 282.5 414 L 287 414.5 L 282.5 415 L 282.5 414 Z " /><path fill="rgb(0,0,0)" stroke="rgb(0,0,0)" stroke-width="1" opacity="0.6705882352941176" d="M 238.5 415 L 247 415.5 L 238.5 416 L 238.5 415 Z " /><path fill="rgb(0,0,0)" stroke="rgb(0,0,0)" stroke-width="1" opacity="0.6705882352941176" d="M 266.5 415 L 275 415.5 L 266.5 416 L 266.5 415 Z " /><path fill="rgb(0,0,0)" stroke="rgb(0,0,0)" stroke-width="1" opacity="0.6705882352941176" d="M 64.5 427 L 65 429.5 L 64 429.5 L 64.5 427 Z " /><path fill="rgb(0,0,0)" stroke="rgb(0,0,0)" stroke-width="1" opacity="0.6705882352941176" d="M 64.5 434 L 65 436.5 L 64 436.5 L 64.5 434 Z " /><path fill="rgb(0,0,0)" stroke="rgb(0,0,0)" stroke-width="1" opacity="0.6705882352941176" d="M 75.5 447 L 78 447.5 L 75.5 448 L 75.5 447 Z " /><path fill="rgb(0,0,0)" stroke="rgb(0,0,0)" stroke-width="1" opacity="0.6705882352941176" d="M 82.5 447 L 85 447.5 L 82.5 448 L 82.5 447 Z " /></svg>