<?xml version="1.0" standalone="no"?>
<!DOCTYPE svg PUBLIC "-//W3C//DTD SVG 20010904//EN"
 "http://www.w3.org/TR/2001/REC-SVG-20010904/DTD/svg10.dtd">
<svg version="1.0" xmlns="http://www.w3.org/2000/svg"
 width="512.000000pt" height="512.000000pt" viewBox="0 0 512.000000 512.000000"
 preserveAspectRatio="xMidYMid meet">

<g transform="translate(0.000000,512.000000) scale(0.100000,-0.100000)"
fill="#000000" stroke="none">
<path d="M1201 5111 c-13 -3 -34 -19 -45 -34 l-21 -28 -3 -2452 c-2 -1349 0
-2471 3 -2495 4 -23 17 -55 30 -70 l23 -27 514 0 c497 0 514 1 540 20 14 11
31 36 36 55 6 19 70 578 143 1243 74 664 136 1207 139 1207 3 0 65 -543 138
-1207 74 -665 139 -1226 146 -1247 9 -28 22 -45 47 -58 32 -17 62 -18 535 -16
477 3 503 4 523 22 11 10 25 35 31 55 14 50 14 4912 0 4962 -6 20 -20 45 -31
55 -20 18 -60 19 -1373 21 -743 0 -1362 -2 -1375 -6z m2579 -296 l0 -105
-1220 0 -1220 0 0 105 0 105 1220 0 1220 0 0 -105z m-1947 -350 c-12 -204
-117 -424 -256 -536 -59 -47 -159 -102 -209 -114 l-28 -7 0 351 0 351 248 -2
247 -3 -2 -40z m1241 33 c2 -7 9 -53 15 -102 18 -132 47 -229 102 -341 59
-119 126 -205 217 -281 74 -62 238 -147 320 -166 l52 -13 0 -1697 0 -1698
-374 0 -374 0 -6 43 c-3 23 -84 755 -181 1627 -96 872 -179 1608 -185 1636
-13 62 -44 94 -91 96 -41 1 -74 -14 -94 -46 -11 -16 -65 -474 -200 -1687 -102
-915 -185 -1665 -185 -1666 0 -2 -169 -3 -375 -3 l-375 0 0 1698 0 1697 52 13
c82 19 246 104 320 166 91 76 158 162 217 281 55 112 84 209 102 341 6 49 13
95 15 102 5 18 1023 18 1028 0z m706 -339 l0 -351 -27 7 c-16 3 -55 20 -88 36
-156 76 -273 215 -334 395 -23 70 -54 241 -46 254 4 6 104 10 251 10 l244 0 0
-351z"/>
</g>
</svg>
