<?xml version="1.0" standalone="no"?>
<!DOCTYPE svg PUBLIC "-//W3C//DTD SVG 20010904//EN"
 "http://www.w3.org/TR/2001/REC-SVG-20010904/DTD/svg10.dtd">
<svg version="1.0" xmlns="http://www.w3.org/2000/svg"
 width="512.000000pt" height="512.000000pt" viewBox="0 0 512.000000 512.000000"
 preserveAspectRatio="xMidYMid meet">

<g transform="translate(0.000000,512.000000) scale(0.100000,-0.100000)"
fill="#000000" stroke="none">
<path d="M1492 4735 c-217 -79 -403 -152 -415 -163 -12 -10 -231 -205 -487
-432 -256 -227 -491 -438 -522 -468 -58 -57 -75 -93 -62 -134 4 -12 200 -218
435 -456 l429 -434 0 -1172 c0 -1094 2 -1172 18 -1192 9 -12 27 -27 39 -33 31
-16 3235 -16 3266 0 12 6 30 21 39 33 16 20 18 98 18 1192 l0 1172 429 434
c235 238 431 444 435 456 13 40 -4 77 -57 129 -29 28 -275 248 -547 489 l-495
440 -400 142 c-220 78 -408 142 -418 142 -49 0 -97 -53 -97 -104 0 -12 -9 -56
-19 -97 -70 -274 -257 -429 -519 -429 -155 0 -269 41 -368 133 -90 83 -158
223 -179 367 -13 90 -47 131 -107 129 -13 0 -200 -65 -416 -144z m354 -150
c34 -133 143 -295 256 -380 149 -113 298 -160 488 -153 181 7 328 66 461 187
101 91 189 233 220 355 6 25 16 46 23 46 6 -1 149 -51 317 -113 l307 -112 471
-424 c260 -233 470 -427 469 -431 -2 -4 -139 -146 -305 -316 l-303 -309 0 243
c0 252 -3 271 -44 304 -24 20 -77 23 -107 8 -51 -28 -49 47 -49 -1555 l0
-1485 -1495 0 -1495 0 0 1496 0 1496 -29 29 c-57 57 -149 28 -165 -52 -3 -18
-6 -132 -6 -254 l0 -223 -302 305 c-167 167 -304 308 -306 312 -1 4 211 198
472 432 l474 424 303 112 c167 61 310 111 318 110 9 -1 20 -23 27 -52z"/>
</g>
</svg>
