<svg width="512" height="512" version="1.1" xmlns="http://www.w3.org/2000/svg" desc="Created with imagetracer.js version 1.2.6" ><path fill="rgb(0,0,0)" stroke="rgb(0,0,0)" stroke-width="1" opacity="0" d="M 0 0 L 512 0 L 512 512 L 0 512 L 0 0 Z M 235 111 L 234 112 L 225 112 L 217 114 L 211 114 L 184 120 L 145 134 Q 100 154 68 185 Q 36 213 16 253 L 17 263 L 26 278 L 43 301 L 62 321 L 62 322 L 99 352 Q 120 367 145 378 L 184 392 L 211 398 L 224 399 L 225 400 L 235 400 L 236 401 L 277 401 L 278 400 L 288 400 L 317 395 L 351 385 Q 409 363 450 322 Q 477 295 496 260 L 496 253 L 490 241 Q 475 217 457 198 Q 417 154 359 130 L 329 120 L 302 114 L 289 113 L 288 112 L 279 112 L 278 111 L 235 111 Z " /><path fill="rgb(0,0,0)" stroke="rgb(0,0,0)" stroke-width="1" opacity="0" d="M 247.5 156 L 272.5 157 L 293.5 163 Q 315.9 172.6 331 189.5 Q 342.1 201.9 349 218.5 L 355 239.5 L 356 264.5 L 353 281.5 Q 349 296 342 307.5 Q 333.9 320.9 322.5 331 Q 310.1 342.1 293.5 349 L 272.5 355 L 247.5 356 L 230.5 353 Q 216 349 204.5 342 Q 191.1 333.9 181 322.5 Q 169.9 310.1 163 293.5 L 157 272.5 L 156 247.5 L 159 230.5 Q 163 216 170 204.5 Q 178 191 189.5 181 Q 201.9 169.9 218.5 163 L 234.5 158 L 246.5 157 L 247.5 156 Z M 248 188 L 232 192 Q 220 197 211 205 Q 193 220 188 248 L 188 265 L 190 275 Q 195 290 205 302 Q 220 319 248 324 L 265 324 L 275 322 Q 290 317 301 308 Q 319 293 324 265 L 324 248 L 322 238 Q 317 222 308 212 Q 297 199 281 192 L 265 188 L 248 188 Z " /><path fill="rgb(0,0,0)" stroke="rgb(0,0,0)" stroke-width="1" opacity="0.796078431372549" d="M 234.5 111 L 242 111.5 L 234.5 112 L 234.5 111 Z " /><path fill="rgb(0,0,0)" stroke="rgb(0,0,0)" stroke-width="1" opacity="0.796078431372549" d="M 270.5 111 L 278 111.5 L 270.5 112 L 270.5 111 Z " /><path fill="rgb(0,0,0)" stroke="rgb(0,0,0)" stroke-width="1" opacity="0.796078431372549" d="M 224.5 112 L 228 112.5 L 224.5 113 L 224.5 112 Z " /><path fill="rgb(0,0,0)" stroke="rgb(0,0,0)" stroke-width="1" opacity="0.796078431372549" d="M 284.5 112 L 288 112.5 L 284.5 113 L 284.5 112 Z " /><path fill="rgb(0,0,0)" stroke="rgb(0,0,0)" stroke-width="1" opacity="0.796078431372549" d="M 217.5 113 L 220 113.5 L 217.5 114 L 217.5 113 Z " /><path fill="rgb(0,0,0)" stroke="rgb(0,0,0)" stroke-width="1" opacity="0.796078431372549" d="M 292.5 113 L 295 113.5 L 292.5 114 L 292.5 113 Z " /><path fill="rgb(0,0,0)" stroke="rgb(0,0,0)" stroke-width="1" opacity="0.796078431372549" d="M 210.5 114 L 213 114.5 L 210.5 115 L 210.5 114 Z " /><path fill="rgb(0,0,0)" stroke="rgb(0,0,0)" stroke-width="1" opacity="0.796078431372549" d="M 299.5 114 L 302 114.5 L 299.5 115 L 299.5 114 Z " /><path fill="rgb(0,0,0)" stroke="rgb(0,0,0)" stroke-width="1" opacity="0.796078431372549" d="M 120.5 146 L 119.5 148 L 120.5 146 Z " /><path fill="rgb(0,0,0)" stroke="rgb(0,0,0)" stroke-width="1" opacity="0.796078431372549" d="M 391.5 146 L 392.5 148 L 391.5 146 Z " /><path fill="rgb(0,0,0)" stroke="rgb(0,0,0)" stroke-width="1" opacity="0.796078431372549" d="M 115.5 149 L 114.5 151 L 115.5 149 Z " /><path fill="rgb(0,0,0)" stroke="rgb(0,0,0)" stroke-width="1" opacity="0.796078431372549" d="M 396.5 149 L 397.5 151 L 396.5 149 Z " /><path fill="rgb(0,0,0)" stroke="rgb(0,0,0)" stroke-width="1" opacity="0.796078431372549" d="M 110.5 152 L 109.5 154 L 110.5 152 Z " /><path fill="rgb(0,0,0)" stroke="rgb(0,0,0)" stroke-width="1" opacity="0.796078431372549" d="M 401.5 152 L 402.5 154 L 401.5 152 Z " /><path fill="rgb(0,0,0)" stroke="rgb(0,0,0)" stroke-width="1" opacity="0.796078431372549" d="M 107.5 154 L 106.5 156 L 107.5 154 Z " /><path fill="rgb(0,0,0)" stroke="rgb(0,0,0)" stroke-width="1" opacity="0.796078431372549" d="M 243.5 156 L 247 156.5 L 243.5 157 L 243.5 156 Z " /><path fill="rgb(0,0,0)" stroke="rgb(0,0,0)" stroke-width="1" opacity="0.796078431372549" d="M 265.5 156 L 269 156.5 L 265.5 157 L 265.5 156 Z " /><path fill="rgb(0,0,0)" stroke="rgb(0,0,0)" stroke-width="1" opacity="0.796078431372549" d="M 101.5 158 L 100.5 160 L 101.5 158 Z " /><path fill="rgb(0,0,0)" stroke="rgb(0,0,0)" stroke-width="1" opacity="0.796078431372549" d="M 410.5 158 L 411.5 160 L 410.5 158 Z " /><path fill="rgb(0,0,0)" stroke="rgb(0,0,0)" stroke-width="1" opacity="0.796078431372549" d="M 98.5 160 L 97.5 162 L 98.5 160 Z " /><path fill="rgb(0,0,0)" stroke="rgb(0,0,0)" stroke-width="1" opacity="0.796078431372549" d="M 413.5 160 L 414.5 162 L 413.5 160 Z " /><path fill="rgb(0,0,0)" stroke="rgb(0,0,0)" stroke-width="1" opacity="0.796078431372549" d="M 95.5 162 L 94.5 164 L 95.5 162 Z " /><path fill="rgb(0,0,0)" stroke="rgb(0,0,0)" stroke-width="1" opacity="0.796078431372549" d="M 416.5 162 L 417.5 164 L 416.5 162 Z " /><path fill="rgb(0,0,0)" stroke="rgb(0,0,0)" stroke-width="1" opacity="0.796078431372549" d="M 91.5 165 L 90.5 167 L 91.5 165 Z " /><path fill="rgb(0,0,0)" stroke="rgb(0,0,0)" stroke-width="1" opacity="0.796078431372549" d="M 420.5 165 L 421.5 167 L 420.5 165 Z " /><path fill="rgb(0,0,0)" stroke="rgb(0,0,0)" stroke-width="1" opacity="0.796078431372549" d="M 87.5 168 L 85.5 171 L 87.5 168 Z " /><path fill="rgb(0,0,0)" stroke="rgb(0,0,0)" stroke-width="1" opacity="0.796078431372549" d="M 424.5 168 L 426.5 171 L 424.5 168 Z " /><path fill="rgb(0,0,0)" stroke="rgb(0,0,0)" stroke-width="1" opacity="0.796078431372549" d="M 203.5 170 L 202.5 172 L 203.5 170 Z " /><path fill="rgb(0,0,0)" stroke="rgb(0,0,0)" stroke-width="1" opacity="0.796078431372549" d="M 308.5 170 L 309.5 172 L 308.5 170 Z " /><path fill="rgb(0,0,0)" stroke="rgb(0,0,0)" stroke-width="1" opacity="0.796078431372549" d="M 82.5 172 L 80.5 175 L 82.5 172 Z " /><path fill="rgb(0,0,0)" stroke="rgb(0,0,0)" stroke-width="1" opacity="0.796078431372549" d="M 200.5 172 L 199.5 174 L 200.5 172 Z " /><path fill="rgb(0,0,0)" stroke="rgb(0,0,0)" stroke-width="1" opacity="0.796078431372549" d="M 311.5 172 L 312.5 174 L 311.5 172 Z " /><path fill="rgb(0,0,0)" stroke="rgb(0,0,0)" stroke-width="1" opacity="0.796078431372549" d="M 429.5 172 L 431.5 175 L 429.5 172 Z " /><path fill="rgb(0,0,0)" stroke="rgb(0,0,0)" stroke-width="1" opacity="0.796078431372549" d="M 197.5 174 L 195.5 177 L 197.5 174 Z " /><path fill="rgb(0,0,0)" stroke="rgb(0,0,0)" stroke-width="1" opacity="0.796078431372549" d="M 314.5 174 L 316.5 177 L 314.5 174 Z " /><path fill="rgb(0,0,0)" stroke="rgb(0,0,0)" stroke-width="1" opacity="0.796078431372549" d="M 76.5 177 L 72.5 182 L 76.5 177 Z " /><path fill="rgb(0,0,0)" stroke="rgb(0,0,0)" stroke-width="1" opacity="0.796078431372549" d="M 193.5 177 L 190.5 181 L 193.5 177 Z " /><path fill="rgb(0,0,0)" stroke="rgb(0,0,0)" stroke-width="1" opacity="0.796078431372549" d="M 318.5 177 L 321.5 181 L 318.5 177 Z " /><path fill="rgb(0,0,0)" stroke="rgb(0,0,0)" stroke-width="1" opacity="0.796078431372549" d="M 435.5 177 L 439.5 182 L 435.5 177 Z " /><path fill="rgb(0,0,0)" stroke="rgb(0,0,0)" stroke-width="1" opacity="0.796078431372549" d="M 67.5 185 L 55.5 198 L 67.5 185 Z " /><path fill="rgb(0,0,0)" stroke="rgb(0,0,0)" stroke-width="1" opacity="0.796078431372549" d="M 444.5 185 L 456.5 198 L 444.5 185 Z " /><path fill="rgb(0,0,0)" stroke="rgb(0,0,0)" stroke-width="1" opacity="0.796078431372549" d="M 247.5 188 L 252 188.5 L 247.5 189 L 247.5 188 Z " /><path fill="rgb(0,0,0)" stroke="rgb(0,0,0)" stroke-width="1" opacity="0.796078431372549" d="M 260.5 188 L 265 188.5 L 260.5 189 L 260.5 188 Z " /><path fill="rgb(0,0,0)" stroke="rgb(0,0,0)" stroke-width="1" opacity="0.796078431372549" d="M 241.5 189 L 244 189.5 L 241.5 190 L 241.5 189 Z " /><path fill="rgb(0,0,0)" stroke="rgb(0,0,0)" stroke-width="1" opacity="0.796078431372549" d="M 268.5 189 L 271 189.5 L 268.5 190 L 268.5 189 Z " /><path fill="rgb(0,0,0)" stroke="rgb(0,0,0)" stroke-width="1" opacity="0.796078431372549" d="M 180.5 190 L 177.5 194 L 180.5 190 Z " /><path fill="rgb(0,0,0)" stroke="rgb(0,0,0)" stroke-width="1" opacity="0.796078431372549" d="M 331.5 190 L 334.5 194 L 331.5 190 Z " /><path fill="rgb(0,0,0)" stroke="rgb(0,0,0)" stroke-width="1" opacity="0.796078431372549" d="M 335.5 195 L 337.5 198 L 335.5 195 Z " /><path fill="rgb(0,0,0)" stroke="rgb(0,0,0)" stroke-width="1" opacity="0.796078431372549" d="M 175.5 196 L 174.5 198 L 175.5 196 Z " /><path fill="rgb(0,0,0)" stroke="rgb(0,0,0)" stroke-width="1" opacity="0.796078431372549" d="M 292.5 198 L 293.5 200 L 292.5 198 Z " /><path fill="rgb(0,0,0)" stroke="rgb(0,0,0)" stroke-width="1" opacity="0.796078431372549" d="M 173.5 199 L 172.5 201 L 173.5 199 Z " /><path fill="rgb(0,0,0)" stroke="rgb(0,0,0)" stroke-width="1" opacity="0.796078431372549" d="M 338.5 199 L 339.5 201 L 338.5 199 Z " /><path fill="rgb(0,0,0)" stroke="rgb(0,0,0)" stroke-width="1" opacity="0.796078431372549" d="M 215.5 201 L 214.5 203 L 215.5 201 Z " /><path fill="rgb(0,0,0)" stroke="rgb(0,0,0)" stroke-width="1" opacity="0.796078431372549" d="M 296.5 201 L 297.5 203 L 296.5 201 Z " /><path fill="rgb(0,0,0)" stroke="rgb(0,0,0)" stroke-width="1" opacity="0.796078431372549" d="M 171.5 202 L 170.5 204 L 171.5 202 Z " /><path fill="rgb(0,0,0)" stroke="rgb(0,0,0)" stroke-width="1" opacity="0.796078431372549" d="M 340.5 202 L 341.5 204 L 340.5 202 Z " /><path fill="rgb(0,0,0)" stroke="rgb(0,0,0)" stroke-width="1" opacity="0.796078431372549" d="M 460.5 202 L 464.5 207 L 460.5 202 Z " /><path fill="rgb(0,0,0)" stroke="rgb(0,0,0)" stroke-width="1" opacity="0.796078431372549" d="M 50.5 203 L 47.5 207 L 50.5 203 Z " /><path fill="rgb(0,0,0)" stroke="rgb(0,0,0)" stroke-width="1" opacity="0.796078431372549" d="M 300.5 204 L 307.5 212 L 300.5 204 Z " /><path fill="rgb(0,0,0)" stroke="rgb(0,0,0)" stroke-width="1" opacity="0.796078431372549" d="M 210.5 205 L 205.5 211 L 210.5 205 Z " /><path fill="rgb(0,0,0)" stroke="rgb(0,0,0)" stroke-width="1" opacity="0.796078431372549" d="M 44.5 210 L 42.5 213 L 44.5 210 Z " /><path fill="rgb(0,0,0)" stroke="rgb(0,0,0)" stroke-width="1" opacity="0.796078431372549" d="M 467.5 210 L 469.5 213 L 467.5 210 Z " /><path fill="rgb(0,0,0)" stroke="rgb(0,0,0)" stroke-width="1" opacity="0.796078431372549" d="M 202.5 214 L 201.5 216 L 202.5 214 Z " /><path fill="rgb(0,0,0)" stroke="rgb(0,0,0)" stroke-width="1" opacity="0.796078431372549" d="M 309.5 214 L 310.5 216 L 309.5 214 Z " /><path fill="rgb(0,0,0)" stroke="rgb(0,0,0)" stroke-width="1" opacity="0.796078431372549" d="M 40.5 215 L 38.5 218 L 40.5 215 Z " /><path fill="rgb(0,0,0)" stroke="rgb(0,0,0)" stroke-width="1" opacity="0.796078431372549" d="M 471.5 215 L 473.5 218 L 471.5 215 Z " /><path fill="rgb(0,0,0)" stroke="rgb(0,0,0)" stroke-width="1" opacity="0.796078431372549" d="M 36.5 220 L 35.5 222 L 36.5 220 Z " /><path fill="rgb(0,0,0)" stroke="rgb(0,0,0)" stroke-width="1" opacity="0.796078431372549" d="M 475.5 220 L 476.5 222 L 475.5 220 Z " /><path fill="rgb(0,0,0)" stroke="rgb(0,0,0)" stroke-width="1" opacity="0.796078431372549" d="M 33.5 224 L 32.5 226 L 33.5 224 Z " /><path fill="rgb(0,0,0)" stroke="rgb(0,0,0)" stroke-width="1" opacity="0.796078431372549" d="M 478.5 224 L 479.5 226 L 478.5 224 Z " /><path fill="rgb(0,0,0)" stroke="rgb(0,0,0)" stroke-width="1" opacity="0.796078431372549" d="M 31.5 227 L 30.5 229 L 31.5 227 Z " /><path fill="rgb(0,0,0)" stroke="rgb(0,0,0)" stroke-width="1" opacity="0.796078431372549" d="M 480.5 227 L 481.5 229 L 480.5 227 Z " /><path fill="rgb(0,0,0)" stroke="rgb(0,0,0)" stroke-width="1" opacity="0.796078431372549" d="M 482.5 230 L 483.5 232 L 482.5 230 Z " /><path fill="rgb(0,0,0)" stroke="rgb(0,0,0)" stroke-width="1" opacity="0.796078431372549" d="M 25.5 236 L 24.5 238 L 25.5 236 Z " /><path fill="rgb(0,0,0)" stroke="rgb(0,0,0)" stroke-width="1" opacity="0.796078431372549" d="M 486.5 236 L 487.5 238 L 486.5 236 Z " /><path fill="rgb(0,0,0)" stroke="rgb(0,0,0)" stroke-width="1" opacity="0.796078431372549" d="M 23.5 239 L 22.5 241 L 23.5 239 Z " /><path fill="rgb(0,0,0)" stroke="rgb(0,0,0)" stroke-width="1" opacity="0.796078431372549" d="M 488.5 239 L 489.5 241 L 488.5 239 Z " /><path fill="rgb(0,0,0)" stroke="rgb(0,0,0)" stroke-width="1" opacity="0.796078431372549" d="M 189.5 241 L 190 243.5 L 189 243.5 L 189.5 241 Z " /><path fill="rgb(0,0,0)" stroke="rgb(0,0,0)" stroke-width="1" opacity="0.796078431372549" d="M 322.5 241 L 323 243.5 L 322 243.5 L 322.5 241 Z " /><path fill="rgb(0,0,0)" stroke="rgb(0,0,0)" stroke-width="1" opacity="0.796078431372549" d="M 156.5 243 L 157 246.5 L 156 246.5 L 156.5 243 Z " /><path fill="rgb(0,0,0)" stroke="rgb(0,0,0)" stroke-width="1" opacity="0.796078431372549" d="M 355.5 243 L 356 246.5 L 355 246.5 L 355.5 243 Z " /><path fill="rgb(0,0,0)" stroke="rgb(0,0,0)" stroke-width="1" opacity="0.796078431372549" d="M 20.5 244 L 19.5 246 L 20.5 244 Z " /><path fill="rgb(0,0,0)" stroke="rgb(0,0,0)" stroke-width="1" opacity="0.796078431372549" d="M 491.5 244 L 492.5 246 L 491.5 244 Z " /><path fill="rgb(0,0,0)" stroke="rgb(0,0,0)" stroke-width="1" opacity="0.796078431372549" d="M 188.5 247 L 189 251.5 L 188 251.5 L 188.5 247 Z " /><path fill="rgb(0,0,0)" stroke="rgb(0,0,0)" stroke-width="1" opacity="0.796078431372549" d="M 323.5 247 L 324 251.5 L 323 251.5 L 323.5 247 Z " /><path fill="rgb(0,0,0)" stroke="rgb(0,0,0)" stroke-width="1" opacity="0.796078431372549" d="M 16.5 252 L 17 254.5 L 16 254.5 L 16.5 252 Z " /><path fill="rgb(0,0,0)" stroke="rgb(0,0,0)" stroke-width="1" opacity="0.796078431372549" d="M 495.5 252 L 496 254.5 L 495 254.5 L 495.5 252 Z " /><path fill="rgb(0,0,0)" stroke="rgb(0,0,0)" stroke-width="1" opacity="0.796078431372549" d="M 16.5 257 L 17 259.5 L 16 259.5 L 16.5 257 Z " /><path fill="rgb(0,0,0)" stroke="rgb(0,0,0)" stroke-width="1" opacity="0.796078431372549" d="M 495.5 257 L 496 259.5 L 495 259.5 L 495.5 257 Z " /><path fill="rgb(0,0,0)" stroke="rgb(0,0,0)" stroke-width="1" opacity="0.796078431372549" d="M 323.5 259 L 324 264.5 L 323 264.5 L 323.5 259 Z " /><path fill="rgb(0,0,0)" stroke="rgb(0,0,0)" stroke-width="1" opacity="0.796078431372549" d="M 188.5 260 L 189 264.5 L 188 264.5 L 188.5 260 Z " /><path fill="rgb(0,0,0)" stroke="rgb(0,0,0)" stroke-width="1" opacity="0.796078431372549" d="M 18.5 264 L 19.5 266 L 18.5 264 Z " /><path fill="rgb(0,0,0)" stroke="rgb(0,0,0)" stroke-width="1" opacity="0.796078431372549" d="M 493.5 264 L 492.5 266 L 493.5 264 Z " /><path fill="rgb(0,0,0)" stroke="rgb(0,0,0)" stroke-width="1" opacity="0.796078431372549" d="M 156.5 265 L 157 268.5 L 156 268.5 L 156.5 265 Z " /><path fill="rgb(0,0,0)" stroke="rgb(0,0,0)" stroke-width="1" opacity="0.796078431372549" d="M 355.5 265 L 356 268.5 L 355 268.5 L 355.5 265 Z " /><path fill="rgb(0,0,0)" stroke="rgb(0,0,0)" stroke-width="1" opacity="0.796078431372549" d="M 189.5 268 L 190 270.5 L 189 270.5 L 189.5 268 Z " /><path fill="rgb(0,0,0)" stroke="rgb(0,0,0)" stroke-width="1" opacity="0.796078431372549" d="M 322.5 268 L 323 270.5 L 322 270.5 L 322.5 268 Z " /><path fill="rgb(0,0,0)" stroke="rgb(0,0,0)" stroke-width="1" opacity="0.796078431372549" d="M 21.5 269 L 22.5 271 L 21.5 269 Z " /><path fill="rgb(0,0,0)" stroke="rgb(0,0,0)" stroke-width="1" opacity="0.796078431372549" d="M 490.5 269 L 489.5 271 L 490.5 269 Z " /><path fill="rgb(0,0,0)" stroke="rgb(0,0,0)" stroke-width="1" opacity="0.796078431372549" d="M 26.5 277 L 27.5 279 L 26.5 277 Z " /><path fill="rgb(0,0,0)" stroke="rgb(0,0,0)" stroke-width="1" opacity="0.796078431372549" d="M 485.5 277 L 484.5 279 L 485.5 277 Z " /><path fill="rgb(0,0,0)" stroke="rgb(0,0,0)" stroke-width="1" opacity="0.796078431372549" d="M 28.5 280 L 29.5 282 L 28.5 280 Z " /><path fill="rgb(0,0,0)" stroke="rgb(0,0,0)" stroke-width="1" opacity="0.796078431372549" d="M 483.5 280 L 482.5 282 L 483.5 280 Z " /><path fill="rgb(0,0,0)" stroke="rgb(0,0,0)" stroke-width="1" opacity="0.796078431372549" d="M 33.5 287 L 34.5 289 L 33.5 287 Z " /><path fill="rgb(0,0,0)" stroke="rgb(0,0,0)" stroke-width="1" opacity="0.796078431372549" d="M 478.5 287 L 477.5 289 L 478.5 287 Z " /><path fill="rgb(0,0,0)" stroke="rgb(0,0,0)" stroke-width="1" opacity="0.796078431372549" d="M 36.5 291 L 37.5 293 L 36.5 291 Z " /><path fill="rgb(0,0,0)" stroke="rgb(0,0,0)" stroke-width="1" opacity="0.796078431372549" d="M 475.5 291 L 474.5 293 L 475.5 291 Z " /><path fill="rgb(0,0,0)" stroke="rgb(0,0,0)" stroke-width="1" opacity="0.796078431372549" d="M 39.5 295 L 41.5 298 L 39.5 295 Z " /><path fill="rgb(0,0,0)" stroke="rgb(0,0,0)" stroke-width="1" opacity="0.796078431372549" d="M 472.5 295 L 470.5 298 L 472.5 295 Z " /><path fill="rgb(0,0,0)" stroke="rgb(0,0,0)" stroke-width="1" opacity="0.796078431372549" d="M 201.5 296 L 202.5 298 L 201.5 296 Z " /><path fill="rgb(0,0,0)" stroke="rgb(0,0,0)" stroke-width="1" opacity="0.796078431372549" d="M 310.5 296 L 309.5 298 L 310.5 296 Z " /><path fill="rgb(0,0,0)" stroke="rgb(0,0,0)" stroke-width="1" opacity="0.796078431372549" d="M 43.5 300 L 45.5 303 L 43.5 300 Z " /><path fill="rgb(0,0,0)" stroke="rgb(0,0,0)" stroke-width="1" opacity="0.796078431372549" d="M 307.5 300 L 300.5 308 L 307.5 300 Z " /><path fill="rgb(0,0,0)" stroke="rgb(0,0,0)" stroke-width="1" opacity="0.796078431372549" d="M 468.5 300 L 465.5 304 L 468.5 300 Z " /><path fill="rgb(0,0,0)" stroke="rgb(0,0,0)" stroke-width="1" opacity="0.796078431372549" d="M 205.5 301 L 210.5 307 L 205.5 301 Z " /><path fill="rgb(0,0,0)" stroke="rgb(0,0,0)" stroke-width="1" opacity="0.796078431372549" d="M 48.5 306 L 53.5 312 L 48.5 306 Z " /><path fill="rgb(0,0,0)" stroke="rgb(0,0,0)" stroke-width="1" opacity="0.796078431372549" d="M 463.5 306 L 458.5 312 L 463.5 306 Z " /><path fill="rgb(0,0,0)" stroke="rgb(0,0,0)" stroke-width="1" opacity="0.796078431372549" d="M 170.5 308 L 171.5 310 L 170.5 308 Z " /><path fill="rgb(0,0,0)" stroke="rgb(0,0,0)" stroke-width="1" opacity="0.796078431372549" d="M 341.5 308 L 340.5 310 L 341.5 308 Z " /><path fill="rgb(0,0,0)" stroke="rgb(0,0,0)" stroke-width="1" opacity="0.796078431372549" d="M 214.5 309 L 215.5 311 L 214.5 309 Z " /><path fill="rgb(0,0,0)" stroke="rgb(0,0,0)" stroke-width="1" opacity="0.796078431372549" d="M 297.5 309 L 296.5 311 L 297.5 309 Z " /><path fill="rgb(0,0,0)" stroke="rgb(0,0,0)" stroke-width="1" opacity="0.796078431372549" d="M 172.5 311 L 173.5 313 L 172.5 311 Z " /><path fill="rgb(0,0,0)" stroke="rgb(0,0,0)" stroke-width="1" opacity="0.796078431372549" d="M 339.5 311 L 338.5 313 L 339.5 311 Z " /><path fill="rgb(0,0,0)" stroke="rgb(0,0,0)" stroke-width="1" opacity="0.796078431372549" d="M 293.5 312 L 292.5 314 L 293.5 312 Z " /><path fill="rgb(0,0,0)" stroke="rgb(0,0,0)" stroke-width="1" opacity="0.796078431372549" d="M 174.5 314 L 176.5 317 L 174.5 314 Z " /><path fill="rgb(0,0,0)" stroke="rgb(0,0,0)" stroke-width="1" opacity="0.796078431372549" d="M 337.5 314 L 335.5 317 L 337.5 314 Z " /><path fill="rgb(0,0,0)" stroke="rgb(0,0,0)" stroke-width="1" opacity="0.796078431372549" d="M 334.5 318 L 331.5 322 L 334.5 318 Z " /><path fill="rgb(0,0,0)" stroke="rgb(0,0,0)" stroke-width="1" opacity="0.796078431372549" d="M 178.5 319 L 180.5 322 L 178.5 319 Z " /><path fill="rgb(0,0,0)" stroke="rgb(0,0,0)" stroke-width="1" opacity="0.796078431372549" d="M 450.5 320 L 449.5 322 L 450.5 320 Z " /><path fill="rgb(0,0,0)" stroke="rgb(0,0,0)" stroke-width="1" opacity="0.796078431372549" d="M 241.5 322 L 244 322.5 L 241.5 323 L 241.5 322 Z " /><path fill="rgb(0,0,0)" stroke="rgb(0,0,0)" stroke-width="1" opacity="0.796078431372549" d="M 268.5 322 L 271 322.5 L 268.5 323 L 268.5 322 Z " /><path fill="rgb(0,0,0)" stroke="rgb(0,0,0)" stroke-width="1" opacity="0.796078431372549" d="M 247.5 323 L 252 323.5 L 247.5 324 L 247.5 323 Z " /><path fill="rgb(0,0,0)" stroke="rgb(0,0,0)" stroke-width="1" opacity="0.796078431372549" d="M 260.5 323 L 265 323.5 L 260.5 324 L 260.5 323 Z " /><path fill="rgb(0,0,0)" stroke="rgb(0,0,0)" stroke-width="1" opacity="0.796078431372549" d="M 70.5 328 L 75.5 334 L 70.5 328 Z " /><path fill="rgb(0,0,0)" stroke="rgb(0,0,0)" stroke-width="1" opacity="0.796078431372549" d="M 441.5 328 L 436.5 334 L 441.5 328 Z " /><path fill="rgb(0,0,0)" stroke="rgb(0,0,0)" stroke-width="1" opacity="0.796078431372549" d="M 190.5 331 L 193.5 335 L 190.5 331 Z " /><path fill="rgb(0,0,0)" stroke="rgb(0,0,0)" stroke-width="1" opacity="0.796078431372549" d="M 321.5 331 L 319.5 334 L 321.5 331 Z " /><path fill="rgb(0,0,0)" stroke="rgb(0,0,0)" stroke-width="1" opacity="0.796078431372549" d="M 195.5 335 L 197.5 338 L 195.5 335 Z " /><path fill="rgb(0,0,0)" stroke="rgb(0,0,0)" stroke-width="1" opacity="0.796078431372549" d="M 316.5 335 L 314.5 338 L 316.5 335 Z " /><path fill="rgb(0,0,0)" stroke="rgb(0,0,0)" stroke-width="1" opacity="0.796078431372549" d="M 79.5 336 L 81.5 339 L 79.5 336 Z " /><path fill="rgb(0,0,0)" stroke="rgb(0,0,0)" stroke-width="1" opacity="0.796078431372549" d="M 432.5 336 L 430.5 339 L 432.5 336 Z " /><path fill="rgb(0,0,0)" stroke="rgb(0,0,0)" stroke-width="1" opacity="0.796078431372549" d="M 199.5 338 L 200.5 340 L 199.5 338 Z " /><path fill="rgb(0,0,0)" stroke="rgb(0,0,0)" stroke-width="1" opacity="0.796078431372549" d="M 312.5 338 L 311.5 340 L 312.5 338 Z " /><path fill="rgb(0,0,0)" stroke="rgb(0,0,0)" stroke-width="1" opacity="0.796078431372549" d="M 84.5 340 L 86.5 343 L 84.5 340 Z " /><path fill="rgb(0,0,0)" stroke="rgb(0,0,0)" stroke-width="1" opacity="0.796078431372549" d="M 202.5 340 L 203.5 342 L 202.5 340 Z " /><path fill="rgb(0,0,0)" stroke="rgb(0,0,0)" stroke-width="1" opacity="0.796078431372549" d="M 309.5 340 L 308.5 342 L 309.5 340 Z " /><path fill="rgb(0,0,0)" stroke="rgb(0,0,0)" stroke-width="1" opacity="0.796078431372549" d="M 427.5 340 L 425.5 343 L 427.5 340 Z " /><path fill="rgb(0,0,0)" stroke="rgb(0,0,0)" stroke-width="1" opacity="0.796078431372549" d="M 89.5 344 L 90.5 346 L 89.5 344 Z " /><path fill="rgb(0,0,0)" stroke="rgb(0,0,0)" stroke-width="1" opacity="0.796078431372549" d="M 422.5 344 L 421.5 346 L 422.5 344 Z " /><path fill="rgb(0,0,0)" stroke="rgb(0,0,0)" stroke-width="1" opacity="0.796078431372549" d="M 93.5 347 L 94.5 349 L 93.5 347 Z " /><path fill="rgb(0,0,0)" stroke="rgb(0,0,0)" stroke-width="1" opacity="0.796078431372549" d="M 418.5 347 L 417.5 349 L 418.5 347 Z " /><path fill="rgb(0,0,0)" stroke="rgb(0,0,0)" stroke-width="1" opacity="0.796078431372549" d="M 97.5 350 L 98.5 352 L 97.5 350 Z " /><path fill="rgb(0,0,0)" stroke="rgb(0,0,0)" stroke-width="1" opacity="0.796078431372549" d="M 414.5 350 L 413.5 352 L 414.5 350 Z " /><path fill="rgb(0,0,0)" stroke="rgb(0,0,0)" stroke-width="1" opacity="0.796078431372549" d="M 100.5 352 L 101.5 354 L 100.5 352 Z " /><path fill="rgb(0,0,0)" stroke="rgb(0,0,0)" stroke-width="1" opacity="0.796078431372549" d="M 411.5 352 L 410.5 354 L 411.5 352 Z " /><path fill="rgb(0,0,0)" stroke="rgb(0,0,0)" stroke-width="1" opacity="0.796078431372549" d="M 103.5 354 L 104.5 356 L 103.5 354 Z " /><path fill="rgb(0,0,0)" stroke="rgb(0,0,0)" stroke-width="1" opacity="0.796078431372549" d="M 408.5 354 L 407.5 356 L 408.5 354 Z " /><path fill="rgb(0,0,0)" stroke="rgb(0,0,0)" stroke-width="1" opacity="0.796078431372549" d="M 243.5 355 L 247 355.5 L 243.5 356 L 243.5 355 Z " /><path fill="rgb(0,0,0)" stroke="rgb(0,0,0)" stroke-width="1" opacity="0.796078431372549" d="M 265.5 355 L 269 355.5 L 265.5 356 L 265.5 355 Z " /><path fill="rgb(0,0,0)" stroke="rgb(0,0,0)" stroke-width="1" opacity="0.796078431372549" d="M 106.5 356 L 107.5 358 L 106.5 356 Z " /><path fill="rgb(0,0,0)" stroke="rgb(0,0,0)" stroke-width="1" opacity="0.796078431372549" d="M 405.5 356 L 404.5 358 L 405.5 356 Z " /><path fill="rgb(0,0,0)" stroke="rgb(0,0,0)" stroke-width="1" opacity="0.796078431372549" d="M 397.5 361 L 396.5 363 L 397.5 361 Z " /><path fill="rgb(0,0,0)" stroke="rgb(0,0,0)" stroke-width="1" opacity="0.796078431372549" d="M 121.5 365 L 122.5 367 L 121.5 365 Z " /><path fill="rgb(0,0,0)" stroke="rgb(0,0,0)" stroke-width="1" opacity="0.796078431372549" d="M 390.5 365 L 389.5 367 L 390.5 365 Z " /><path fill="rgb(0,0,0)" stroke="rgb(0,0,0)" stroke-width="1" opacity="0.796078431372549" d="M 195.5 394 L 198 394.5 L 195.5 395 L 195.5 394 Z " /><path fill="rgb(0,0,0)" stroke="rgb(0,0,0)" stroke-width="1" opacity="0.796078431372549" d="M 205.5 396 L 208 396.5 L 205.5 397 L 205.5 396 Z " /><path fill="rgb(0,0,0)" stroke="rgb(0,0,0)" stroke-width="1" opacity="0.796078431372549" d="M 210.5 397 L 213 397.5 L 210.5 398 L 210.5 397 Z " /><path fill="rgb(0,0,0)" stroke="rgb(0,0,0)" stroke-width="1" opacity="0.796078431372549" d="M 299.5 397 L 302 397.5 L 299.5 398 L 299.5 397 Z " /><path fill="rgb(0,0,0)" stroke="rgb(0,0,0)" stroke-width="1" opacity="0.796078431372549" d="M 217.5 398 L 220 398.5 L 217.5 399 L 217.5 398 Z " /><path fill="rgb(0,0,0)" stroke="rgb(0,0,0)" stroke-width="1" opacity="0.796078431372549" d="M 292.5 398 L 295 398.5 L 292.5 399 L 292.5 398 Z " /><path fill="rgb(0,0,0)" stroke="rgb(0,0,0)" stroke-width="1" opacity="0.796078431372549" d="M 224.5 399 L 229 399.5 L 224.5 400 L 224.5 399 Z " /><path fill="rgb(0,0,0)" stroke="rgb(0,0,0)" stroke-width="1" opacity="0.796078431372549" d="M 283.5 399 L 288 399.5 L 283.5 400 L 283.5 399 Z " /><path fill="rgb(0,0,0)" stroke="rgb(0,0,0)" stroke-width="1" opacity="0.796078431372549" d="M 235.5 400 L 242 400.5 L 235.5 401 L 235.5 400 Z " /><path fill="rgb(0,0,0)" stroke="rgb(0,0,0)" stroke-width="1" opacity="0.796078431372549" d="M 270.5 400 L 277 400.5 L 270.5 401 L 270.5 400 Z " /><path fill="rgb(0,0,0)" stroke="rgb(0,0,0)" stroke-width="1" opacity="1" d="M 242.5 111 L 269.5 111 L 270.5 112 L 283.5 112 L 284.5 113 L 304.5 115 L 330.5 121 L 359.5 131 Q 419.7 156.3 460 201.5 L 485 233.5 L 495 250.5 L 496 256.5 L 494 263.5 L 480 285.5 Q 463.3 308.8 442.5 328 Q 404.6 363.6 351.5 384 L 326.5 392 L 298.5 398 L 283.5 399 L 282.5 400 L 270.5 400 L 269.5 401 L 242.5 401 L 241.5 400 L 220.5 399 L 193.5 394 Q 166.5 387.5 143.5 377 Q 90.8 352.7 54 312.5 L 32 285.5 L 18 263.5 L 16 255.5 L 19 246.5 L 37 219.5 Q 52.5 199 71.5 182 Q 105.9 150.4 152.5 131 L 197.5 117 L 220.5 113 L 241.5 112 L 242.5 111 Z M 244 156 L 220 162 Q 205 168 194 177 Q 164 199 156 244 L 156 269 L 159 284 Q 165 305 178 320 Q 200 348 244 356 L 269 356 L 284 353 Q 305 347 320 334 Q 348 312 356 269 L 356 244 L 353 229 Q 347 208 335 194 Q 319 173 293 162 L 269 156 L 244 156 Z " /><path fill="rgb(0,0,0)" stroke="rgb(0,0,0)" stroke-width="1" opacity="1" d="M 252.5 188 L 267.5 189 L 281.5 193 Q 298.4 200.1 309 213.5 Q 323.1 229.4 324 258.5 L 323 259.5 L 322 272.5 L 314 291.5 L 298.5 309 Q 287.8 317.8 272.5 322 L 252.5 324 L 251.5 323 L 239.5 322 L 220.5 314 L 203 298.5 Q 194.2 287.8 190 272.5 L 188 252.5 L 189 251.5 L 190 239.5 L 198 220.5 L 213.5 203 L 230.5 193 L 239.5 190 L 251.5 189 L 252.5 188 Z " /></svg>