<svg width="512" height="512" version="1.1" xmlns="http://www.w3.org/2000/svg" desc="Created with imagetracer.js version 1.2.6" ><path fill="rgb(0,0,0)" stroke="rgb(0,0,0)" stroke-width="1" opacity="0" d="M 0 0 L 512 0 L 512 512 L 0 512 L 0 0 Z M 249 13 L 248 14 L 234 15 L 216 20 Q 197 27 183 39 Q 164 54 153 75 L 143 100 L 140 114 L 140 124 L 139 125 Q 139 153 147 173 Q 154 191 166 205 Q 182 223 205 235 L 223 242 L 235 245 L 254 246 L 255 247 L 278 245 L 299 239 Q 317 232 331 220 Q 349 205 360 184 L 369 161 L 372 146 L 372 137 L 373 136 L 372 115 L 369 100 Q 362 74 347 57 Q 329 34 302 22 L 279 15 L 265 14 L 264 13 L 249 13 Z M 173 269 L 152 273 L 128 282 Q 110 291 97 303 Q 80 317 69 337 Q 61 350 56 367 L 51 394 L 51 449 Q 54 466 63 477 L 80 491 L 94 497 L 104 499 L 409 499 L 425 495 L 439 487 Q 456 474 461 448 L 461 394 L 457 371 Q 448 337 427 315 Q 400 283 353 271 L 341 270 L 340 269 L 173 269 Z " /><path fill="rgb(0,0,0)" stroke="rgb(0,0,0)" stroke-width="1" opacity="0" d="M 245.5 39 L 266.5 39 Q 268 41.5 273.5 40 L 292.5 46 Q 314.2 55.8 328 73.5 Q 338.4 86.6 344 104.5 L 347 119.5 L 347 139.5 L 343 158.5 L 337 172.5 Q 327.9 189.4 313.5 201 Q 300 212.5 280.5 218 L 265.5 221 L 246.5 221 L 231.5 218 L 213.5 211 Q 196.7 201.9 185 187.5 Q 174.8 175.3 169 158.5 L 165 139.5 L 165 119.5 Q 171.9 78.4 199.5 58 L 219.5 46 L 230.5 42 L 245.5 39 Z " /><path fill="rgb(0,0,0)" stroke="rgb(0,0,0)" stroke-width="1" opacity="0" d="M 179.5 294 L 332.5 294 L 333.5 295 L 341.5 295 L 358.5 299 L 375.5 306 Q 395 316.5 409 332.5 Q 424.3 350.2 432 375.5 L 435 390.5 L 435 403.5 L 436 404.5 L 436 440.5 Q 433.3 442.2 435 448.5 L 432 456.5 L 421.5 468 L 409.5 473 L 102.5 473 Q 88.8 469.8 82 459.5 L 77 448.5 Q 78.8 442.2 76 440.5 L 76 404.5 L 77 403.5 L 77 390.5 L 79 379.5 L 85 361.5 Q 95.6 337.1 114.5 321 Q 127.8 309.3 145.5 302 L 160.5 297 L 170.5 295 L 178.5 295 L 179.5 294 Z " /><path fill="rgb(0,0,0)" stroke="rgb(0,0,0)" stroke-width="1" opacity="0.4588235294117647" d="M 248.5 13 L 264 13.5 L 248.5 14 L 248.5 13 Z " /><path fill="rgb(0,0,0)" stroke="rgb(0,0,0)" stroke-width="1" opacity="0.4588235294117647" d="M 239.5 14 L 242 14.5 L 239.5 15 L 239.5 14 Z " /><path fill="rgb(0,0,0)" stroke="rgb(0,0,0)" stroke-width="1" opacity="0.4588235294117647" d="M 270.5 14 L 273 14.5 L 270.5 15 L 270.5 14 Z " /><path fill="rgb(0,0,0)" stroke="rgb(0,0,0)" stroke-width="1" opacity="0.4588235294117647" d="M 193.5 31 L 192.5 33 L 193.5 31 Z " /><path fill="rgb(0,0,0)" stroke="rgb(0,0,0)" stroke-width="1" opacity="0.4588235294117647" d="M 318.5 31 L 319.5 33 L 318.5 31 Z " /><path fill="rgb(0,0,0)" stroke="rgb(0,0,0)" stroke-width="1" opacity="0.4588235294117647" d="M 190.5 33 L 189.5 35 L 190.5 33 Z " /><path fill="rgb(0,0,0)" stroke="rgb(0,0,0)" stroke-width="1" opacity="0.4588235294117647" d="M 321.5 33 L 322.5 35 L 321.5 33 Z " /><path fill="rgb(0,0,0)" stroke="rgb(0,0,0)" stroke-width="1" opacity="0.4588235294117647" d="M 251.5 38 L 260 38.5 L 251.5 39 L 251.5 38 Z " /><path fill="rgb(0,0,0)" stroke="rgb(0,0,0)" stroke-width="1" opacity="0.4588235294117647" d="M 182.5 39 L 180.5 42 L 182.5 39 Z " /><path fill="rgb(0,0,0)" stroke="rgb(0,0,0)" stroke-width="1" opacity="0.4588235294117647" d="M 242.5 39 L 245 39.5 L 242.5 40 L 242.5 39 Z " /><path fill="rgb(0,0,0)" stroke="rgb(0,0,0)" stroke-width="1" opacity="0.4588235294117647" d="M 267.5 39 L 270 39.5 L 267.5 40 L 267.5 39 Z " /><path fill="rgb(0,0,0)" stroke="rgb(0,0,0)" stroke-width="1" opacity="0.4588235294117647" d="M 329.5 39 L 331.5 42 L 329.5 39 Z " /><path fill="rgb(0,0,0)" stroke="rgb(0,0,0)" stroke-width="1" opacity="0.4588235294117647" d="M 167.5 54 L 165.5 57 L 167.5 54 Z " /><path fill="rgb(0,0,0)" stroke="rgb(0,0,0)" stroke-width="1" opacity="0.4588235294117647" d="M 344.5 54 L 346.5 57 L 344.5 54 Z " /><path fill="rgb(0,0,0)" stroke="rgb(0,0,0)" stroke-width="1" opacity="0.4588235294117647" d="M 201.5 56 L 200.5 58 L 201.5 56 Z " /><path fill="rgb(0,0,0)" stroke="rgb(0,0,0)" stroke-width="1" opacity="0.4588235294117647" d="M 310.5 56 L 311.5 58 L 310.5 56 Z " /><path fill="rgb(0,0,0)" stroke="rgb(0,0,0)" stroke-width="1" opacity="0.4588235294117647" d="M 196.5 60 L 187.5 70 L 196.5 60 Z " /><path fill="rgb(0,0,0)" stroke="rgb(0,0,0)" stroke-width="1" opacity="0.4588235294117647" d="M 315.5 60 L 325.5 71 L 315.5 60 Z " /><path fill="rgb(0,0,0)" stroke="rgb(0,0,0)" stroke-width="1" opacity="0.4588235294117647" d="M 160.5 63 L 159.5 65 L 160.5 63 Z " /><path fill="rgb(0,0,0)" stroke="rgb(0,0,0)" stroke-width="1" opacity="0.4588235294117647" d="M 351.5 63 L 352.5 65 L 351.5 63 Z " /><path fill="rgb(0,0,0)" stroke="rgb(0,0,0)" stroke-width="1" opacity="0.4588235294117647" d="M 183.5 74 L 182.5 76 L 183.5 74 Z " /><path fill="rgb(0,0,0)" stroke="rgb(0,0,0)" stroke-width="1" opacity="0.4588235294117647" d="M 140.5 113 L 141 115.5 L 140 115.5 L 140.5 113 Z " /><path fill="rgb(0,0,0)" stroke="rgb(0,0,0)" stroke-width="1" opacity="0.4588235294117647" d="M 371.5 114 L 372 116.5 L 371 116.5 L 371.5 114 Z " /><path fill="rgb(0,0,0)" stroke="rgb(0,0,0)" stroke-width="1" opacity="0.4588235294117647" d="M 165.5 116 L 166 118.5 L 165 118.5 L 165.5 116 Z " /><path fill="rgb(0,0,0)" stroke="rgb(0,0,0)" stroke-width="1" opacity="0.4588235294117647" d="M 346.5 116 L 347 118.5 L 346 118.5 L 346.5 116 Z " /><path fill="rgb(0,0,0)" stroke="rgb(0,0,0)" stroke-width="1" opacity="0.4588235294117647" d="M 139.5 124 L 140 135.5 L 139 135.5 L 139.5 124 Z " /><path fill="rgb(0,0,0)" stroke="rgb(0,0,0)" stroke-width="1" opacity="0.4588235294117647" d="M 372.5 124 L 373 135.5 L 372 135.5 L 372.5 124 Z " /><path fill="rgb(0,0,0)" stroke="rgb(0,0,0)" stroke-width="1" opacity="0.4588235294117647" d="M 165.5 140 L 166 142.5 L 165 142.5 L 165.5 140 Z " /><path fill="rgb(0,0,0)" stroke="rgb(0,0,0)" stroke-width="1" opacity="0.4588235294117647" d="M 346.5 140 L 347 142.5 L 346 142.5 L 346.5 140 Z " /><path fill="rgb(0,0,0)" stroke="rgb(0,0,0)" stroke-width="1" opacity="0.4588235294117647" d="M 140.5 143 L 141 145.5 L 140 145.5 L 140.5 143 Z " /><path fill="rgb(0,0,0)" stroke="rgb(0,0,0)" stroke-width="1" opacity="0.4588235294117647" d="M 371.5 143 L 372 145.5 L 371 145.5 L 371.5 143 Z " /><path fill="rgb(0,0,0)" stroke="rgb(0,0,0)" stroke-width="1" opacity="0.4588235294117647" d="M 183.5 185 L 184.5 187 L 183.5 185 Z " /><path fill="rgb(0,0,0)" stroke="rgb(0,0,0)" stroke-width="1" opacity="0.4588235294117647" d="M 328.5 185 L 327.5 187 L 328.5 185 Z " /><path fill="rgb(0,0,0)" stroke="rgb(0,0,0)" stroke-width="1" opacity="0.4588235294117647" d="M 188.5 191 L 194.5 198 L 188.5 191 Z " /><path fill="rgb(0,0,0)" stroke="rgb(0,0,0)" stroke-width="1" opacity="0.4588235294117647" d="M 323.5 191 L 317.5 198 L 323.5 191 Z " /><path fill="rgb(0,0,0)" stroke="rgb(0,0,0)" stroke-width="1" opacity="0.4588235294117647" d="M 162.5 199 L 163.5 201 L 162.5 199 Z " /><path fill="rgb(0,0,0)" stroke="rgb(0,0,0)" stroke-width="1" opacity="0.4588235294117647" d="M 349.5 199 L 348.5 201 L 349.5 199 Z " /><path fill="rgb(0,0,0)" stroke="rgb(0,0,0)" stroke-width="1" opacity="0.4588235294117647" d="M 199.5 201 L 200.5 203 L 199.5 201 Z " /><path fill="rgb(0,0,0)" stroke="rgb(0,0,0)" stroke-width="1" opacity="0.4588235294117647" d="M 312.5 201 L 311.5 203 L 312.5 201 Z " /><path fill="rgb(0,0,0)" stroke="rgb(0,0,0)" stroke-width="1" opacity="0.4588235294117647" d="M 166.5 204 L 168.5 207 L 166.5 204 Z " /><path fill="rgb(0,0,0)" stroke="rgb(0,0,0)" stroke-width="1" opacity="0.4588235294117647" d="M 345.5 204 L 343.5 207 L 345.5 204 Z " /><path fill="rgb(0,0,0)" stroke="rgb(0,0,0)" stroke-width="1" opacity="0.4588235294117647" d="M 179.5 217 L 181.5 220 L 179.5 217 Z " /><path fill="rgb(0,0,0)" stroke="rgb(0,0,0)" stroke-width="1" opacity="0.4588235294117647" d="M 332.5 217 L 330.5 220 L 332.5 217 Z " /><path fill="rgb(0,0,0)" stroke="rgb(0,0,0)" stroke-width="1" opacity="0.4588235294117647" d="M 272.5 219 L 275 219.5 L 272.5 220 L 272.5 219 Z " /><path fill="rgb(0,0,0)" stroke="rgb(0,0,0)" stroke-width="1" opacity="0.4588235294117647" d="M 243.5 220 L 246 220.5 L 243.5 221 L 243.5 220 Z " /><path fill="rgb(0,0,0)" stroke="rgb(0,0,0)" stroke-width="1" opacity="0.4588235294117647" d="M 266.5 220 L 269 220.5 L 266.5 221 L 266.5 220 Z " /><path fill="rgb(0,0,0)" stroke="rgb(0,0,0)" stroke-width="1" opacity="0.4588235294117647" d="M 188.5 224 L 189.5 226 L 188.5 224 Z " /><path fill="rgb(0,0,0)" stroke="rgb(0,0,0)" stroke-width="1" opacity="0.4588235294117647" d="M 240.5 245 L 243 245.5 L 240.5 246 L 240.5 245 Z " /><path fill="rgb(0,0,0)" stroke="rgb(0,0,0)" stroke-width="1" opacity="0.4588235294117647" d="M 254.5 246 L 258 246.5 L 254.5 247 L 254.5 246 Z " /><path fill="rgb(0,0,0)" stroke="rgb(0,0,0)" stroke-width="1" opacity="0.4588235294117647" d="M 172.5 269 L 176 269.5 L 172.5 270 L 172.5 269 Z " /><path fill="rgb(0,0,0)" stroke="rgb(0,0,0)" stroke-width="1" opacity="0.4588235294117647" d="M 336.5 269 L 340 269.5 L 336.5 270 L 336.5 269 Z " /><path fill="rgb(0,0,0)" stroke="rgb(0,0,0)" stroke-width="1" opacity="0.4588235294117647" d="M 116.5 288 L 115.5 290 L 116.5 288 Z " /><path fill="rgb(0,0,0)" stroke="rgb(0,0,0)" stroke-width="1" opacity="0.4588235294117647" d="M 401.5 292 L 402.5 294 L 401.5 292 Z " /><path fill="rgb(0,0,0)" stroke="rgb(0,0,0)" stroke-width="1" opacity="0.4588235294117647" d="M 175.5 294 L 179 294.5 L 175.5 295 L 175.5 294 Z " /><path fill="rgb(0,0,0)" stroke="rgb(0,0,0)" stroke-width="1" opacity="0.4588235294117647" d="M 333.5 294 L 337 294.5 L 333.5 295 L 333.5 294 Z " /><path fill="rgb(0,0,0)" stroke="rgb(0,0,0)" stroke-width="1" opacity="0.4588235294117647" d="M 102.5 298 L 101.5 300 L 102.5 298 Z " /><path fill="rgb(0,0,0)" stroke="rgb(0,0,0)" stroke-width="1" opacity="0.4588235294117647" d="M 409.5 298 L 410.5 300 L 409.5 298 Z " /><path fill="rgb(0,0,0)" stroke="rgb(0,0,0)" stroke-width="1" opacity="0.4588235294117647" d="M 96.5 303 L 85.5 315 L 96.5 303 Z " /><path fill="rgb(0,0,0)" stroke="rgb(0,0,0)" stroke-width="1" opacity="0.4588235294117647" d="M 415.5 303 L 420.5 309 L 415.5 303 Z " /><path fill="rgb(0,0,0)" stroke="rgb(0,0,0)" stroke-width="1" opacity="0.4588235294117647" d="M 422.5 310 L 426.5 315 L 422.5 310 Z " /><path fill="rgb(0,0,0)" stroke="rgb(0,0,0)" stroke-width="1" opacity="0.4588235294117647" d="M 121.5 315 L 120.5 317 L 121.5 315 Z " /><path fill="rgb(0,0,0)" stroke="rgb(0,0,0)" stroke-width="1" opacity="0.4588235294117647" d="M 390.5 315 L 391.5 317 L 390.5 315 Z " /><path fill="rgb(0,0,0)" stroke="rgb(0,0,0)" stroke-width="1" opacity="0.4588235294117647" d="M 117.5 318 L 115.5 321 L 117.5 318 Z " /><path fill="rgb(0,0,0)" stroke="rgb(0,0,0)" stroke-width="1" opacity="0.4588235294117647" d="M 81.5 319 L 80.5 321 L 81.5 319 Z " /><path fill="rgb(0,0,0)" stroke="rgb(0,0,0)" stroke-width="1" opacity="0.4588235294117647" d="M 395.5 319 L 396.5 321 L 395.5 319 Z " /><path fill="rgb(0,0,0)" stroke="rgb(0,0,0)" stroke-width="1" opacity="0.4588235294117647" d="M 430.5 319 L 431.5 321 L 430.5 319 Z " /><path fill="rgb(0,0,0)" stroke="rgb(0,0,0)" stroke-width="1" opacity="0.4588235294117647" d="M 75.5 327 L 74.5 329 L 75.5 327 Z " /><path fill="rgb(0,0,0)" stroke="rgb(0,0,0)" stroke-width="1" opacity="0.4588235294117647" d="M 436.5 327 L 437.5 329 L 436.5 327 Z " /><path fill="rgb(0,0,0)" stroke="rgb(0,0,0)" stroke-width="1" opacity="0.4588235294117647" d="M 102.5 333 L 101.5 335 L 102.5 333 Z " /><path fill="rgb(0,0,0)" stroke="rgb(0,0,0)" stroke-width="1" opacity="0.4588235294117647" d="M 409.5 333 L 410.5 335 L 409.5 333 Z " /><path fill="rgb(0,0,0)" stroke="rgb(0,0,0)" stroke-width="1" opacity="0.4588235294117647" d="M 98.5 338 L 97.5 340 L 98.5 338 Z " /><path fill="rgb(0,0,0)" stroke="rgb(0,0,0)" stroke-width="1" opacity="0.4588235294117647" d="M 52.5 384 L 53 386.5 L 52 386.5 L 52.5 384 Z " /><path fill="rgb(0,0,0)" stroke="rgb(0,0,0)" stroke-width="1" opacity="0.4588235294117647" d="M 459.5 384 L 460 386.5 L 459 386.5 L 459.5 384 Z " /><path fill="rgb(0,0,0)" stroke="rgb(0,0,0)" stroke-width="1" opacity="0.4588235294117647" d="M 77.5 387 L 78 389.5 L 77 389.5 L 77.5 387 Z " /><path fill="rgb(0,0,0)" stroke="rgb(0,0,0)" stroke-width="1" opacity="0.4588235294117647" d="M 434.5 387 L 435 389.5 L 434 389.5 L 434.5 387 Z " /><path fill="rgb(0,0,0)" stroke="rgb(0,0,0)" stroke-width="1" opacity="0.4588235294117647" d="M 51.5 393 L 52 397.5 L 51 397.5 L 51.5 393 Z " /><path fill="rgb(0,0,0)" stroke="rgb(0,0,0)" stroke-width="1" opacity="0.4588235294117647" d="M 460.5 393 L 461 397.5 L 460 397.5 L 460.5 393 Z " /><path fill="rgb(0,0,0)" stroke="rgb(0,0,0)" stroke-width="1" opacity="0.4588235294117647" d="M 76.5 396 L 77 403.5 L 76 403.5 L 76.5 396 Z " /><path fill="rgb(0,0,0)" stroke="rgb(0,0,0)" stroke-width="1" opacity="0.4588235294117647" d="M 435.5 396 L 436 403.5 L 435 403.5 L 435.5 396 Z " /><path fill="rgb(0,0,0)" stroke="rgb(0,0,0)" stroke-width="1" opacity="0.4588235294117647" d="M 76.5 441 L 77 445.5 L 76 445.5 L 76.5 441 Z " /><path fill="rgb(0,0,0)" stroke="rgb(0,0,0)" stroke-width="1" opacity="0.4588235294117647" d="M 435.5 441 L 436 445.5 L 435 445.5 L 435.5 441 Z " /><path fill="rgb(0,0,0)" stroke="rgb(0,0,0)" stroke-width="1" opacity="0.4588235294117647" d="M 51.5 445 L 52 448.5 L 51 448.5 L 51.5 445 Z " /><path fill="rgb(0,0,0)" stroke="rgb(0,0,0)" stroke-width="1" opacity="0.4588235294117647" d="M 460.5 445 L 461 447.5 L 460 447.5 L 460.5 445 Z " /><path fill="rgb(0,0,0)" stroke="rgb(0,0,0)" stroke-width="1" opacity="0.4588235294117647" d="M 83.5 461 L 87.5 466 L 83.5 461 Z " /><path fill="rgb(0,0,0)" stroke="rgb(0,0,0)" stroke-width="1" opacity="0.4588235294117647" d="M 428.5 461 L 424.5 466 L 428.5 461 Z " /><path fill="rgb(0,0,0)" stroke="rgb(0,0,0)" stroke-width="1" opacity="0.4588235294117647" d="M 107.5 473 L 405 473.5 L 107.5 474 L 107.5 473 Z " /><path fill="rgb(0,0,0)" stroke="rgb(0,0,0)" stroke-width="1" opacity="0.4588235294117647" d="M 448.5 476 L 447.5 478 L 448.5 476 Z " /><path fill="rgb(0,0,0)" stroke="rgb(0,0,0)" stroke-width="1" opacity="0.4588235294117647" d="M 72.5 485 L 73.5 487 L 72.5 485 Z " /><path fill="rgb(0,0,0)" stroke="rgb(0,0,0)" stroke-width="1" opacity="0.4588235294117647" d="M 439.5 485 L 438.5 487 L 439.5 485 Z " /><path fill="rgb(0,0,0)" stroke="rgb(0,0,0)" stroke-width="1" opacity="0.4588235294117647" d="M 103.5 498 L 409 498.5 L 103.5 499 L 103.5 498 Z " /><path fill="rgb(0,0,0)" stroke="rgb(0,0,0)" stroke-width="1" opacity="0.7529411764705882" d="M 185.5 37 L 184.5 39 L 185.5 37 Z " /><path fill="rgb(0,0,0)" stroke="rgb(0,0,0)" stroke-width="1" opacity="0.7529411764705882" d="M 326.5 37 L 327.5 39 L 326.5 37 Z " /><path fill="rgb(0,0,0)" stroke="rgb(0,0,0)" stroke-width="1" opacity="0.7529411764705882" d="M 248.5 38 L 251 38.5 L 248.5 39 L 248.5 38 Z " /><path fill="rgb(0,0,0)" stroke="rgb(0,0,0)" stroke-width="1" opacity="0.7529411764705882" d="M 260.5 38 L 264 38.5 L 260.5 39 L 260.5 38 Z " /><path fill="rgb(0,0,0)" stroke="rgb(0,0,0)" stroke-width="1" opacity="0.7529411764705882" d="M 179.5 42 L 177.5 45 L 179.5 42 Z " /><path fill="rgb(0,0,0)" stroke="rgb(0,0,0)" stroke-width="1" opacity="0.7529411764705882" d="M 332.5 42 L 334.5 45 L 332.5 42 Z " /><path fill="rgb(0,0,0)" stroke="rgb(0,0,0)" stroke-width="1" opacity="0.7529411764705882" d="M 170.5 51 L 168.5 54 L 170.5 51 Z " /><path fill="rgb(0,0,0)" stroke="rgb(0,0,0)" stroke-width="1" opacity="0.7529411764705882" d="M 341.5 51 L 343.5 54 L 341.5 51 Z " /><path fill="rgb(0,0,0)" stroke="rgb(0,0,0)" stroke-width="1" opacity="0.7529411764705882" d="M 164.5 58 L 163.5 60 L 164.5 58 Z " /><path fill="rgb(0,0,0)" stroke="rgb(0,0,0)" stroke-width="1" opacity="0.7529411764705882" d="M 198.5 58 L 197.5 60 L 198.5 58 Z " /><path fill="rgb(0,0,0)" stroke="rgb(0,0,0)" stroke-width="1" opacity="0.7529411764705882" d="M 313.5 58 L 314.5 60 L 313.5 58 Z " /><path fill="rgb(0,0,0)" stroke="rgb(0,0,0)" stroke-width="1" opacity="0.7529411764705882" d="M 347.5 58 L 348.5 60 L 347.5 58 Z " /><path fill="rgb(0,0,0)" stroke="rgb(0,0,0)" stroke-width="1" opacity="0.7529411764705882" d="M 186.5 70 L 184.5 73 L 186.5 70 Z " /><path fill="rgb(0,0,0)" stroke="rgb(0,0,0)" stroke-width="1" opacity="0.7529411764705882" d="M 326.5 71 L 327.5 73 L 326.5 71 Z " /><path fill="rgb(0,0,0)" stroke="rgb(0,0,0)" stroke-width="1" opacity="0.7529411764705882" d="M 329.5 75 L 330.5 77 L 329.5 75 Z " /><path fill="rgb(0,0,0)" stroke="rgb(0,0,0)" stroke-width="1" opacity="0.7529411764705882" d="M 140.5 116 L 141 118.5 L 140 118.5 L 140.5 116 Z " /><path fill="rgb(0,0,0)" stroke="rgb(0,0,0)" stroke-width="1" opacity="0.7529411764705882" d="M 164.5 123 L 165 136.5 L 164 136.5 L 164.5 123 Z " /><path fill="rgb(0,0,0)" stroke="rgb(0,0,0)" stroke-width="1" opacity="0.7529411764705882" d="M 347.5 123 L 348 136.5 L 347 136.5 L 347.5 123 Z " /><path fill="rgb(0,0,0)" stroke="rgb(0,0,0)" stroke-width="1" opacity="0.7529411764705882" d="M 185.5 188 L 187.5 191 L 185.5 188 Z " /><path fill="rgb(0,0,0)" stroke="rgb(0,0,0)" stroke-width="1" opacity="0.7529411764705882" d="M 326.5 188 L 324.5 191 L 326.5 188 Z " /><path fill="rgb(0,0,0)" stroke="rgb(0,0,0)" stroke-width="1" opacity="0.7529411764705882" d="M 195.5 198 L 197.5 201 L 195.5 198 Z " /><path fill="rgb(0,0,0)" stroke="rgb(0,0,0)" stroke-width="1" opacity="0.7529411764705882" d="M 316.5 198 L 314.5 201 L 316.5 198 Z " /><path fill="rgb(0,0,0)" stroke="rgb(0,0,0)" stroke-width="1" opacity="0.7529411764705882" d="M 164.5 201 L 165.5 203 L 164.5 201 Z " /><path fill="rgb(0,0,0)" stroke="rgb(0,0,0)" stroke-width="1" opacity="0.7529411764705882" d="M 347.5 201 L 346.5 203 L 347.5 201 Z " /><path fill="rgb(0,0,0)" stroke="rgb(0,0,0)" stroke-width="1" opacity="0.7529411764705882" d="M 169.5 207 L 178.5 217 L 169.5 207 Z " /><path fill="rgb(0,0,0)" stroke="rgb(0,0,0)" stroke-width="1" opacity="0.7529411764705882" d="M 342.5 207 L 333.5 217 L 342.5 207 Z " /><path fill="rgb(0,0,0)" stroke="rgb(0,0,0)" stroke-width="1" opacity="0.7529411764705882" d="M 183.5 220 L 184.5 222 L 183.5 220 Z " /><path fill="rgb(0,0,0)" stroke="rgb(0,0,0)" stroke-width="1" opacity="0.7529411764705882" d="M 328.5 220 L 327.5 222 L 328.5 220 Z " /><path fill="rgb(0,0,0)" stroke="rgb(0,0,0)" stroke-width="1" opacity="0.7529411764705882" d="M 251.5 221 L 261 221.5 L 251.5 222 L 251.5 221 Z " /><path fill="rgb(0,0,0)" stroke="rgb(0,0,0)" stroke-width="1" opacity="0.7529411764705882" d="M 324.5 223 L 323.5 225 L 324.5 223 Z " /><path fill="rgb(0,0,0)" stroke="rgb(0,0,0)" stroke-width="1" opacity="0.7529411764705882" d="M 243.5 245 L 246 245.5 L 243.5 246 L 243.5 245 Z " /><path fill="rgb(0,0,0)" stroke="rgb(0,0,0)" stroke-width="1" opacity="0.7529411764705882" d="M 265.5 245 L 269 245.5 L 265.5 246 L 265.5 245 Z " /><path fill="rgb(0,0,0)" stroke="rgb(0,0,0)" stroke-width="1" opacity="0.7529411764705882" d="M 176.5 269 L 180 269.5 L 176.5 270 L 176.5 269 Z " /><path fill="rgb(0,0,0)" stroke="rgb(0,0,0)" stroke-width="1" opacity="0.7529411764705882" d="M 332.5 269 L 336 269.5 L 332.5 270 L 332.5 269 Z " /><path fill="rgb(0,0,0)" stroke="rgb(0,0,0)" stroke-width="1" opacity="0.7529411764705882" d="M 109.5 293 L 108.5 295 L 109.5 293 Z " /><path fill="rgb(0,0,0)" stroke="rgb(0,0,0)" stroke-width="1" opacity="0.7529411764705882" d="M 406.5 296 L 407.5 298 L 406.5 296 Z " /><path fill="rgb(0,0,0)" stroke="rgb(0,0,0)" stroke-width="1" opacity="0.7529411764705882" d="M 100.5 300 L 99.5 302 L 100.5 300 Z " /><path fill="rgb(0,0,0)" stroke="rgb(0,0,0)" stroke-width="1" opacity="0.7529411764705882" d="M 411.5 300 L 412.5 302 L 411.5 300 Z " /><path fill="rgb(0,0,0)" stroke="rgb(0,0,0)" stroke-width="1" opacity="0.7529411764705882" d="M 83.5 317 L 82.5 319 L 83.5 317 Z " /><path fill="rgb(0,0,0)" stroke="rgb(0,0,0)" stroke-width="1" opacity="0.7529411764705882" d="M 393.5 317 L 394.5 319 L 393.5 317 Z " /><path fill="rgb(0,0,0)" stroke="rgb(0,0,0)" stroke-width="1" opacity="0.7529411764705882" d="M 428.5 317 L 429.5 319 L 428.5 317 Z " /><path fill="rgb(0,0,0)" stroke="rgb(0,0,0)" stroke-width="1" opacity="0.7529411764705882" d="M 79.5 322 L 78.5 324 L 79.5 322 Z " /><path fill="rgb(0,0,0)" stroke="rgb(0,0,0)" stroke-width="1" opacity="0.7529411764705882" d="M 112.5 322 L 104.5 331 L 112.5 322 Z " /><path fill="rgb(0,0,0)" stroke="rgb(0,0,0)" stroke-width="1" opacity="0.7529411764705882" d="M 399.5 322 L 407.5 331 L 399.5 322 Z " /><path fill="rgb(0,0,0)" stroke="rgb(0,0,0)" stroke-width="1" opacity="0.7529411764705882" d="M 432.5 322 L 433.5 324 L 432.5 322 Z " /><path fill="rgb(0,0,0)" stroke="rgb(0,0,0)" stroke-width="1" opacity="0.7529411764705882" d="M 100.5 335 L 99.5 337 L 100.5 335 Z " /><path fill="rgb(0,0,0)" stroke="rgb(0,0,0)" stroke-width="1" opacity="0.7529411764705882" d="M 411.5 335 L 412.5 337 L 411.5 335 Z " /><path fill="rgb(0,0,0)" stroke="rgb(0,0,0)" stroke-width="1" opacity="0.7529411764705882" d="M 414.5 339 L 415.5 341 L 414.5 339 Z " /><path fill="rgb(0,0,0)" stroke="rgb(0,0,0)" stroke-width="1" opacity="0.7529411764705882" d="M 76.5 393 L 77 395.5 L 76 395.5 L 76.5 393 Z " /><path fill="rgb(0,0,0)" stroke="rgb(0,0,0)" stroke-width="1" opacity="0.7529411764705882" d="M 435.5 393 L 436 395.5 L 435 395.5 L 435.5 393 Z " /><path fill="rgb(0,0,0)" stroke="rgb(0,0,0)" stroke-width="1" opacity="0.7529411764705882" d="M 51.5 398 L 52 444.5 L 51 444.5 L 51.5 398 Z " /><path fill="rgb(0,0,0)" stroke="rgb(0,0,0)" stroke-width="1" opacity="0.7529411764705882" d="M 460.5 398 L 461 444.5 L 460 444.5 L 460.5 398 Z " /><path fill="rgb(0,0,0)" stroke="rgb(0,0,0)" stroke-width="1" opacity="0.7529411764705882" d="M 88.5 466 L 89.5 468 L 88.5 466 Z " /><path fill="rgb(0,0,0)" stroke="rgb(0,0,0)" stroke-width="1" opacity="0.7529411764705882" d="M 423.5 466 L 422.5 468 L 423.5 466 Z " /><path fill="rgb(0,0,0)" stroke="rgb(0,0,0)" stroke-width="1" opacity="0.7529411764705882" d="M 61.5 473 L 62.5 475 L 61.5 473 Z " /><path fill="rgb(0,0,0)" stroke="rgb(0,0,0)" stroke-width="1" opacity="0.7529411764705882" d="M 104.5 473 L 107 473.5 L 104.5 474 L 104.5 473 Z " /><path fill="rgb(0,0,0)" stroke="rgb(0,0,0)" stroke-width="1" opacity="0.7529411764705882" d="M 405.5 473 L 408 473.5 L 405.5 474 L 405.5 473 Z " /><path fill="rgb(0,0,0)" stroke="rgb(0,0,0)" stroke-width="1" opacity="0.7529411764705882" d="M 450.5 473 L 449.5 475 L 450.5 473 Z " /><path fill="rgb(0,0,0)" stroke="rgb(0,0,0)" stroke-width="1" opacity="0.7529411764705882" d="M 64.5 477 L 71.5 485 L 64.5 477 Z " /><path fill="rgb(0,0,0)" stroke="rgb(0,0,0)" stroke-width="1" opacity="0.7529411764705882" d="M 446.5 478 L 440.5 485 L 446.5 478 Z " /><path fill="rgb(0,0,0)" stroke="rgb(0,0,0)" stroke-width="1" opacity="0.996078431372549" d="M 244.5 14 L 267.5 14 L 268.5 15 L 280.5 16 L 294.5 20 Q 322.6 30.4 341 50.5 Q 355.3 65.7 364 86.5 L 371 111.5 L 372 140.5 L 368 161.5 Q 363.7 177.2 356 189.5 Q 345.1 207.1 329.5 220 Q 312 234.5 287.5 242 L 264.5 246 L 246.5 246 L 224.5 242 L 198.5 231 Q 179.5 220 166 203.5 Q 151.3 186.2 144 161.5 L 140 140.5 L 140 119.5 L 141 118.5 L 141 111.5 L 143 101.5 L 151 79.5 Q 161.1 59.6 176.5 45 Q 189 33 205.5 25 L 227.5 17 L 244.5 14 Z M 249 38 L 248 39 L 236 40 L 223 44 Q 209 50 199 58 Q 186 68 177 83 L 168 103 L 164 124 L 164 137 L 168 158 Q 174 175 185 189 Q 196 202 213 211 L 233 219 L 242 221 L 251 221 L 252 222 L 271 221 L 289 216 Q 303 210 315 201 Q 327 190 336 176 L 344 158 L 348 137 L 348 124 L 344 103 Q 338 85 328 73 Q 313 54 290 44 L 272 39 L 249 38 Z " /><path fill="rgb(0,0,0)" stroke="rgb(0,0,0)" stroke-width="1" opacity="0.996078431372549" d="M 180.5 269 L 331.5 269 L 332.5 270 L 348.5 271 Q 373.6 275.9 392.5 287 Q 413 299 428 316.5 Q 449.6 340.4 458 377.5 L 459 388.5 L 460 389.5 L 460 450.5 Q 454.7 474.7 437.5 487 L 425.5 494 L 410.5 498 L 101.5 498 Q 75.5 493.5 63 475.5 Q 54.8 465.7 52 450.5 L 52 389.5 L 57 365.5 L 68 339.5 Q 80.2 317.7 98.5 302 Q 113.6 288.6 133.5 280 L 158.5 272 L 169.5 270 L 179.5 270 L 180.5 269 Z M 174 294 L 155 298 L 142 303 Q 125 311 113 322 Q 98 335 88 354 L 80 374 L 76 394 L 76 447 L 82 461 Q 89 471 105 474 L 408 474 Q 417 473 423 468 Q 433 461 436 447 L 436 394 L 435 393 L 434 382 Q 427 350 408 331 Q 384 302 339 294 L 174 294 Z " /></svg>