<?xml version="1.0" standalone="no"?>
<!DOCTYPE svg PUBLIC "-//W3C//DTD SVG 20010904//EN"
 "http://www.w3.org/TR/2001/REC-SVG-20010904/DTD/svg10.dtd">
<svg version="1.0" xmlns="http://www.w3.org/2000/svg"
 width="400.000000pt" height="400.000000pt" viewBox="0 0 400.000000 400.000000"
 preserveAspectRatio="xMidYMid meet">

<g transform="translate(0.000000,400.000000) scale(0.100000,-0.100000)"
fill="#000000" stroke="none">
<path d="M2265 3434 c-157 -53 -182 -57 -399 -62 -115 -2 -288 1 -385 7 -113
6 -201 7 -246 1 -38 -5 -133 -10 -210 -10 -147 0 -182 -9 -169 -44 5 -12 0
-16 -22 -16 -15 0 -41 -4 -58 -10 -17 -5 -51 -13 -75 -17 -25 -4 -46 -14 -49
-22 -4 -12 9 -13 72 -8 69 6 77 5 74 -11 -2 -13 5 -17 32 -18 69 -2 78 -5 48
-16 -34 -12 -36 -24 -5 -32 23 -6 51 -52 41 -68 -3 -4 -21 -15 -40 -23 -35
-14 -45 -34 -19 -36 8 -1 18 -3 23 -4 4 -2 17 -6 30 -10 16 -5 21 -13 17 -26
-4 -11 -2 -19 4 -19 45 0 -45 -50 -126 -70 -58 -15 -55 -32 5 -29 75 4 114 0
107 -11 -15 -24 115 -41 154 -20 13 6 38 5 75 -2 51 -11 56 -15 56 -38 0 -20
-9 -31 -37 -45 -29 -14 -34 -19 -20 -23 17 -4 17 -4 1 -16 -19 -14 -12 -36 12
-36 8 0 14 -4 14 -10 0 -6 -41 -10 -102 -10 -120 -1 -321 -10 -327 -16 -2 -2
18 -4 45 -4 64 0 303 -28 317 -37 24 -14 -42 -21 -228 -23 -260 -3 -379 -16
-164 -18 l156 -2 -48 -94 c-100 -193 -143 -374 -143 -601 0 -359 124 -668 370
-925 350 -364 857 -497 1349 -355 479 139 848 560 931 1064 24 150 16 388 -20
529 -84 334 -282 614 -564 799 -91 60 -217 122 -304 149 -58 18 -68 34 -20 34
60 0 131 74 118 124 -3 12 -27 38 -53 58 -26 20 -61 50 -77 67 -35 37 -49 37
-141 5z m138 -338 c124 -41 203 -79 313 -152 218 -144 396 -368 487 -614 107
-288 110 -571 10 -869 -34 -103 -108 -245 -165 -320 l-19 -25 7 44 c5 31 4 41
-4 36 -7 -4 -12 -19 -12 -34 0 -52 -7 -55 -136 -50 -71 3 -136 12 -161 21 -40
15 -41 15 -47 -6 -12 -46 -6 -58 37 -77 32 -15 65 -20 140 -20 54 0 97 -4 97
-9 0 -15 -150 -144 -231 -198 -217 -147 -440 -213 -715 -213 -344 0 -646 124
-889 364 -134 133 -223 263 -286 421 -148 370 -130 734 54 1088 l50 97 81 0
c104 0 141 -19 41 -21 l-70 -1 55 -13 c30 -7 51 -13 45 -14 -5 -1 -4 -5 3 -10
7 -4 36 -4 63 1 40 7 52 6 65 -7 14 -14 12 -19 -20 -56 -47 -55 -71 -108 -57
-122 20 -20 11 -27 -41 -29 l-53 -2 52 -3 c51 -4 56 -7 123 -76 60 -62 70 -77
70 -108 0 -37 13 -60 44 -77 16 -8 11 -11 -33 -21 -29 -6 -60 -11 -70 -11 -26
0 -34 -28 -17 -54 10 -16 11 -27 4 -40 -8 -14 -4 -24 17 -46 15 -16 33 -26 40
-24 17 7 39 -58 30 -88 -4 -14 -3 -18 2 -11 6 8 32 -57 73 -185 66 -207 86
-242 136 -242 22 0 23 -2 14 -20 -6 -11 -15 -18 -20 -15 -6 3 -8 0 -5 -7 3 -7
-5 -24 -16 -38 -11 -14 -17 -19 -13 -11 4 9 3 12 -4 7 -6 -4 -8 -14 -5 -23 4
-10 2 -14 -4 -10 -6 4 -10 -1 -9 -11 0 -9 -5 -16 -12 -14 -8 1 -10 -2 -7 -8 4
-6 -11 -28 -34 -49 -45 -41 -52 -71 -25 -109 22 -32 67 -29 94 5 20 26 21 37
6 73 -4 10 9 41 34 79 36 56 43 61 57 49 14 -11 16 -11 9 1 -6 9 -5 12 5 9 8
-3 13 -10 12 -16 -1 -6 37 -34 85 -63 48 -28 98 -59 112 -68 18 -12 22 -13 15
-2 -6 11 -4 13 8 8 24 -9 21 0 -4 14 -17 8 -20 8 -14 -1 5 -8 3 -11 -6 -8 -8
3 -13 10 -12 16 3 14 -195 134 -208 127 -14 -9 -11 11 4 23 9 8 47 -11 142
-69 273 -167 276 -170 230 -191 -13 -6 -31 -26 -40 -45 -20 -41 -8 -86 28
-116 17 -15 18 -18 4 -13 -11 3 -16 2 -12 -4 7 -12 -25 -13 -42 -2 -7 4 -16
19 -22 32 -7 18 -10 20 -10 8 -1 -22 33 -58 54 -58 16 0 61 22 107 53 38 26
46 71 19 108 -12 15 -21 36 -21 46 0 10 -7 29 -16 42 -9 12 -12 26 -8 30 20
17 135 101 138 101 11 0 15 -34 5 -46 -15 -19 -29 -18 -29 2 0 8 -5 12 -10 9
-6 -4 -7 -12 -3 -18 4 -7 8 -30 9 -52 4 -67 5 -70 40 -72 25 -2 38 4 58 28 32
38 32 50 1 87 -14 17 -25 36 -25 43 -1 21 -31 53 -72 78 -21 13 -38 26 -38 29
0 4 34 29 75 56 41 28 75 53 75 58 0 4 -45 -24 -99 -62 -103 -73 -118 -78
-194 -61 -23 5 -69 14 -102 20 -340 61 -352 64 -360 94 -4 12 -38 118 -76 236
-39 117 -68 216 -65 219 3 3 24 0 47 -7 22 -7 43 -10 46 -8 2 3 -22 13 -54 22
-32 9 -63 21 -70 26 -7 7 -13 5 -15 -3 -3 -7 -13 4 -23 25 -10 21 -15 41 -11
45 11 10 41 -14 40 -32 -1 -12 2 -13 18 -5 12 7 18 7 14 1 -3 -5 13 -15 37
-21 23 -6 102 -27 175 -46 74 -19 138 -33 143 -29 5 3 9 14 9 25 0 12 7 19 19
19 11 0 22 4 25 9 3 4 -5 6 -18 4 -17 -4 -25 0 -29 14 -4 15 -5 14 -6 -4 -1
-14 -8 -23 -18 -24 -17 -1 -17 -2 0 -6 9 -2 17 -11 17 -20 0 -10 -6 -13 -16
-9 -9 3 -23 6 -32 6 -15 0 -15 2 -2 11 12 9 11 10 -7 6 -20 -4 -23 -1 -25 26
l-1 32 -4 -31 -4 -31 -119 31 c-65 17 -118 32 -116 33 1 1 81 16 177 32 179
31 289 42 289 29 0 -12 104 -38 130 -32 16 4 21 3 12 -3 -17 -13 85 -44 118
-37 16 4 20 2 13 -3 -14 -10 159 -64 192 -60 15 1 21 -5 23 -24 3 -24 -6 -30
-121 -87 -69 -34 -130 -62 -136 -62 -6 0 -66 16 -132 36 -67 19 -123 33 -126
31 -2 -3 22 -13 54 -22 32 -9 85 -24 118 -34 l60 -17 6 -80 c3 -43 6 -64 7
-46 1 17 4 32 6 32 2 0 11 3 20 6 12 5 16 0 16 -18 0 -13 -5 -29 -12 -36 -7
-7 -8 -12 -2 -12 13 0 6 -60 -8 -77 -7 -9 -7 -13 1 -13 6 0 11 -10 12 -22 l0
-23 10 23 c5 13 7 27 5 31 -2 3 11 16 30 29 22 15 34 18 34 10 0 -7 6 -4 12 7
7 11 11 35 9 53 -2 23 3 38 16 48 17 13 17 14 -2 7 -11 -4 -33 -15 -50 -25
-39 -24 -45 -23 -45 7 0 19 8 28 36 40 45 18 42 19 47 -2 4 -13 5 -12 6 5 0
12 8 25 16 28 11 5 12 9 2 19 -10 10 -13 9 -19 -6 -4 -10 -26 -23 -50 -31 -24
-7 -49 -18 -56 -25 -22 -22 -33 -15 -30 20 3 30 10 36 113 89 61 32 114 57
118 58 4 0 5 -24 3 -52 l-6 -53 13 55 c7 30 21 67 30 81 10 14 15 33 11 42 -8
21 -90 48 -123 41 -18 -4 -22 -3 -12 4 19 14 -18 25 -56 17 -19 -5 -24 -4 -15
3 11 7 8 11 -11 16 -14 3 -33 3 -43 -1 -10 -4 -15 -2 -11 4 8 13 -92 44 -123
37 -18 -4 -21 -3 -12 4 11 7 8 11 -13 16 -14 4 -30 4 -35 1 -6 -4 -10 -2 -10
3 0 5 -20 15 -46 22 -37 11 -46 18 -51 41 -4 21 -14 31 -39 39 -19 7 -34 16
-34 21 0 5 -15 8 -32 8 -20 -1 -25 -3 -13 -6 45 -10 51 -15 30 -23 -11 -5 -15
-9 -8 -9 8 -1 8 -8 0 -31 -13 -36 -32 -40 -23 -6 4 15 0 28 -9 36 -9 8 -15 8
-15 2 0 -6 6 -12 13 -15 19 -6 -11 -37 -36 -37 -20 0 -20 1 -2 13 23 17 13 34
-24 42 -39 8 -65 38 -56 65 6 18 12 20 33 15 15 -4 29 -11 30 -16 2 -5 13 -14
25 -20 l22 -12 -21 24 c-30 33 -46 67 -38 80 3 6 -2 19 -11 29 -16 18 -15 21
13 62 17 24 36 49 44 55 7 6 60 14 118 18 309 23 315 24 438 106 57 37 84 49
105 46 15 -2 27 0 27 4 0 13 -61 59 -78 59 -9 -1 -1 -8 18 -18 l35 -16 -43 -4
c-34 -2 -41 -6 -33 -16 9 -10 -3 -23 -48 -55 -33 -23 -77 -48 -99 -55 -37 -13
-231 -32 -204 -20 6 3 10 10 6 15 -8 14 -24 11 -24 -6 0 -8 -5 -15 -10 -15
-12 0 4 35 20 45 14 9 12 62 -2 68 -7 3 -3 6 8 6 26 1 34 18 23 46 -8 21 -14
6 -9 -25 1 -10 -2 -12 -9 -5 -17 17 -1 57 20 52 11 -3 28 5 44 20 27 28 31 38
15 48 -17 11 -11 23 9 18 13 -3 21 1 25 14 5 16 17 18 118 17 117 0 171 -14
161 -40 -3 -8 -11 -14 -19 -14 -8 0 -14 -5 -14 -10 0 -6 13 -4 30 5 28 15 30
14 47 -12 13 -19 18 -46 17 -91 0 -37 3 -58 7 -50 14 22 10 98 -7 134 -27 56
-63 75 -186 99 -36 7 -58 50 -58 112 0 51 27 112 87 196 37 53 127 127 153
127 11 0 66 -15 123 -34z m-508 -506 c-20 -22 -39 -27 -32 -7 2 6 9 12 15 12
5 0 14 3 18 8 17 16 16 6 -1 -13z m-90 -120 c3 -5 1 -10 -4 -10 -6 0 -11 5
-11 10 0 6 2 10 4 10 3 0 8 -4 11 -10z m10 -39 c-3 -6 -11 -11 -16 -11 -5 0
-4 6 3 14 14 16 24 13 13 -3z m-435 -111 c-24 -47 -25 -60 -4 -60 11 0 13 -6
9 -19 -6 -20 7 -34 35 -38 8 -1 28 -16 43 -33 23 -26 27 -38 22 -62 -5 -21 -2
-35 11 -49 22 -24 13 -24 -35 0 -61 31 -107 90 -116 147 -4 27 -12 55 -18 63
-9 10 -7 16 6 26 9 7 17 17 17 23 0 9 37 42 47 42 2 0 -6 -18 -17 -40z m-4
-209 c16 -22 38 -45 50 -51 19 -11 22 -23 15 -62 0 -5 -8 -8 -17 -8 -13 0 -14
3 -4 15 10 12 7 20 -14 46 -30 36 -36 24 -6 -14 l20 -26 -22 -15 c-29 -21 -44
-20 -27 0 12 14 9 21 -24 48 -27 22 -39 42 -44 69 -5 34 -4 37 19 37 17 0 33
-12 54 -39z m107 -97 c-9 -23 -23 -16 -23 12 0 22 2 24 14 14 8 -6 12 -18 9
-26z m247 5 c0 -4 -6 -9 -14 -12 -15 -6 -50 26 -40 36 7 7 54 -13 54 -24z
m-15 -31 c18 -4 17 -5 -5 -11 -14 -4 -108 -20 -209 -37 -174 -28 -185 -29
-197 -12 -26 34 -5 64 34 46 9 -4 22 -6 27 -4 6 1 21 3 35 5 14 1 32 5 40 8
38 13 84 16 97 6 32 -27 153 -14 136 15 -5 8 -3 8 8 0 8 -7 23 -14 34 -16z
m425 -490 c0 -27 -7 -37 -35 -55 -19 -13 -36 -23 -38 -23 -1 0 -1 17 1 39 3
31 10 41 35 54 18 9 33 16 35 16 1 1 2 -14 2 -31z m-315 -232 c99 -19 184 -30
189 -26 4 4 24 -1 42 -12 l35 -20 -70 -49 c-38 -27 -74 -49 -81 -49 -6 0 -73
38 -148 84 -76 45 -146 88 -157 94 -30 17 -8 15 190 -22z m-154 -92 c57 -36
81 -56 38 -33 -41 22 -113 69 -105 69 4 0 35 -16 67 -36z m94 -62 c-3 -3 -11
0 -18 7 -9 10 -8 11 6 5 10 -3 15 -9 12 -12z"/>
<path d="M2740 2692 l-95 -89 50 -54 c28 -30 62 -70 76 -89 l26 -35 49 18 c27
9 52 17 56 17 4 0 16 -30 28 -66 27 -90 28 -243 0 -334 -11 -36 -20 -72 -20
-80 0 -12 26 -19 119 -33 66 -9 127 -20 135 -23 23 -9 36 29 43 121 l6 85 -69
0 -69 0 0 113 c0 92 -5 125 -24 182 -40 119 -103 228 -182 318 l-34 38 -95
-89z"/>
<path d="M2076 2605 c10 -8 37 -15 58 -15 37 0 39 1 20 15 -10 8 -37 15 -58
15 -37 0 -39 -1 -20 -15z"/>
<path d="M2582 2552 c-31 -26 -32 -29 -17 -42 18 -15 88 -112 126 -175 l24
-40 -27 20 c-14 11 -59 47 -99 81 -97 80 -113 88 -141 73 -47 -24 -49 -29 -24
-63 70 -94 119 -215 137 -340 l11 -74 40 -4 c23 -2 43 1 49 8 11 14 -7 166
-23 198 -7 13 -7 16 1 11 20 -12 87 -109 116 -165 33 -65 38 -70 89 -70 l39 0
-5 98 c-7 117 -43 224 -115 341 -44 70 -128 171 -142 171 -3 0 -21 -13 -39
-28z"/>
<path d="M2140 2550 c-18 -12 -2 -12 25 0 13 6 15 9 5 9 -8 0 -22 -4 -30 -9z"/>
<path d="M2210 2382 c-20 -11 -44 -37 -58 -63 -32 -59 -26 -125 17 -214 43
-87 98 -125 180 -125 100 0 161 60 161 158 0 155 -186 306 -300 244z m145
-135 c60 -60 58 -157 -3 -157 -53 0 -112 66 -112 125 0 72 59 88 115 32z"/>
<path d="M1093 2383 c9 -2 23 -2 30 0 6 3 -1 5 -18 5 -16 0 -22 -2 -12 -5z"/>
<path d="M948 2333 c18 -2 45 -2 60 0 15 2 0 4 -33 4 -33 0 -45 -2 -27 -4z"/>
<path d="M1890 2309 c-38 -16 -78 -58 -85 -90 -10 -43 12 -131 46 -183 89
-141 289 -87 289 78 0 58 -6 64 -58 59 -65 -7 -122 -22 -122 -33 0 -5 4 -20 9
-33 8 -20 15 -23 40 -19 32 4 40 -5 19 -26 -33 -33 -100 5 -119 68 -10 33 -9
43 5 65 19 29 66 34 87 9 10 -12 25 -15 57 -11 53 6 58 11 44 42 -26 58 -149
101 -212 74z"/>
<path d="M1160 1942 c0 -20 18 -42 35 -42 5 0 2 5 -7 11 -10 5 -18 16 -18 24
0 7 8 16 18 18 13 4 11 5 -5 6 -16 1 -23 -5 -23 -17z"/>
<path d="M1743 1855 c0 -38 2 -53 4 -32 2 20 2 52 0 70 -2 17 -4 1 -4 -38z"/>
<path d="M841 1873 c-23 -80 -4 -197 43 -278 28 -47 98 -101 146 -111 89 -20
99 -25 108 -52 l10 -27 7 28 c4 15 4 38 1 52 -6 24 -26 33 -107 49 -15 3 -48
20 -75 38 -38 25 -57 48 -83 100 -30 60 -34 76 -35 153 -1 47 -2 85 -3 85 -1
0 -7 -17 -12 -37z"/>
<path d="M1811 1862 c-1 -16 -5 -21 -13 -16 -10 6 -10 4 0 -8 7 -9 11 -29 10
-46 -2 -28 -4 -30 -33 -25 -16 3 -28 3 -25 0 8 -9 236 -67 263 -67 25 0 245
84 261 101 14 13 3 11 -30 -5 -16 -8 -52 -24 -81 -35 l-52 -20 -4 27 -4 27 -2
-27 c-1 -19 -10 -32 -31 -43 -50 -26 -60 -21 -60 30 0 25 -3 44 -7 43 -19 -5
-95 15 -108 29 -8 8 -15 10 -15 5 0 -21 -54 4 -61 29 -7 24 -7 24 -8 1z m67
-77 c3 -22 0 -27 -13 -21 -9 3 -23 6 -31 6 -9 0 -14 11 -14 29 0 27 2 29 28
22 20 -5 28 -15 30 -36z m92 5 c20 -5 26 -13 28 -44 3 -37 2 -38 -23 -32 -43
11 -85 47 -85 73 0 25 -2 25 80 3z m-123 -36 c-3 -3 -12 -4 -19 -1 -8 3 -5 6
6 6 11 1 17 -2 13 -5z"/>
<path d="M1000 1840 c-24 -24 -26 -45 -5 -36 18 7 55 -27 55 -50 0 -13 7 -15
28 -11 56 11 84 27 80 45 -2 9 -8 16 -14 16 -5 -1 -23 -5 -40 -8 -28 -6 -32
-4 -38 18 -10 39 -41 51 -66 26z"/>
<path d="M1217 1844 c-6 -10 9 -42 16 -34 3 3 1 14 -3 24 -3 11 -9 15 -13 10z"/>
<path d="M2311 1763 c-19 -98 -101 -567 -101 -579 0 -6 70 -23 159 -38 88 -15
169 -30 179 -33 17 -4 20 2 27 52 3 31 5 59 2 61 -2 3 -74 16 -158 31 -85 15
-156 28 -158 29 -2 2 66 411 86 507 4 20 1 27 -10 27 -10 0 -18 -18 -26 -57z"/>
<path d="M1435 1800 c11 -5 27 -9 35 -9 9 0 8 4 -5 9 -11 5 -27 9 -35 9 -9 0
-8 -4 5 -9z"/>
<path d="M1257 1780 c3 -14 12 -41 20 -60 11 -30 12 -31 8 -6 -4 16 -13 43
-20 60 -11 23 -13 25 -8 6z"/>
<path d="M1505 1780 c11 -5 27 -9 35 -9 9 0 8 4 -5 9 -11 5 -27 9 -35 9 -9 0
-8 -4 5 -9z"/>
<path d="M1685 1780 c11 -5 29 -9 40 -9 l20 0 -20 9 c-11 5 -29 9 -40 9 l-20
0 20 -9z"/>
<path d="M2030 1780 c8 -5 22 -10 30 -10 13 0 13 1 0 10 -8 5 -22 10 -30 10
-13 0 -13 -1 0 -10z"/>
<path d="M1575 1760 c11 -5 27 -9 35 -9 9 0 8 4 -5 9 -11 5 -27 9 -35 9 -9 0
-8 -4 5 -9z"/>
<path d="M1645 1740 c11 -5 27 -9 35 -9 9 0 8 4 -5 9 -11 5 -27 9 -35 9 -9 0
-8 -4 5 -9z"/>
<path d="M1451 1727 c-1 -13 -7 -16 -28 -12 -23 4 -22 3 5 -7 22 -7 32 -18 33
-32 1 -17 2 -18 6 -3 5 20 14 21 73 3 26 -8 45 -19 44 -27 -1 -8 -14 -54 -29
-103 -19 -62 -30 -85 -36 -75 -6 10 -8 3 -7 -21 1 -19 -1 -49 -6 -66 l-7 -32
62 -7 c57 -7 64 -5 79 15 16 22 27 22 115 5 11 -2 25 -18 32 -35 7 -19 18 -30
30 -30 10 0 42 -6 71 -14 29 -7 55 -10 58 -5 5 9 -43 141 -85 234 -15 33 -38
86 -51 117 -17 41 -31 60 -49 67 -14 5 -19 10 -11 11 10 1 9 4 -5 10 -28 12
-56 11 -30 -1 21 -10 10 -9 -71 7 -28 6 -33 3 -42 -22 -6 -16 -11 -22 -11 -14
-1 12 -3 12 -9 2 -13 -20 -112 6 -122 32 -7 18 -9 18 -9 3z m299 -42 c4 -2 13
-19 20 -37 7 -18 44 -104 82 -191 38 -87 68 -160 66 -162 -2 -2 -26 2 -53 8
-41 11 -53 19 -64 44 -13 29 -17 31 -90 37 -68 7 -77 5 -92 -12 -13 -16 -24
-19 -62 -15 -26 3 -47 7 -47 8 0 1 25 80 55 175 30 95 55 174 55 176 0 3 121
-25 130 -31z"/>
<path d="M1685 1558 c-25 -70 -34 -102 -31 -106 11 -10 96 -14 96 -5 0 15 -49
123 -55 123 -3 0 -8 -6 -10 -12z m28 -55 c2 -10 8 -26 12 -35 6 -15 2 -18 -20
-18 -23 0 -26 3 -21 23 3 12 6 28 6 35 0 18 17 15 23 -5z"/>
<path d="M1291 1675 c1 -19 18 -51 18 -35 0 8 -4 22 -9 30 -5 8 -9 11 -9 5z"/>
<path d="M2876 1648 c-9 -36 -7 -86 3 -69 7 11 31 13 110 9 l101 -5 0 37 c0
46 -10 50 -126 50 -76 0 -82 -1 -88 -22z"/>
<path d="M1476 1616 c5 -33 3 -38 -11 -32 -9 3 -13 2 -10 -4 3 -6 13 -10 21
-10 8 0 14 -10 15 -22 0 -13 5 -32 10 -43 13 -29 0 60 -17 110 l-14 40 6 -39z"/>
<path d="M1314 1603 c2 -10 10 -37 17 -61 7 -23 14 -40 16 -38 5 5 -27 116
-33 116 -3 0 -3 -8 0 -17z"/>
<path d="M2235 1575 c-3 -26 -4 -49 -2 -52 3 -3 9 16 12 42 4 25 5 48 2 51 -2
3 -8 -16 -12 -41z"/>
<path d="M1893 1545 c0 -27 2 -38 4 -22 2 15 2 37 0 50 -2 12 -4 0 -4 -28z"/>
<path d="M2215 1460 c-4 -28 -5 -54 -2 -56 3 -3 8 18 12 46 4 28 5 54 2 56 -3
3 -8 -18 -12 -46z"/>
<path d="M1361 1460 c0 -8 4 -22 9 -30 12 -18 12 -2 0 25 -6 13 -9 15 -9 5z"/>
<path d="M3038 1433 l-3 -38 -96 -3 -97 -3 -6 -37 c-4 -20 -9 -45 -12 -54 -3
-10 -1 -18 5 -18 6 0 11 7 11 15 0 12 17 15 95 15 68 0 97 4 100 13 10 28 21
147 14 147 -4 0 -9 -17 -11 -37z"/>
<path d="M2004 1355 c0 -55 1 -76 3 -47 2 29 2 74 0 100 -2 26 -3 2 -3 -53z"/>
<path d="M890 1428 c0 -25 48 -114 83 -154 88 -101 199 -97 254 10 l16 31 -38
-34 c-35 -30 -43 -33 -87 -29 -59 6 -106 41 -155 114 -42 63 -52 74 -63 74 -6
0 -10 -6 -10 -12z"/>
<path d="M1381 1400 c0 -8 4 -24 9 -35 5 -13 9 -14 9 -5 0 8 -4 24 -9 35 -5
13 -9 14 -9 5z"/>
<path d="M1400 1333 c0 -17 33 -41 65 -47 29 -6 29 -6 -4 7 -18 7 -39 21 -47
32 -8 10 -14 14 -14 8z"/>
<path d="M2057 1082 c-22 -25 -21 -75 1 -95 20 -18 57 -23 66 -8 3 4 -6 6 -19
3 -14 -2 -32 1 -40 8 -20 17 -19 69 2 92 9 10 14 18 11 18 -3 0 -12 -8 -21
-18z"/>
<path d="M1845 1070 c6 -10 4 -12 -11 -6 -31 12 -4 -9 51 -39 28 -15 42 -20
32 -12 -12 10 -14 17 -7 22 20 12 -2 27 -32 21 -16 -3 -27 -2 -23 3 3 5 0 13
-6 17 -8 5 -9 3 -4 -6z m55 -34 c-7 -7 -14 -6 -21 1 -9 9 -7 12 9 10 14 -1 18
-5 12 -11z"/>
<path d="M1332 1058 c-7 -7 -11 -26 -11 -42 l2 -31 4 30 c3 17 9 36 15 43 13
15 6 16 -10 0z"/>
<path d="M1365 990 l20 -23 -27 5 c-15 3 -25 1 -22 -3 6 -11 51 -12 57 -1 3 4
-7 16 -22 26 l-26 20 20 -24z"/>
<path d="M1860 929 c-6 -11 -9 -25 -6 -32 2 -7 5 -4 5 6 1 12 6 16 14 11 6 -4
9 -4 5 1 -4 4 -3 14 3 22 8 9 8 13 1 13 -6 0 -16 -9 -22 -21z"/>
<path d="M1383 3423 c9 -2 25 -2 35 0 9 3 1 5 -18 5 -19 0 -27 -2 -17 -5z"/>
<path d="M1738 3393 c18 -2 45 -2 60 0 15 2 0 4 -33 4 -33 0 -45 -2 -27 -4z"/>
<path d="M795 3140 c-3 -5 1 -10 9 -10 9 0 19 0 23 -1 4 0 9 4 11 10 5 14 -35
14 -43 1z"/>
<path d="M603 3113 c26 -2 67 -2 90 0 23 2 2 3 -48 3 -49 0 -68 -1 -42 -3z"/>
<path d="M608 3043 c-30 -8 -20 -23 15 -23 44 0 78 10 71 21 -5 9 -55 10 -86
2z"/>
<path d="M913 2793 c42 -2 112 -2 155 0 42 1 7 3 -78 3 -85 0 -120 -2 -77 -3z"/>
</g>
</svg>
